<svg width="160" height="24" viewBox="0 0 160 24" fill="none" xmlns="http://www.w3.org/2000/svg">
<path d="M23.9983 11.9991C23.9983 18.6279 18.6228 24 12.006 24C5.37377 24 0 18.6279 0 11.9991C0 5.37893 5.37377 0 12.006 0C18.6228 0 23.9983 5.37893 23.9983 11.9991Z" fill="#FEFEFE"/>
<path d="M12.0129 23.4338C18.3189 23.4338 23.4351 18.3175 23.4351 12.0029C23.4351 5.68827 18.3189 0.570312 12.0112 0.570312C5.69484 0.570312 0.582031 5.68827 0.582031 12.0029C0.582031 18.3209 5.69484 23.4338 12.0129 23.4338Z" fill="#0083C9"/>
<mask id="mask0_33591_7605" style="mask-type:luminance" maskUnits="userSpaceOnUse" x="0" y="0" width="24" height="24">
<path d="M12.0129 23.433C18.3189 23.433 23.4351 18.3167 23.4351 12.0056C23.4351 5.69266 18.3189 0.578125 12.0112 0.578125C5.69484 0.578125 0.582031 5.69266 0.582031 12.0056C0.582031 18.3202 5.69484 23.433 12.0129 23.433Z" fill="white"/>
</mask>
<g mask="url(#mask0_33591_7605)">
<path d="M12.1145 17.5171C17.1431 17.5171 21.4439 18.9215 23.2946 20.9079C23.9041 19.4933 24.2458 17.9206 24.2458 16.2844C24.2458 9.72259 18.8119 4.41406 12.1145 4.41406C5.42557 4.41406 -0.0117188 9.72431 -0.0117188 16.2896C-0.0117188 17.9258 0.329937 19.4915 0.941138 20.9079C2.78848 18.9215 7.09436 17.5171 12.1145 17.5171Z" fill="#0083C9"/>
<path d="M12.1148 17.5275C17.1298 17.5275 21.4202 18.9216 23.2658 20.8908C23.8753 19.4898 24.2152 17.9292 24.2152 16.3051C24.2152 9.79645 18.7951 4.51367 12.1148 4.51367C5.44309 4.51367 0.0195312 9.79817 0.0195312 16.3102C0.0195312 17.9327 0.361188 19.4864 0.970673 20.8908C2.81286 18.9216 7.10673 17.5275 12.1148 17.5275Z" fill="#0085CB"/>
<path d="M12.1112 17.5415C17.1142 17.5415 21.3926 18.9218 23.2331 20.8773C23.8425 19.4867 24.1808 17.9381 24.1808 16.3277C24.1808 9.87055 18.7744 4.61523 12.1112 4.61523C5.4567 4.61523 0.046875 9.87398 0.046875 16.3328C0.046875 17.9432 0.388532 19.485 0.9963 20.8773C2.83334 18.9218 7.1169 17.5415 12.1112 17.5415Z" fill="#0086CC"/>
<path d="M12.1077 17.5518C17.0986 17.5518 21.365 18.9219 23.202 20.8602C23.8081 19.4816 24.1463 17.9467 24.1463 16.3483C24.1463 9.94441 18.7536 4.71484 12.1077 4.71484C5.47031 4.71484 0.0742188 9.94784 0.0742188 16.3534C0.0742188 17.9501 0.414155 19.4799 1.02192 20.8602C2.85381 18.9219 7.12707 17.5518 12.1077 17.5518Z" fill="#0088CD"/>
<path d="M12.108 17.5678C17.0852 17.5678 21.343 18.9258 23.1732 20.8487C23.7792 19.4803 24.1157 17.9575 24.1157 16.3728C24.1157 10.0222 18.7368 4.81836 12.108 4.81836C5.48954 4.81836 0.105469 10.0239 0.105469 16.3763C0.105469 17.9626 0.445407 19.4786 1.04974 20.8487C2.8782 18.9258 7.13944 17.5678 12.108 17.5678Z" fill="#008ACE"/>
<path d="M12.1045 17.5801C17.0696 17.5801 21.3154 18.9278 23.1404 20.8335C23.7448 19.4772 24.0813 17.9681 24.0813 16.3954C24.0813 10.098 18.7161 4.91992 12.1045 4.91992C5.50315 4.91992 0.132812 10.0997 0.132812 16.3989C0.132812 17.9715 0.472749 19.4755 1.07537 20.8335C2.89867 18.9278 7.14962 17.5801 12.1045 17.5801Z" fill="#008BCF"/>
<path d="M12.1048 17.5921C17.0562 17.5921 21.2917 18.9261 23.1133 20.8181C23.7159 19.4721 24.0507 17.975 24.0507 16.4161C24.0507 10.1718 18.701 5.01953 12.1048 5.01953C5.52066 5.01953 0.164062 10.1735 0.164062 16.4195C0.164062 17.9801 0.502283 19.4721 1.1049 20.8181C2.92305 18.9261 7.1637 17.5921 12.1048 17.5921Z" fill="#008DD1"/>
<path d="M12.1013 17.6063C17.0407 17.6063 21.2641 18.93 23.0806 20.8049C23.6832 19.4709 24.0163 17.9875 24.0163 16.4406C24.0163 10.2496 18.6803 5.12305 12.1013 5.12305C5.53427 5.12305 0.191406 10.2513 0.191406 16.444C0.191406 17.9909 0.529628 19.4709 1.13053 20.8049C2.94353 18.93 7.17215 17.6063 12.1013 17.6063Z" fill="#008FD2"/>
<path d="M12.1038 17.6203C17.0295 17.6203 21.2426 18.932 23.0539 20.7914C23.6548 19.4694 23.9896 17.9963 23.9896 16.4632C23.9896 10.3254 18.6656 5.22461 12.1038 5.22461C5.55397 5.22461 0.226562 10.3271 0.226562 16.4666C0.226562 17.9998 0.561349 19.4677 1.16225 20.7914C2.9701 18.932 7.18842 17.6203 12.1038 17.6203Z" fill="#0091D3"/>
<path d="M12.1002 17.6307C17.0139 17.6307 21.2168 18.9321 23.0229 20.7742C23.6221 19.4643 23.9551 18.005 23.9551 16.4855C23.9551 10.3975 18.6449 5.32422 12.1002 5.32422C5.56758 5.32422 0.253906 10.3993 0.253906 16.4872C0.253906 18.0084 0.588692 19.4626 1.18788 20.7742C2.99058 18.9321 7.1986 17.6307 12.1002 17.6307Z" fill="#0092D4"/>
<path d="M12.0967 17.6447C16.9966 17.6447 21.1892 18.9323 22.9901 20.7608C23.5893 19.4611 23.9207 18.0138 23.9207 16.5081C23.9207 10.4734 18.6242 5.42578 12.0967 5.42578C5.58119 5.42578 0.28125 10.4751 0.28125 16.5098C0.28125 18.0172 0.616036 19.4611 1.2135 20.7608C3.01105 18.9323 7.20877 17.6447 12.0967 17.6447Z" fill="#0094D6"/>
<path d="M12.0987 17.6589C16.9849 17.6589 21.1655 18.9363 22.9613 20.7476C23.5588 19.4599 23.8901 18.0263 23.8901 16.5327C23.8901 10.5511 18.6091 5.5293 12.0987 5.5293C5.60043 5.5293 0.3125 10.5528 0.3125 16.5344C0.3125 18.0298 0.645571 19.4599 1.24132 20.7476C3.03544 18.9363 7.22114 17.6589 12.0987 17.6589Z" fill="#0096D7"/>
<path d="M12.0952 17.6675C16.9676 17.6675 21.1379 18.9346 22.9303 20.7304C23.526 19.4531 23.8557 18.0315 23.8557 16.5516C23.8557 10.6233 18.5883 5.62891 12.0952 5.62891C5.61404 5.62891 0.339844 10.625 0.339844 16.5533C0.339844 18.0349 0.672913 19.4531 1.26695 20.7304C3.05591 18.9346 7.23132 17.6675 12.0952 17.6675Z" fill="#0098D8"/>
<path d="M12.0955 17.6835C16.956 17.6835 21.1159 18.9385 22.9014 20.7172C23.4955 19.4519 23.8251 18.044 23.8251 16.5761C23.8251 10.701 18.5715 5.73242 12.0955 5.73242C5.63155 5.73242 0.371094 10.7027 0.371094 16.5778C0.371094 18.0475 0.702447 19.4519 1.29648 20.7172C3.08201 18.9385 7.2454 17.6835 12.0955 17.6835Z" fill="#009AD9"/>
<path d="M12.092 17.6958C16.9404 17.6958 21.0883 18.9388 22.8687 20.7037C23.4627 19.4504 23.7906 18.0529 23.7906 16.5987C23.7906 10.7768 18.5508 5.83398 12.092 5.83398C5.64516 5.83398 0.398438 10.7768 0.398438 16.6004C0.398438 18.0563 0.729792 19.4487 1.32211 20.7037C3.10249 18.9388 7.25386 17.6958 12.092 17.6958Z" fill="#009CDB"/>
<path d="M12.0884 17.7078C16.9231 17.7078 21.0607 18.9388 22.8359 20.6866C23.43 19.4453 23.7562 18.0615 23.7562 16.6193C23.7562 10.849 18.5301 5.93359 12.0884 5.93359C5.65877 5.93359 0.425781 10.8507 0.425781 16.6211C0.425781 18.0632 0.757137 19.4453 1.34774 20.6866C3.12297 18.9388 7.26403 17.7078 12.0884 17.7078Z" fill="#009EDC"/>
<path d="M12.0909 17.7221C16.9136 17.7221 21.0392 18.9428 22.811 20.6751C23.4016 19.4441 23.7278 18.074 23.7278 16.6439C23.7278 10.9267 18.5171 6.03711 12.0909 6.03711C5.67847 6.03711 0.460938 10.9284 0.460938 16.6456C0.460938 18.0757 0.788856 19.4441 1.37946 20.6751C3.14954 18.9428 7.2803 17.7221 12.0909 17.7221Z" fill="#00A0DD"/>
<path d="M12.0874 17.7361C16.8963 17.7361 21.0133 18.9447 22.7783 20.6599C23.3689 19.4409 23.6933 18.0829 23.6933 16.6665C23.6933 11.0025 18.4964 6.13867 12.0874 6.13867C5.69208 6.13867 0.488281 11.0043 0.488281 16.6682C0.488281 18.0846 0.816201 19.4409 1.40508 20.6599C3.17001 18.9447 7.28876 17.7361 12.0874 17.7361Z" fill="#00A2DE"/>
<path d="M12.0838 17.7464C16.8807 17.7464 20.9857 18.9431 22.7455 20.6445C23.3361 19.4358 23.6589 18.0915 23.6589 16.6871C23.6589 11.0764 18.4757 6.23828 12.0838 6.23828C5.70569 6.23828 0.515625 11.0781 0.515625 16.6871C0.515625 18.0932 0.841829 19.4358 1.429 20.6445C3.19049 18.9431 7.29894 17.7464 12.0838 17.7464Z" fill="#00A4E0"/>
<path d="M12.0842 17.7604C16.8673 17.7604 20.962 18.945 22.7184 20.6293C23.3056 19.4326 23.63 18.1003 23.63 16.7097C23.63 11.1522 18.4589 6.33984 12.0842 6.33984C5.72492 6.33984 0.546875 11.1522 0.546875 16.7097C0.546875 18.1021 0.873078 19.4343 1.45853 20.6293C3.21487 18.945 7.31302 17.7604 12.0842 17.7604Z" fill="#00A6E1"/>
<path d="M12.0845 17.7727C16.8557 17.7727 20.9384 18.947 22.6896 20.6158C23.2767 19.4295 23.5995 18.1109 23.5995 16.7323C23.5995 11.228 18.442 6.44141 12.0845 6.44141C5.74244 6.44141 0.578125 11.228 0.578125 16.7323C0.578125 18.1126 0.904329 19.4312 1.48806 20.6158C3.23926 18.947 7.32538 17.7727 12.0845 17.7727Z" fill="#02A8E3"/>
<path d="M12.081 17.7847C16.8384 17.7847 20.9125 18.9471 22.6568 20.5987C23.244 19.4261 23.565 18.1178 23.565 16.7529C23.565 11.3019 18.423 6.54102 12.081 6.54102C5.75605 6.54102 0.605469 11.3019 0.605469 16.7529C0.605469 18.1195 0.929957 19.4261 1.51369 20.5987C3.25973 18.9471 7.33556 17.7847 12.081 17.7847Z" fill="#07ABE4"/>
<path d="M12.0791 17.799C16.8228 17.799 20.8849 18.9493 22.6258 20.5854C23.2095 19.4248 23.5306 18.1303 23.5306 16.7774C23.5306 11.3779 18.4023 6.64453 12.0791 6.64453C5.76965 6.64453 0.632812 11.3796 0.632812 16.7774C0.632812 18.1303 0.957299 19.4248 1.53931 20.5854C3.28021 18.9493 7.34573 17.799 12.0791 17.799Z" fill="#0BADE5"/>
<path d="M12.0795 17.8113C16.8111 17.8113 20.8612 18.9513 22.5969 20.572C23.1807 19.4217 23.5 18.1392 23.5 16.8C23.5 11.4537 18.3855 6.74609 12.0795 6.74609C5.78717 6.74609 0.664062 11.4554 0.664062 16.8C0.664062 18.1409 0.98683 19.4234 1.56885 20.572C3.30459 18.9513 7.35809 17.8113 12.0795 17.8113Z" fill="#0FAFE7"/>
<path d="M12.0798 17.8233C16.7977 17.8233 20.8375 18.9513 22.5681 20.5548C23.1501 19.4166 23.4694 18.1478 23.4694 16.8207C23.4694 11.5276 18.3687 6.8457 12.0798 6.8457C5.80468 6.8457 0.695312 11.5276 0.695312 16.8207C0.695312 18.1478 1.01808 19.4183 1.59838 20.5548C3.32897 18.9513 7.37218 17.8233 12.0798 17.8233Z" fill="#11B2E8"/>
<path d="M12.0745 17.8356C16.7804 17.8356 20.8099 18.9516 22.5354 20.5414C23.1157 19.4134 23.4333 18.1567 23.4333 16.845C23.4333 11.6034 18.3462 6.94727 12.0745 6.94727C5.81658 6.94727 0.722656 11.6034 0.722656 16.8433C0.722656 18.1584 1.04371 19.4151 1.62058 20.5414C3.34945 18.9516 7.38064 17.8356 12.0745 17.8356Z" fill="#12B4EA"/>
<path d="M12.0749 17.8516C16.7671 17.8516 20.7862 18.9555 22.5065 20.5281C23.0868 19.4122 23.4027 18.1692 23.4027 16.8695C23.4027 11.6812 18.3311 7.05078 12.0749 7.05078C5.83409 7.05078 0.753906 11.6812 0.753906 16.8678C0.753906 18.1692 1.07324 19.4139 1.65011 20.5281C3.37383 18.9555 7.393 17.8516 12.0749 17.8516Z" fill="#12B7EB"/>
<path d="M12.0713 17.8602C16.7515 17.8602 20.7586 18.9538 22.4738 20.511C23.0523 19.4071 23.3682 18.1744 23.3682 16.8884C23.3682 11.7533 18.3104 7.15039 12.0713 7.15039C5.84942 7.15039 0.78125 11.7533 0.78125 16.8867C0.78125 18.1761 1.10058 19.4088 1.67573 20.511C3.39431 18.9538 7.40317 17.8602 12.0713 17.8602Z" fill="#11B9EC"/>
<path d="M12.0717 17.8761C16.7381 17.8761 20.7349 18.9577 22.4449 20.4978C23.0235 19.4058 23.3377 18.1869 23.3377 16.913C23.3377 11.8311 18.2936 7.25391 12.0717 7.25391C5.86693 7.25391 0.8125 11.8311 0.8125 16.9113C0.8125 18.1869 1.13012 19.4076 1.70527 20.4978C3.41869 18.9577 7.41726 17.8761 12.0717 17.8761Z" fill="#0FBCEE"/>
<path d="M12.0681 17.8884C16.7225 17.8884 20.7091 18.958 22.4139 20.4843C22.9908 19.4027 23.3032 18.1957 23.3032 16.9356C23.3032 11.9051 18.2728 7.35547 12.0681 7.35547C5.88054 7.35547 0.839844 11.9051 0.839844 16.9338C0.839844 18.1957 1.15746 19.4044 1.73089 20.4843C3.43917 18.958 7.42571 17.8884 12.0681 17.8884Z" fill="#0CBEEF"/>
<path d="M12.0684 17.9005C16.7091 17.9005 20.6854 18.958 22.3851 20.4672C22.9602 19.3976 23.2744 18.2043 23.2744 16.9562C23.2744 11.979 18.256 7.45508 12.0684 7.45508C5.89806 7.45508 0.871094 11.979 0.871094 16.9545C0.871094 18.2043 1.18871 19.3993 1.76043 20.4672C3.46355 18.958 7.4398 17.9005 12.0684 17.9005Z" fill="#0CC1F1"/>
<path d="M12.0649 17.9127C16.6935 17.9127 20.6578 18.96 22.3523 20.4537C22.9275 19.3944 23.2399 18.2132 23.2399 16.9788C23.2399 12.0548 18.2353 7.55664 12.0649 7.55664C5.91166 7.55664 0.898438 12.0548 0.898438 16.9771C0.898438 18.2132 1.21434 19.3961 1.78605 20.4537C3.48403 18.96 7.44997 17.9127 12.0649 17.9127Z" fill="#10C3F2"/>
<path d="M12.0651 17.943C16.6868 17.943 20.6459 18.9834 22.3387 20.4668C22.9122 19.4143 23.2246 18.2417 23.2246 17.0141C23.2246 12.1228 18.2286 7.65039 12.0651 7.65039C5.92042 7.65039 0.914062 12.1228 0.914062 17.0124C0.914062 18.2417 1.22997 19.4178 1.79996 20.4668C3.49622 18.9834 7.4553 17.943 12.0651 17.943Z" fill="#20C5F3"/>
<path d="M12.0652 17.9732C16.6819 17.9732 20.6358 19.0068 22.3252 20.4798C22.8969 19.436 23.2094 18.2702 23.2094 17.0512C23.2094 12.1908 18.2202 7.74414 12.0652 7.74414C5.92918 7.74414 0.929688 12.1908 0.929688 17.0495C0.929688 18.2702 1.24387 19.4377 1.81387 20.4815C3.50669 19.0068 7.46234 17.9732 12.0652 17.9732Z" fill="#30C6F3"/>
<path d="M12.0654 18.0017C16.6752 18.0017 20.6239 19.0284 22.3116 20.4929C22.8833 19.4542 23.1941 18.297 23.1941 17.0866C23.1941 12.2571 18.2118 7.83789 12.0654 7.83789C5.93622 7.83789 0.945312 12.2571 0.945312 17.0832C0.945312 18.297 1.2595 19.4559 1.82778 20.4929C3.51888 19.0284 7.46937 18.0017 12.0654 18.0017Z" fill="#40C8F3"/>
<path d="M12.0656 18.03C16.6685 18.03 20.6121 19.0498 22.2981 20.504C22.8681 19.4721 23.1788 18.3236 23.1788 17.12C23.1788 12.3231 18.2034 7.92969 12.0656 7.92969C5.94498 7.92969 0.960938 12.3231 0.960938 17.1183C0.960938 18.3236 1.27512 19.4739 1.84169 20.504C3.52936 19.0498 7.4747 18.03 12.0656 18.03Z" fill="#50C9F4"/>
<path d="M12.0675 18.0602C16.6652 18.0602 20.6037 19.0732 22.2862 20.517C22.8545 19.4921 23.1652 18.3521 23.1652 17.1571C23.1652 12.3929 18.1967 8.02344 12.0675 8.02344C5.95545 8.02344 0.976562 12.3928 0.976562 17.1537C0.976562 18.3521 1.29075 19.4955 1.85731 20.5188C3.54327 19.0732 7.48346 18.0602 12.0675 18.0602Z" fill="#5CCBF4"/>
<path d="M12.0637 18.0865C16.6546 18.0865 20.5879 19.0926 22.2687 20.5279C22.8353 19.5098 23.1478 18.375 23.1478 17.1886C23.1478 12.4569 18.1843 8.11328 12.0637 8.11328C5.95859 8.11328 0.988281 12.4569 0.988281 17.1869C0.988281 18.3767 1.30247 19.5115 1.86731 20.5279C3.55155 19.0926 7.48659 18.0865 12.0637 18.0865Z" fill="#63CDF5"/>
<path d="M12.0639 18.115C16.6479 18.115 20.5761 19.1143 22.2535 20.5392C22.8218 19.528 23.1325 18.4018 23.1325 17.224C23.1325 12.5232 18.1759 8.20703 12.0639 8.20703C5.96735 8.20703 1.00391 12.5232 1.00391 17.2206C1.00391 18.4035 1.31637 19.5297 1.88122 20.5392C3.56203 19.1143 7.49192 18.115 12.0639 18.115Z" fill="#6ACEF5"/>
<path d="M12.0641 18.1453C16.6429 18.1453 20.566 19.1376 22.2399 20.5523C22.8065 19.5479 23.1172 18.4303 23.1172 17.2594C23.1172 12.5912 18.1675 8.30078 12.0641 8.30078C5.9761 8.30078 1.01953 12.5912 1.01953 17.2576C1.01953 18.432 1.332 19.5497 1.89513 20.554C3.57422 19.1376 7.49895 18.1453 12.0641 18.1453Z" fill="#72D0F5"/>
<path d="M12.0643 18.1755C16.6363 18.1755 20.5541 19.1627 22.2263 20.5671C22.7912 19.5679 23.1019 18.4588 23.1019 17.2965C23.1019 12.6592 18.1591 8.39453 12.0643 8.39453C5.98486 8.39453 1.03516 12.6592 1.03516 17.2947C1.03516 18.4605 1.34762 19.5696 1.90904 20.5671C3.58469 19.1627 7.50428 18.1755 12.0643 18.1755Z" fill="#79D2F6"/>
<path d="M12.0644 18.2038C16.6296 18.2038 20.5423 19.1841 22.2128 20.5782C22.7759 19.5876 23.0867 18.4853 23.0867 17.3299C23.0867 12.7253 18.1507 8.48633 12.0644 8.48633C5.9919 8.48633 1.05078 12.7253 1.05078 17.3282C1.05078 18.4853 1.36153 19.5893 1.92295 20.5782C3.59688 19.1841 7.51132 18.2038 12.0644 18.2038Z" fill="#80D3F6"/>
<path d="M12.0663 18.2325C16.6263 18.2325 20.5339 19.2077 22.2009 20.5915C22.7641 19.6077 23.0731 18.5141 23.0731 17.3672C23.0731 12.7935 18.144 8.58203 12.0663 8.58203C6.00237 8.58203 1.06641 12.7935 1.06641 17.3655C1.06641 18.5141 1.37887 19.6094 1.93857 20.5932C3.61079 19.2077 7.52008 18.2342 12.0663 18.2325Z" fill="#87D5F6"/>
<path d="M12.0665 18.2608C16.6196 18.2608 20.522 19.2291 22.1874 20.6043C22.7488 19.6257 23.0595 18.5406 23.0595 17.4023C23.0595 12.8595 18.1356 8.67383 12.0665 8.67383C6.01113 8.67383 1.08203 12.8595 1.08203 17.3989C1.08203 18.5406 1.39278 19.6274 1.95248 20.6043C3.62127 19.2291 7.5254 18.2625 12.0665 18.2608Z" fill="#8DD7F7"/>
<path d="M12.0667 18.291C16.6129 18.291 20.5102 19.2525 22.1738 20.6174C22.7335 19.6456 23.0443 18.5691 23.0443 17.4377C23.0443 12.9275 18.1272 8.76758 12.0667 8.76758C6.01817 8.76758 1.09766 12.9275 1.09766 17.436C1.09766 18.5691 1.40841 19.6473 1.96639 20.6191C3.63346 19.2524 7.53244 18.2927 12.0667 18.291Z" fill="#94D9F7"/>
<path d="M12.0629 18.3212C16.604 18.3212 20.4961 19.2758 22.1546 20.6304C22.716 19.6672 23.0251 18.5976 23.0251 17.4748C23.0251 12.9955 18.1149 8.86133 12.0629 8.86133C6.02302 8.86133 1.10938 12.9955 1.10938 17.4714C1.10938 18.5976 1.41841 19.6672 1.97639 20.6321C3.64002 19.2758 7.53558 18.3229 12.0629 18.3212Z" fill="#9ADBF8"/>
<path d="M12.0631 18.3497C16.5973 18.3497 20.4843 19.2975 22.1411 20.6435C22.7008 19.6855 23.0098 18.6227 23.0098 17.5085C23.0098 13.0618 18.1065 8.95508 12.0631 8.95508C6.03178 8.95508 1.125 13.0618 1.125 17.5068C1.125 18.6244 1.43403 19.6872 1.9903 20.6435C3.65222 19.2975 7.5409 18.3515 12.0631 18.3497Z" fill="#A0DDF8"/>
<path d="M12.0633 18.378C16.5906 18.378 20.4725 19.3189 22.1275 20.6546C22.6855 19.7034 22.9945 18.6493 22.9945 17.5436C22.9945 13.1279 18.098 9.04688 12.0633 9.04688C6.04054 9.04688 1.14062 13.1279 1.14062 17.5402C1.14062 18.651 1.44966 19.7051 2.0042 20.6563C3.66441 19.3189 7.54794 18.3797 12.0633 18.378Z" fill="#A6DFF8"/>
<path d="M12.0652 18.4082C16.5874 18.4082 20.4623 19.3422 22.1157 20.6676C22.6719 19.7234 22.981 18.6778 22.981 17.579C22.981 13.1958 18.0913 9.14062 12.0652 9.14062C6.0493 9.14062 1.15625 13.1958 1.15625 17.5773C1.15625 18.6795 1.46528 19.7251 2.01983 20.6693C3.6766 19.3422 7.55498 18.41 12.0652 18.4082Z" fill="#ACE1F9"/>
<path d="M12.0653 18.4365C16.5807 18.4365 20.4522 19.3636 22.1021 20.6805C22.6584 19.743 22.9674 18.7043 22.9674 17.6141C22.9674 13.2636 18.0847 9.23242 12.0653 9.23242C6.05805 9.23242 1.17188 13.2636 1.17188 17.6124C1.17188 18.7061 1.48091 19.743 2.03545 20.6805C3.68879 19.3636 7.56202 18.4382 12.0653 18.4365Z" fill="#B2E2F9"/>
<path d="M12.0655 18.465C16.574 18.465 20.4404 19.3853 22.0885 20.6918C22.6431 19.7613 22.9521 18.7311 22.9521 17.6478C22.9521 13.3299 18.0762 9.32617 12.0655 9.32617C6.06681 9.32617 1.1875 13.3299 1.1875 17.6461C1.1875 18.7329 1.49482 19.7613 2.04936 20.6935C3.69927 19.3853 7.56906 18.4667 12.0655 18.465Z" fill="#B8E4F9"/>
<path d="M12.0657 18.4952C16.569 18.4952 20.4285 19.4086 22.075 20.7048C22.6278 19.7812 22.9368 18.7596 22.9368 17.6849C22.9368 13.3979 18.0678 9.41992 12.0657 9.41992C6.07385 9.41992 1.20312 13.3979 1.20312 17.6832C1.20312 18.7614 1.51044 19.7829 2.06327 20.7066C3.71146 19.4086 7.57439 18.497 12.0657 18.4952Z" fill="#BEE6FA"/>
<path d="M12.0659 18.5255C16.5623 18.5255 20.4184 19.432 22.0597 20.7196C22.6125 19.8011 22.9216 18.7882 22.9216 17.722C22.9216 13.4659 18.0594 9.51367 12.0659 9.51367C6.08261 9.51367 1.21875 13.4659 1.21875 17.7186C1.21875 18.7899 1.52435 19.8028 2.07718 20.7213C3.72365 19.432 7.58143 18.5272 12.0659 18.5255Z" fill="#C3E8FA"/>
<path d="M12.066 18.5537C16.5556 18.5537 20.4065 19.4534 22.0461 20.7307C22.599 19.8208 22.9063 18.8147 22.9063 17.7554C22.9063 13.5319 18.051 9.60547 12.066 9.60547C6.09137 9.60547 1.23438 13.5319 1.23438 17.7537C1.23438 18.8164 1.53998 19.8208 2.09109 20.7324C3.73412 19.4534 7.58675 18.5555 12.066 18.5537Z" fill="#C9EAFB"/>
<path d="M12.064 18.5842C16.5485 18.5842 20.3925 19.477 22.0304 20.744C22.5815 19.841 22.8888 18.8417 22.8888 17.7927C22.8888 13.6002 18.0404 9.70117 12.064 9.70117C6.09794 9.70117 1.24609 13.6002 1.24609 17.7893C1.24609 18.8435 1.55341 19.841 2.10281 20.7457C3.74412 19.477 7.5916 18.5859 12.064 18.5842Z" fill="#CEECFB"/>
<path d="M12.0642 18.6125C16.5418 18.6125 20.3824 19.4984 22.0168 20.7568C22.5662 19.8589 22.8735 18.8683 22.8735 17.8262C22.8735 13.6662 18.032 9.79297 12.0642 9.79297C6.10498 9.79297 1.26172 13.6662 1.26172 17.8244C1.26172 18.87 1.56732 19.8589 2.11672 20.7586C3.7546 19.4984 7.59865 18.6142 12.0642 18.6125Z" fill="#D4EEFB"/>
<path d="M12.0644 18.6427C16.5351 18.6427 20.3705 19.5235 22.0033 20.7699C22.5509 19.8789 22.86 18.8968 22.86 17.8633C22.86 13.7342 18.0236 9.88672 12.0644 9.88672C6.11373 9.88672 1.27734 13.7342 1.27734 17.8598C1.27734 18.8985 1.58294 19.8806 2.13062 20.7716C3.76679 19.5235 7.60397 18.6444 12.0644 18.6427Z" fill="#D9F1FC"/>
<path d="M12.0645 18.6712C16.5301 18.6712 20.3587 19.5451 21.9897 20.7812C22.5374 19.8988 22.8447 18.9236 22.8447 17.8969C22.8447 13.8005 18.0152 9.98047 12.0645 9.98047C6.12249 9.98047 1.29297 13.8005 1.29297 17.8952C1.29297 18.9253 1.59685 19.8988 2.14453 20.783C3.77898 19.5451 7.61101 18.6729 12.0645 18.6712Z" fill="#DFF3FC"/>
<path d="M12.0647 18.7014C16.5234 18.7014 20.3486 19.5685 21.9761 20.796C22.5221 19.9187 22.8294 18.9521 22.8294 17.934C22.8294 13.8685 18.0068 10.0742 12.0647 10.0742C6.12953 10.0742 1.30859 13.8685 1.30859 17.9306C1.30859 18.9538 1.61248 19.9187 2.15844 20.7977C3.78945 19.5685 7.61805 18.7032 12.0647 18.7014Z" fill="#E5F5FC"/>
<path d="M12.0627 18.726C16.5145 18.726 20.3345 19.5879 21.9587 20.8052C22.5046 19.9347 22.812 18.9767 22.812 17.9672C22.812 13.9326 17.9962 10.1641 12.0627 10.1641C6.1361 10.1641 1.32031 13.9326 1.32031 17.9638C1.32031 18.9784 1.6242 19.9347 2.17016 20.8069C3.79946 19.5879 7.62118 18.7295 12.0627 18.726Z" fill="#EBF7FD"/>
<path d="M12.0668 18.7563C16.5134 18.7563 20.3266 19.6113 21.949 20.8182C22.495 19.9546 22.8006 19.0052 22.8006 18.0026C22.8006 14.0006 17.9917 10.2578 12.0668 10.2578C6.14877 10.2578 1.33984 14.0006 1.33984 18.0009C1.33984 19.0069 1.64373 19.9546 2.18797 20.8199C3.81384 19.6113 7.63213 18.7597 12.0668 18.7563Z" fill="#F2F9FD"/>
<path d="M12.067 18.7848C16.5068 18.7848 20.3165 19.6329 21.9355 20.8313C22.4797 19.9746 22.7853 19.032 22.7853 18.0379C22.7853 14.0686 17.9832 10.3516 12.067 10.3516C6.15752 10.3516 1.35547 14.0686 1.35547 18.0345C1.35547 19.0337 1.65935 19.9746 2.20188 20.833C3.82603 19.6329 7.63746 18.7882 12.067 18.7848Z" fill="#F8FCFE"/>
<path d="M12.0632 18.8131C16.4961 18.8131 20.3007 19.6543 21.918 20.8424C22.4605 19.9925 22.7678 19.0569 22.7678 18.0714C22.7678 14.1346 17.9709 10.4434 12.0632 10.4434C6.16066 10.4434 1.36719 14.1346 1.36719 18.0697C1.36719 19.0603 1.66935 19.9925 2.21188 20.8441C3.8326 19.6543 7.64059 18.8165 12.0632 18.8131Z" fill="#FEFEFE"/>
</g>
<path d="M12.0118 14.8867C8.13339 14.8867 4.53486 15.5477 1.56641 16.662C3.35022 20.6537 7.3505 23.4333 12.0135 23.4333C16.6679 23.4333 20.663 20.6519 22.4537 16.662C19.4853 15.5477 15.8816 14.8867 12.0118 14.8867Z" fill="#0083C9"/>
<path d="M142.296 11.8652C146.429 9.69581 148.688 6.9497 149.072 3.62692C149.072 3.33858 148.99 3.09829 148.825 2.90607L148.599 2.7207H151.626C151.722 2.7207 151.805 2.7413 151.873 2.78249C152.107 2.89234 152.224 3.12575 152.224 3.48275C152.224 4.05943 152.148 4.62238 151.997 5.1716C151.846 5.70709 151.633 6.22199 151.359 6.71628C152.306 7.45773 153.384 8.16486 154.592 8.83765C155.814 9.51045 157.146 10.1626 158.588 10.7942L157.022 12.998C154.18 11.5014 151.997 9.84684 150.473 8.03442C150.006 8.62483 149.471 9.18091 148.867 9.70267C148.276 10.2107 147.651 10.6775 146.992 11.1032C146.347 11.5288 145.688 11.9133 145.015 12.2565C144.356 12.5998 143.724 12.895 143.12 13.1422L142.296 11.8652ZM159.659 17.9204V19.5475H141.246V17.9204H159.659Z" fill="white"/>
<path d="M139.433 21.6287H136.59V4.06048C136.59 3.78587 136.577 3.51813 136.549 3.25725C136.535 2.98264 136.467 2.72176 136.343 2.47461H138.485C139.117 2.47461 139.433 2.6943 139.433 3.13367V21.6287ZM130.576 3.9987C130.576 3.8202 130.563 3.64857 130.535 3.4838C130.508 3.30531 130.432 3.16114 130.309 3.05129H132.78C133.206 3.05129 133.419 3.28471 133.419 3.75155V15.4088H125.263C125.043 15.4088 124.823 15.3882 124.604 15.347C124.398 15.3058 124.205 15.244 124.027 15.1616C123.862 15.0655 123.725 14.9419 123.615 14.7909C123.519 14.6261 123.471 14.427 123.471 14.1936V3.9987C123.471 3.8202 123.457 3.64857 123.43 3.4838C123.402 3.30531 123.327 3.16114 123.203 3.05129H125.675C126.1 3.05129 126.313 3.28471 126.313 3.75155V7.31462H130.576V3.9987ZM126.313 8.92109V13.1638C126.313 13.3698 126.347 13.5277 126.416 13.6375C126.498 13.7336 126.691 13.7817 126.993 13.7817H130.576V8.92109H126.313Z" fill="white"/>
<path d="M120.692 21.6287H117.85V9.333H114.081V7.70594H117.85V4.08108C117.85 3.98497 117.85 3.86139 117.85 3.71036C117.85 3.55932 117.843 3.40828 117.829 3.25725C117.815 3.10621 117.788 2.96204 117.747 2.82474C117.719 2.6737 117.678 2.55699 117.623 2.47461H119.744C120.376 2.47461 120.692 2.70116 120.692 3.15427V21.6287ZM103.227 14.7909C104.943 13.308 106.199 11.6672 106.996 9.86849C107.792 8.05607 108.204 6.07887 108.231 3.93691C108.231 3.59365 108.135 3.30531 107.943 3.07189L107.799 2.94831H110.497C110.662 2.96204 110.778 2.98264 110.847 3.0101C111.094 3.13367 111.218 3.35336 111.218 3.66916C111.218 4.57538 111.128 5.44727 110.95 6.28483C110.771 7.12239 110.511 7.93249 110.167 8.71513C110.442 9.04466 110.778 9.40852 111.177 9.80671C111.588 10.1912 112.042 10.5893 112.536 11.0013C113.03 11.3994 113.559 11.8045 114.122 12.2164C114.685 12.6146 115.254 12.9922 115.831 13.3492L114.225 15.5735C113.799 15.2165 113.36 14.8321 112.907 14.4202C112.467 13.9945 112.028 13.5551 111.588 13.102C111.163 12.6489 110.758 12.1821 110.373 11.7015C110.003 11.221 109.673 10.7404 109.385 10.2598C108.726 11.372 107.964 12.3949 107.099 13.3286C106.247 14.2623 105.266 15.0998 104.153 15.8413L103.227 14.7909Z" fill="white"/>
<path d="M101.249 13.2237H89.324C89.0906 13.2237 88.8572 13.1962 88.6238 13.1413C88.3904 13.0864 88.1775 13.004 87.9853 12.8942C87.7931 12.7706 87.6352 12.6195 87.5116 12.441C87.388 12.2488 87.3263 12.0154 87.3263 11.7408V4.71763C87.3263 4.48421 87.2988 4.25079 87.2439 4.01738C87.189 3.78396 87.0928 3.57113 86.9555 3.37891H101.125V4.98538H90.1273V11.0199C90.1273 11.4319 90.3607 11.6378 90.8275 11.6378H101.249V13.2237ZM103.432 17.9195V19.5466H85.0195V17.9195H103.432Z" fill="white"/>
<path d="M77.812 6.96449H80.3659V4.06048C80.3659 3.9781 80.3591 3.86139 80.3453 3.71036C80.3453 3.55932 80.3385 3.40828 80.3247 3.25725C80.311 3.09248 80.2904 2.94145 80.2629 2.80414C80.2355 2.65311 80.1943 2.54326 80.1394 2.47461H82.2607C82.8923 2.47461 83.2081 2.6943 83.2081 3.13367V16.006H80.3659V12.6695C80.0227 12.8343 79.6382 12.9304 79.2126 12.9579C78.8006 12.9716 78.3475 12.9785 77.8532 12.9785H66.7109V11.3926H68.2556V4.65776H66.7109V3.05129H78.1004V4.65776H76.5557V11.3926H78.0798C79.1645 11.4338 79.9265 11.2621 80.3659 10.8777V8.57096H77.812V6.96449ZM71.0978 11.3926H73.7341V4.65776H71.0978V11.3926ZM70.8919 16.0678C70.8919 15.8893 70.8781 15.7177 70.8507 15.5529C70.8232 15.3744 70.7408 15.2234 70.6035 15.0998H73.178C73.3977 15.0998 73.5419 15.1547 73.6105 15.2646C73.6792 15.3607 73.7135 15.5049 73.7135 15.6971V19.4043C73.7135 19.6103 73.7547 19.7682 73.8371 19.878C73.9332 19.9879 74.1254 20.0428 74.4138 20.0428H83.2905V21.6287H72.6631C72.4709 21.6287 72.2649 21.6081 72.0452 21.5669C71.8393 21.5394 71.6471 21.4776 71.4686 21.3815C71.3038 21.2992 71.1665 21.1824 71.0566 21.0314C70.9468 20.8804 70.8919 20.6813 70.8919 20.4341V16.0678Z" fill="white"/>
<path d="M64.2423 21.6287H61.4207V15.6353C61.2696 15.7726 61.0637 15.8756 60.8028 15.9442C60.5556 16.0129 60.2879 16.0678 59.9995 16.109C59.7249 16.1365 59.4503 16.1571 59.1757 16.1708C58.9148 16.1708 58.702 16.1708 58.5373 16.1708H50.9374C50.7315 16.1708 50.5255 16.1502 50.3195 16.109C50.1136 16.0678 49.9214 16.006 49.7429 15.9237C49.5781 15.8275 49.4408 15.704 49.3309 15.5529C49.2211 15.3882 49.1662 15.1891 49.1662 14.9557V9.72432C49.1662 9.50463 49.1456 9.31241 49.1044 9.14764C49.0632 8.96914 48.9946 8.78378 48.8984 8.59156H55.6127V4.65776H49.0426V3.05129H57.631C57.9468 3.05129 58.1597 3.10621 58.2695 3.21606C58.3931 3.3259 58.4549 3.49067 58.4549 3.71036V9.53896C58.4549 9.77238 58.3999 9.94401 58.2901 10.0539C58.1803 10.15 57.9674 10.198 57.6516 10.198H51.9878V13.9259C51.9878 14.1456 52.029 14.3103 52.1114 14.4202C52.1938 14.5163 52.386 14.5643 52.6881 14.5643H59.1551C59.3748 14.5643 59.6151 14.5506 59.876 14.5231C60.1506 14.4819 60.3977 14.4133 60.6174 14.3172C60.8508 14.2073 61.0431 14.0632 61.1941 13.8847C61.3451 13.6924 61.4207 13.4522 61.4207 13.1638V4.08108C61.4207 3.98497 61.4207 3.86139 61.4207 3.71036C61.4207 3.55932 61.4138 3.40828 61.4001 3.25725C61.3863 3.09248 61.3589 2.94145 61.3177 2.80414C61.2902 2.66684 61.2422 2.55699 61.1735 2.47461H63.3155C63.9333 2.47461 64.2423 2.70803 64.2423 3.17487V21.6287Z" fill="white"/>
<path d="M31.3919 7.08752C31.3919 6.40099 31.5636 5.75566 31.9068 5.15151C32.2501 4.54737 32.7169 4.02561 33.3073 3.58624C33.9115 3.13313 34.6117 2.783 35.4081 2.53585C36.2182 2.27497 37.0832 2.14453 38.0032 2.14453C38.9231 2.14453 39.7881 2.27497 40.5982 2.53585C41.4083 2.79673 42.1086 3.15372 42.699 3.60683C43.2894 4.04621 43.7563 4.56797 44.0995 5.17211C44.4428 5.77625 44.6144 6.41472 44.6144 7.08752C44.6144 7.77404 44.4428 8.41938 44.0995 9.02352C43.7563 9.61393 43.2894 10.1288 42.699 10.5682C42.1086 11.0076 41.4083 11.3577 40.5982 11.6186C39.7881 11.8795 38.9231 12.0099 38.0032 12.0099C37.0832 12.0099 36.2182 11.8863 35.4081 11.6392C34.6117 11.3783 33.9115 11.0282 33.3073 10.5888C32.7169 10.1357 32.2501 9.61393 31.9068 9.02352C31.5636 8.41938 31.3919 7.77404 31.3919 7.08752ZM34.2136 7.08752C34.2136 7.56809 34.3028 8.01433 34.4813 8.42624C34.6735 8.82443 34.9344 9.17456 35.2639 9.47663C35.6072 9.7787 36.0054 10.0121 36.4585 10.1769C36.9253 10.3417 37.4402 10.424 38.0032 10.424C38.5387 10.424 39.033 10.3417 39.4861 10.1769C39.9529 9.99839 40.3511 9.76497 40.6806 9.47663C41.0239 9.17456 41.2848 8.82443 41.4633 8.42624C41.6555 8.01433 41.7516 7.56809 41.7516 7.08752C41.7516 6.60695 41.6555 6.16071 41.4633 5.74879C41.2848 5.33688 41.0239 4.98675 40.6806 4.69841C40.3511 4.39634 39.9529 4.16292 39.4861 3.99815C39.033 3.81965 38.5387 3.73041 38.0032 3.73041C37.4677 3.73041 36.9665 3.81965 36.4997 3.99815C36.0328 4.16292 35.6278 4.39634 35.2845 4.69841C34.955 4.98675 34.6941 5.33688 34.5019 5.74879C34.3097 6.16071 34.2136 6.60695 34.2136 7.08752ZM28.7969 13.8223H47.2095V15.4288H39.4243V21.8547H36.6027V15.4288H28.7969V13.8223Z" fill="white"/>
</svg>
