<svg width="211" height="32" viewBox="0 0 211 32" fill="none" xmlns="http://www.w3.org/2000/svg">
<path d="M31.9977 15.9989C31.9977 24.8373 24.8304 32 16.008 32C7.16502 32 0 24.8373 0 15.9989C0 7.1719 7.16502 0 16.008 0C24.8304 0 31.9977 7.1719 31.9977 15.9989Z" fill="#FEFEFE"/>
<path d="M16.0185 31.2444C24.4265 31.2444 31.2482 24.4227 31.2482 16.0032C31.2482 7.58371 24.4265 0.759766 16.0162 0.759766C7.59442 0.759766 0.777344 7.58371 0.777344 16.0032C0.777344 24.4273 7.59442 31.2444 16.0185 31.2444Z" fill="#0083C9"/>
<mask id="mask0_33535_580" style="mask-type:luminance" maskUnits="userSpaceOnUse" x="0" y="0" width="32" height="32">
<path d="M16.0185 31.2446C24.4265 31.2446 31.2482 24.423 31.2482 16.0081C31.2482 7.59086 24.4265 0.771484 16.0162 0.771484C7.59442 0.771484 0.777344 7.59086 0.777344 16.0081C0.777344 24.4275 7.59442 31.2446 16.0185 31.2446Z" fill="white"/>
</mask>
<g mask="url(#mask0_33535_580)">
<path d="M16.1526 23.3555C22.8575 23.3555 28.5918 25.2281 31.0595 27.8766C31.8722 25.9904 32.3277 23.8935 32.3277 21.7119C32.3277 12.9628 25.0826 5.88477 16.1526 5.88477C7.2341 5.88477 -0.015625 12.9651 -0.015625 21.7188C-0.015625 23.9004 0.439916 25.9881 1.25485 27.8766C3.71797 25.2281 9.45915 23.3555 16.1526 23.3555Z" fill="#0083C9"/>
<path d="M16.1505 23.3713C22.8371 23.3713 28.5576 25.2301 31.0185 27.8557C31.8311 25.9878 32.2844 23.9069 32.2844 21.7414C32.2844 13.0632 25.0575 6.01953 16.1505 6.01953C7.25485 6.01953 0.0234375 13.0655 0.0234375 21.7483C0.0234375 23.9115 0.478979 25.9832 1.29163 27.8557C3.74788 25.2301 9.47303 23.3713 16.1505 23.3713Z" fill="#0085CB"/>
<path d="M16.1483 23.3893C22.8189 23.3893 28.5234 25.2298 30.9774 27.8371C31.7901 25.9829 32.241 23.9181 32.241 21.7709C32.241 13.1614 25.0325 6.1543 16.1483 6.1543C7.2756 6.1543 0.0625 13.166 0.0625 21.7777C0.0625 23.925 0.518043 25.9806 1.3284 27.8371C3.77779 25.2298 9.4892 23.3893 16.1483 23.3893Z" fill="#0086CC"/>
<path d="M16.1462 23.405C22.8007 23.405 28.4893 25.2318 30.9386 27.8162C31.7467 25.978 32.1977 23.9315 32.1977 21.8003C32.1977 13.2618 25.0075 6.28906 16.1462 6.28906C7.29635 6.28906 0.101562 13.2664 0.101562 21.8072C0.101562 23.9361 0.554811 25.9757 1.36517 27.8162C3.80769 25.2318 9.50537 23.405 16.1462 23.405Z" fill="#0088CD"/>
<path d="M16.144 23.425C22.7803 23.425 28.4573 25.2357 30.8976 27.7996C31.7056 25.9751 32.1543 23.9446 32.1543 21.8317C32.1543 13.3642 24.9824 6.42578 16.144 6.42578C7.31938 6.42578 0.140625 13.3665 0.140625 21.8363C0.140625 23.9515 0.593876 25.9728 1.39965 27.7996C3.83759 25.2357 9.51925 23.425 16.144 23.425Z" fill="#008ACE"/>
<path d="M16.1419 23.4407C22.7621 23.4407 28.4232 25.2377 30.8565 27.7787C31.6623 25.9702 32.111 23.9581 32.111 21.8612C32.111 13.4646 24.9574 6.56055 16.1419 6.56055C7.34013 6.56055 0.179688 13.4669 0.179688 21.8658C0.179688 23.9626 0.632936 25.9679 1.43643 27.7787C3.8675 25.2377 9.53542 23.4407 16.1419 23.4407Z" fill="#008BCF"/>
<path d="M16.1398 23.4587C22.7417 23.4587 28.389 25.2374 30.8178 27.7601C31.6212 25.9654 32.0676 23.9692 32.0676 21.8907C32.0676 13.565 24.9347 6.69531 16.1398 6.69531C7.36088 6.69531 0.21875 13.5673 0.21875 21.8953C0.21875 23.9761 0.669711 25.9654 1.4732 27.7601C3.89741 25.2374 9.5516 23.4587 16.1398 23.4587Z" fill="#008DD1"/>
<path d="M16.1376 23.4745C22.7235 23.4745 28.3548 25.2394 30.7767 27.7392C31.5802 25.9605 32.0243 23.9827 32.0243 21.9201C32.0243 13.6655 24.9096 6.83008 16.1376 6.83008C7.38163 6.83008 0.257812 13.6678 0.257812 21.9247C0.257812 23.9872 0.708774 25.9605 1.50998 27.7392C3.92731 25.2394 9.56548 23.4745 16.1376 23.4745Z" fill="#008FD2"/>
<path d="M16.1371 23.4925C22.7046 23.4925 28.3222 25.2414 30.7373 27.7205C31.5385 25.9579 31.9848 23.9938 31.9848 21.9496C31.9848 13.7659 24.8862 6.96484 16.1371 6.96484C7.404 6.96484 0.300781 13.7682 0.300781 21.9542C0.300781 23.9984 0.747164 25.9556 1.54836 27.7205C3.95883 25.2414 9.58326 23.4925 16.1371 23.4925Z" fill="#0091D3"/>
<path d="M16.131 23.5082C22.6826 23.5082 28.2864 25.2434 30.6946 27.6996C31.4935 25.953 31.9376 24.0073 31.9376 21.9814C31.9376 13.864 24.8573 7.09961 16.131 7.09961C7.42084 7.09961 0.335938 13.8663 0.335938 21.9836C0.335938 24.0118 0.782318 25.9507 1.58123 27.6996C3.98483 25.2434 9.59553 23.5082 16.131 23.5082Z" fill="#0092D4"/>
<path d="M16.1289 23.5262C22.6621 23.5262 28.2522 25.2431 30.6535 27.681C31.4524 25.9482 31.8942 24.0184 31.8942 22.0108C31.8942 13.9645 24.8322 7.23438 16.1289 7.23438C7.44159 7.23438 0.375 13.9668 0.375 22.0131C0.375 24.023 0.821382 25.9482 1.618 27.681C4.01474 25.2431 9.6117 23.5262 16.1289 23.5262Z" fill="#0094D6"/>
<path d="M16.129 23.5439C22.644 23.5439 28.218 25.2471 30.6125 27.6621C31.4091 25.9452 31.8509 24.0338 31.8509 22.0422C31.8509 14.0669 24.8095 7.37109 16.129 7.37109C7.46463 7.37109 0.414062 14.0691 0.414062 22.0445C0.414062 24.0384 0.858158 25.9452 1.65249 27.6621C4.04465 25.2471 9.62558 23.5439 16.129 23.5439Z" fill="#0096D7"/>
<path d="M16.1269 23.5593C22.6235 23.5593 28.1838 25.2487 30.5737 27.6432C31.368 25.94 31.8075 24.0446 31.8075 22.0714C31.8075 14.1669 24.7845 7.50781 16.1269 7.50781C7.48538 7.50781 0.453125 14.1692 0.453125 22.0737C0.453125 24.0492 0.897218 25.94 1.68926 27.6432C4.07455 25.2487 9.64175 23.5593 16.1269 23.5593Z" fill="#0098D8"/>
<path d="M16.1248 23.5773C22.6053 23.5773 28.1519 25.2507 30.5326 27.6223C31.3247 25.9352 31.7642 24.0581 31.7642 22.1008C31.7642 14.2674 24.7594 7.64258 16.1248 7.64258C7.50613 7.64258 0.492188 14.2697 0.492188 22.1031C0.492188 24.0626 0.933992 25.9352 1.72604 27.6223C4.10675 25.2507 9.65793 23.5773 16.1248 23.5773Z" fill="#009AD9"/>
<path d="M16.1226 23.5931C22.5872 23.5931 28.1177 25.2504 30.4916 27.6037C31.2836 25.9326 31.7209 24.0692 31.7209 22.1303C31.7209 14.3678 24.7344 7.77734 16.1226 7.77734C7.52688 7.77734 0.53125 14.3678 0.53125 22.1326C0.53125 24.0738 0.973056 25.9303 1.76281 27.6037C4.13666 25.2504 9.67181 23.5931 16.1226 23.5931Z" fill="#009CDB"/>
<path d="M16.1205 23.6111C22.5667 23.6111 28.0836 25.2524 30.4505 27.5828C31.2426 25.9277 31.6775 24.0827 31.6775 22.1598C31.6775 14.4659 24.7094 7.91211 16.1205 7.91211C7.54763 7.91211 0.570312 14.4682 0.570312 22.1621C0.570312 24.0849 1.01212 25.9277 1.79959 27.5828C4.16656 25.2524 9.68798 23.6111 16.1205 23.6111Z" fill="#009EDC"/>
<path d="M16.1199 23.6288C22.5502 23.6288 28.051 25.2564 30.4134 27.5661C31.2008 25.9248 31.6358 24.098 31.6358 22.1912C31.6358 14.5683 24.6882 8.04883 16.1199 8.04883C7.56999 8.04883 0.613281 14.5706 0.613281 22.1935C0.613281 24.1003 1.05051 25.9248 1.83797 27.5661C4.19808 25.2564 9.70576 23.6288 16.1199 23.6288Z" fill="#00A0DD"/>
<path d="M16.1178 23.6468C22.5297 23.6468 28.0191 25.2583 30.3723 27.5452C31.1598 25.9199 31.5924 24.1092 31.5924 22.2206C31.5924 14.6687 24.6632 8.18359 16.1178 8.18359C7.59074 8.18359 0.652344 14.671 0.652344 22.2229C0.652344 24.1115 1.08957 25.9199 1.87475 27.5452C4.22799 25.2583 9.71965 23.6468 16.1178 23.6468Z" fill="#00A2DE"/>
<path d="M16.1118 23.6625C22.5076 23.6625 27.981 25.2581 30.3274 27.5266C31.1148 25.915 31.5452 24.1226 31.5452 22.2501C31.5452 14.7692 24.6343 8.31836 16.1118 8.31836C7.60759 8.31836 0.6875 14.7715 0.6875 22.2501C0.6875 24.1249 1.12244 25.915 1.90533 27.5266C4.25399 25.2581 9.73192 23.6625 16.1118 23.6625Z" fill="#00A4E0"/>
<path d="M16.1135 23.6805C22.4911 23.6805 27.9507 25.26 30.2925 27.5057C31.0754 25.9102 31.508 24.1338 31.508 22.2796C31.508 14.8696 24.6131 8.45312 16.1135 8.45312C7.63453 8.45312 0.730469 14.8696 0.730469 22.2796C0.730469 24.1361 1.16541 25.9125 1.946 27.5057C4.2878 25.26 9.75199 23.6805 16.1135 23.6805Z" fill="#00A6E1"/>
<path d="M16.1114 23.6963C22.4729 23.6963 27.9165 25.262 30.2514 27.4871C31.0343 25.9053 31.4647 24.1472 31.4647 22.309C31.4647 14.97 24.5881 8.58789 16.1114 8.58789C7.65528 8.58789 0.769531 14.97 0.769531 22.309C0.769531 24.1495 1.20447 25.9076 1.98278 27.4871C4.31771 25.262 9.76587 23.6963 16.1114 23.6963Z" fill="#02A8E3"/>
<path d="M16.1053 23.7143C22.4486 23.7143 27.8807 25.264 30.2065 27.4662C30.9894 25.9027 31.4174 24.1584 31.4174 22.3385C31.4174 15.0705 24.5614 8.72266 16.1053 8.72266C7.67213 8.72266 0.804688 15.0705 0.804688 22.3385C0.804688 24.1607 1.23734 25.9027 2.01565 27.4662C4.34371 25.264 9.77814 23.7143 16.1053 23.7143Z" fill="#07ABE4"/>
<path d="M16.1055 23.732C22.4304 23.732 27.8465 25.2657 30.1677 27.4473C30.946 25.8998 31.3741 24.1738 31.3741 22.3699C31.3741 15.1706 24.5364 8.85938 16.1055 8.85938C7.69287 8.85938 0.84375 15.1729 0.84375 22.3699C0.84375 24.1738 1.2764 25.8998 2.05242 27.4473C4.37361 25.2657 9.79431 23.732 16.1055 23.732Z" fill="#0BADE5"/>
<path d="M16.1033 23.7477C22.4122 23.7477 27.8123 25.2677 30.1266 27.4286C30.905 25.8949 31.3307 24.1849 31.3307 22.3994C31.3307 15.271 24.5114 8.99414 16.1033 8.99414C7.71362 8.99414 0.882812 15.2733 0.882812 22.3994C0.882812 24.1872 1.31317 25.8972 2.08919 27.4286C4.40352 25.2677 9.80819 23.7477 16.1033 23.7477Z" fill="#0FAFE7"/>
<path d="M16.1051 23.7657C22.3957 23.7657 27.782 25.2697 30.0895 27.4078C30.8655 25.8901 31.2913 24.1984 31.2913 22.4289C31.2913 15.3714 24.4902 9.12891 16.1051 9.12891C7.73828 9.12891 0.925781 15.3714 0.925781 22.4289C0.925781 24.1984 1.35614 25.8923 2.12987 27.4078C4.43733 25.2697 9.82827 23.7657 16.1051 23.7657Z" fill="#11B2E8"/>
<path d="M16.1007 23.7814C22.3752 23.7814 27.7478 25.2694 30.0484 27.3891C30.8222 25.8852 31.2457 24.2095 31.2457 22.4606C31.2457 15.4718 24.4629 9.26367 16.1007 9.26367C7.75674 9.26367 0.964844 15.4718 0.964844 22.4583C0.964844 24.2118 1.39292 25.8875 2.16207 27.3891C4.46724 25.2694 9.84215 23.7814 16.1007 23.7814Z" fill="#12B4EA"/>
<path d="M16.0985 23.7995C22.3548 23.7995 27.7137 25.2714 30.0074 27.3682C30.7811 25.8803 31.2023 24.223 31.2023 22.4901C31.2023 15.5723 24.4402 9.39844 16.0985 9.39844C7.77749 9.39844 1.00391 15.5723 1.00391 22.4878C1.00391 24.223 1.42969 25.8826 2.19884 27.3682C4.49714 25.2714 9.85603 23.7995 16.0985 23.7995Z" fill="#12B7EB"/>
<path d="M16.0964 23.8149C22.3366 23.8149 27.6795 25.2731 29.9663 27.3493C30.7378 25.8774 31.159 24.2338 31.159 22.5192C31.159 15.6724 24.4151 9.53516 16.0964 9.53516C7.80052 9.53516 1.04297 15.6724 1.04297 22.5169C1.04297 24.2361 1.46875 25.8797 2.23561 27.3493C4.52705 25.2731 9.8722 23.8149 16.0964 23.8149Z" fill="#11B9EC"/>
<path d="M16.0942 23.8348C22.3161 23.8348 27.6453 25.277 29.9253 27.3304C30.6967 25.8745 31.1156 24.2492 31.1156 22.5506C31.1156 15.7747 24.3901 9.67188 16.0942 9.67188C7.82128 9.67188 1.08203 15.7747 1.08203 22.5483C1.08203 24.2492 1.50552 25.8768 2.27239 27.3304C4.55695 25.277 9.88837 23.8348 16.0942 23.8348Z" fill="#0FBCEE"/>
<path d="M16.0921 23.8506C22.298 23.8506 27.6134 25.2767 29.8865 27.3118C30.6556 25.8696 31.0723 24.2603 31.0723 22.5801C31.0723 15.8729 24.3651 9.80664 16.0921 9.80664C7.84202 9.80664 1.12109 15.8729 1.12109 22.5778C1.12109 24.2603 1.54459 25.8719 2.30916 27.3118C4.58686 25.2767 9.90225 23.8506 16.0921 23.8506Z" fill="#0CBEEF"/>
<path d="M16.09 23.8686C22.2775 23.8686 27.5792 25.2787 29.8454 27.2909C30.6123 25.8647 31.0312 24.2738 31.0312 22.6095C31.0312 15.9733 24.34 9.94141 16.09 9.94141C7.86277 9.94141 1.16016 15.9733 1.16016 22.6073C1.16016 24.2738 1.58365 25.867 2.34593 27.2909C4.61676 25.2787 9.91843 23.8686 16.09 23.8686Z" fill="#0CC1F1"/>
<path d="M16.0878 23.8843C22.2594 23.8843 27.545 25.2807 29.8044 27.2723C30.5712 25.8598 30.9879 24.2849 30.9879 22.639C30.9879 16.0737 24.315 10.0762 16.0878 10.0762C7.88352 10.0762 1.19922 16.0737 1.19922 22.6367C1.19922 24.2849 1.62042 25.8621 2.38271 27.2723C4.64667 25.2807 9.9346 23.8843 16.0878 23.8843Z" fill="#10C3F2"/>
<path d="M16.0867 23.9227C22.2491 23.9227 27.5279 25.3099 29.785 27.2877C30.5496 25.8845 30.9662 24.321 30.9662 22.6842C30.9662 16.1624 24.3048 10.1992 16.0867 10.1992C7.8939 10.1992 1.21875 16.1624 1.21875 22.6819C1.21875 24.321 1.63995 25.889 2.39995 27.2877C4.66163 25.3099 9.94039 23.9227 16.0867 23.9227Z" fill="#20C5F3"/>
<path d="M16.0857 23.963C22.2412 23.963 27.5131 25.341 29.7656 27.3051C30.5279 25.9133 30.9445 24.359 30.9445 22.7337C30.9445 16.2531 24.2923 10.3242 16.0857 10.3242C7.90427 10.3242 1.23828 16.2531 1.23828 22.7314C1.23828 24.359 1.6572 25.9156 2.41719 27.3074C4.67429 25.341 9.94848 23.963 16.0857 23.963Z" fill="#30C6F3"/>
<path d="M16.0885 24.001C22.2349 24.001 27.4999 25.3699 29.7501 27.3225C30.5124 25.9376 30.9267 24.3947 30.9267 22.7809C30.9267 16.3415 24.2836 10.4492 16.0885 10.4492C7.91626 10.4492 1.26172 16.3415 1.26172 22.7763C1.26172 24.3947 1.68063 25.9399 2.43834 27.3225C4.69315 25.3699 9.96047 24.001 16.0885 24.001Z" fill="#40C8F3"/>
<path d="M16.0874 24.0393C22.2246 24.0393 27.4828 25.3991 29.7307 27.338C30.4907 25.9622 30.9051 24.4308 30.9051 22.8261C30.9051 16.4302 24.2711 10.5723 16.0874 10.5723C7.92664 10.5723 1.28125 16.4302 1.28125 22.8238C1.28125 24.4308 1.70016 25.9645 2.45558 27.338C4.70581 25.3991 9.96626 24.0393 16.0874 24.0393Z" fill="#50C9F4"/>
<path d="M16.0887 24.0796C22.219 24.0796 27.4703 25.4302 29.7137 27.3554C30.4714 25.9888 30.8857 24.4688 30.8857 22.8755C30.8857 16.5231 24.2609 10.6973 16.0887 10.6973C7.9393 10.6973 1.30078 16.5231 1.30078 22.871C1.30078 24.4688 1.7197 25.9934 2.47511 27.3577C4.72305 25.4302 9.97664 24.0796 16.0887 24.0796Z" fill="#5CCBF4"/>
<path d="M16.0876 24.118C22.2088 24.118 27.4532 25.4594 29.6943 27.3731C30.4497 26.0157 30.8663 24.5025 30.8663 22.9207C30.8663 16.6119 24.2484 10.8203 16.0876 10.8203C7.94739 10.8203 1.32031 16.6119 1.32031 22.9185C1.32031 24.5048 1.73922 26.018 2.49235 27.3731C4.73801 25.4594 9.98473 24.118 16.0876 24.118Z" fill="#63CDF5"/>
<path d="M16.0865 24.156C22.1985 24.156 27.4361 25.4883 29.6726 27.3883C30.4303 26.04 30.8446 24.5383 30.8446 22.9679C30.8446 16.7002 24.2359 10.9453 16.0865 10.9453C7.95776 10.9453 1.33984 16.7002 1.33984 22.9633C1.33984 24.5406 1.75647 26.0422 2.5096 27.3883C4.75067 25.4883 9.99052 24.156 16.0865 24.156Z" fill="#6ACEF5"/>
<path d="M16.0854 24.1963C22.1906 24.1963 27.4213 25.5194 29.6532 27.4057C30.4086 26.0665 30.823 24.5763 30.823 23.0151C30.823 16.7909 24.2234 11.0703 16.0854 11.0703C7.96813 11.0703 1.35938 16.7909 1.35938 23.0128C1.35938 24.5786 1.776 26.0688 2.52684 27.408C4.76562 25.5194 9.99861 24.1963 16.0854 24.1963Z" fill="#72D0F5"/>
<path d="M16.0844 24.2346C22.1804 24.2346 27.4042 25.5509 29.6338 27.4234C30.387 26.0911 30.8013 24.6123 30.8013 23.0626C30.8013 16.8796 24.2108 11.1934 16.0844 11.1934C7.97851 11.1934 1.37891 16.8796 1.37891 23.0603C1.37891 24.6146 1.79553 26.0934 2.54408 27.4234C4.77829 25.5509 10.0044 24.2346 16.0844 24.2346Z" fill="#79D2F6"/>
<path d="M16.0872 24.273C22.174 24.273 27.391 25.5801 29.6183 27.4389C30.3692 26.118 30.7835 24.6484 30.7835 23.1078C30.7835 16.9683 24.2022 11.3164 16.0872 11.3164C7.9905 11.3164 1.40234 16.9683 1.40234 23.1055C1.40234 24.6484 1.81668 26.1203 2.56523 27.4389C4.79715 25.5801 10.0164 24.273 16.0872 24.273Z" fill="#80D3F6"/>
<path d="M16.0884 24.3107C22.1684 24.3107 27.3785 25.6109 29.6013 27.4559C30.3521 26.1443 30.7641 24.6861 30.7641 23.1569C30.7641 17.0586 24.192 11.4434 16.0884 11.4434C8.00317 11.4434 1.42188 17.0586 1.42188 23.1546C1.42188 24.6861 1.8385 26.1466 2.58476 27.4582C4.81439 25.6109 10.0268 24.3129 16.0884 24.3107Z" fill="#87D5F6"/>
<path d="M16.0874 24.349C22.1582 24.349 27.3614 25.6401 29.5819 27.4737C30.3304 26.1689 30.7448 24.7221 30.7448 23.2044C30.7448 17.1473 24.1795 11.5664 16.0874 11.5664C8.01354 11.5664 1.44141 17.1473 1.44141 23.1999C1.44141 24.7221 1.85574 26.1712 2.602 27.4737C4.82705 25.6401 10.0326 24.3513 16.0874 24.349Z" fill="#8DD7F7"/>
<path d="M16.0863 24.3874C22.1479 24.3874 27.3443 25.6693 29.5625 27.4892C30.3087 26.1935 30.7231 24.7582 30.7231 23.2497C30.7231 17.2361 24.167 11.6895 16.0863 11.6895C8.02163 11.6895 1.46094 17.2361 1.46094 23.2474C1.46094 24.7582 1.87528 26.1958 2.61925 27.4914C4.84201 25.6693 10.0407 24.3896 16.0863 24.3874Z" fill="#94D9F7"/>
<path d="M16.0852 24.4277C22.14 24.4277 27.3295 25.7004 29.5408 27.5066C30.2894 26.2223 30.7014 24.7962 30.7014 23.2991C30.7014 17.3267 24.1544 11.8145 16.0852 11.8145C8.032 11.8145 1.48047 17.3267 1.48047 23.2945C1.48047 24.7962 1.89251 26.2223 2.63648 27.5089C4.85467 25.7004 10.0487 24.4299 16.0852 24.4277Z" fill="#9ADBF8"/>
<path d="M16.0841 24.4657C22.1298 24.4657 27.3124 25.7293 29.5214 27.524C30.2677 26.2466 30.6797 24.8296 30.6797 23.344C30.6797 17.4151 24.1419 11.9395 16.0841 11.9395C8.04238 11.9395 1.5 17.4151 1.5 23.3417C1.5 24.8319 1.91204 26.2489 2.65373 27.524C4.86962 25.7293 10.0545 24.468 16.0841 24.4657Z" fill="#A0DDF8"/>
<path d="M16.087 24.504C22.1235 24.504 27.2992 25.7585 29.506 27.5394C30.2499 26.2712 30.662 24.8657 30.662 23.3915C30.662 17.5038 24.1333 12.0625 16.087 12.0625C8.05666 12.0625 1.52344 17.5038 1.52344 23.3869C1.52344 24.868 1.93548 26.2735 2.67488 27.5417C4.88848 25.7585 10.0665 24.5063 16.087 24.504Z" fill="#A6DFF8"/>
<path d="M16.0882 24.5443C22.1178 24.5443 27.2844 25.7896 29.4889 27.5568C30.2305 26.2978 30.6426 24.9037 30.6426 23.4387C30.6426 17.5945 24.1231 12.1875 16.0882 12.1875C8.06703 12.1875 1.54297 17.5945 1.54297 23.4364C1.54297 24.906 1.95501 26.3001 2.69441 27.5591C4.90343 25.7896 10.0746 24.5466 16.0882 24.5443Z" fill="#ACE1F9"/>
<path d="M16.0871 24.5827C22.1076 24.5827 27.2696 25.8188 29.4695 27.5746C30.2112 26.3247 30.6232 24.9398 30.6232 23.4862C30.6232 17.6855 24.1129 12.3105 16.0871 12.3105C8.07741 12.3105 1.5625 17.6855 1.5625 23.4839C1.5625 24.9421 1.97455 26.3247 2.71394 27.5746C4.91839 25.8188 10.0827 24.585 16.0871 24.5827Z" fill="#B2E2F9"/>
<path d="M16.0861 24.6207C22.0974 24.6207 27.2525 25.8477 29.4501 27.5897C30.1895 26.349 30.6015 24.9755 30.6015 23.531C30.6015 17.7738 24.1004 12.4355 16.0861 12.4355C8.08778 12.4355 1.58203 17.7738 1.58203 23.5288C1.58203 24.9778 1.99179 26.349 2.73118 27.592C4.93105 25.8477 10.0908 24.623 16.0861 24.6207Z" fill="#B8E4F9"/>
<path d="M16.085 24.661C22.0894 24.661 27.2354 25.8788 29.4307 27.6071C30.1678 26.3756 30.5798 25.0135 30.5798 23.5805C30.5798 17.8645 24.0878 12.5605 16.085 12.5605C8.09586 12.5605 1.60156 17.8645 1.60156 23.5782C1.60156 25.0158 2.01132 26.3778 2.74842 27.6094C4.946 25.8788 10.0966 24.6633 16.085 24.661Z" fill="#BEE6FA"/>
<path d="M16.0878 24.6993C22.0831 24.6993 27.2245 25.908 29.4129 27.6249C30.15 26.4002 30.5621 25.0496 30.5621 23.628C30.5621 17.9532 24.0792 12.6836 16.0878 12.6836C8.11015 12.6836 1.625 17.9532 1.625 23.6234C1.625 25.0519 2.03247 26.4025 2.76957 27.6272C4.96486 25.908 10.1086 24.7016 16.0878 24.6993Z" fill="#C3E8FA"/>
<path d="M16.0867 24.7377C22.0729 24.7377 27.2074 25.9372 29.3936 27.6403C30.1307 26.4271 30.5404 25.0856 30.5404 23.6732C30.5404 18.0419 24.0667 12.8066 16.0867 12.8066C8.12052 12.8066 1.64453 18.0419 1.64453 23.6709C1.64453 25.0879 2.052 26.4271 2.78682 27.6426C4.97753 25.9372 10.1144 24.74 16.0867 24.7377Z" fill="#C9EAFB"/>
<path d="M16.0841 24.7776C22.0633 24.7776 27.1887 25.968 29.3725 27.6574C30.1074 26.4533 30.5171 25.121 30.5171 23.7223C30.5171 18.1322 24.0526 12.9336 16.0841 12.9336C8.12928 12.9336 1.66016 18.1322 1.66016 23.7178C1.66016 25.1233 2.06991 26.4533 2.80244 27.6597C4.99086 25.968 10.1208 24.7799 16.0841 24.7776Z" fill="#CEECFB"/>
<path d="M16.0869 24.816C22.057 24.816 27.1778 25.9972 29.3571 27.6751C30.0896 26.4779 30.4994 25.1571 30.4994 23.7676C30.4994 18.221 24.044 13.0566 16.0869 13.0566C8.14127 13.0566 1.68359 18.221 1.68359 23.7653C1.68359 25.1594 2.09106 26.4779 2.82359 27.6774C5.00744 25.9972 10.1328 24.8183 16.0869 24.816Z" fill="#D4EEFB"/>
<path d="M16.0858 24.8543C22.0468 24.8543 27.1607 26.0287 29.3377 27.6906C30.0679 26.5025 30.48 25.1931 30.48 23.8151C30.48 18.3097 24.0314 13.1797 16.0858 13.1797C8.15164 13.1797 1.70312 18.3097 1.70312 23.8105C1.70312 25.1954 2.11059 26.5048 2.84083 27.6929C5.02238 26.0287 10.1386 24.8566 16.0858 24.8543Z" fill="#D9F1FC"/>
<path d="M16.0848 24.8943C22.0388 24.8943 27.1436 26.0595 29.3183 27.7077C30.0485 26.5311 30.4583 25.2308 30.4583 23.8619C30.4583 18.4 24.0189 13.3066 16.0848 13.3066C8.16202 13.3066 1.72266 18.4 1.72266 23.8596C1.72266 25.2331 2.12783 26.5311 2.85807 27.71C5.03734 26.0595 10.1467 24.8966 16.0848 24.8943Z" fill="#DFF3FC"/>
<path d="M16.0876 24.9327C22.0325 24.9327 27.1327 26.0887 29.3028 27.7254C30.0308 26.5557 30.4405 25.2669 30.4405 23.9094C30.4405 18.4887 24.0103 13.4297 16.0876 13.4297C8.17401 13.4297 1.74609 18.4887 1.74609 23.9048C1.74609 25.2692 2.15127 26.5557 2.87922 27.7277C5.05391 26.0887 10.1587 24.9349 16.0876 24.9327Z" fill="#E5F5FC"/>
<path d="M16.0849 24.9687C22.0207 24.9687 27.114 26.1179 29.2795 27.7409C30.0075 26.5803 30.4172 25.3029 30.4172 23.9569C30.4172 18.5774 23.9962 13.5527 16.0849 13.5527C8.18277 13.5527 1.76172 18.5774 1.76172 23.9523C1.76172 25.3052 2.1669 26.5803 2.89485 27.7432C5.06724 26.1179 10.1629 24.9733 16.0849 24.9687Z" fill="#EBF7FD"/>
<path d="M16.0877 25.009C22.0166 25.009 27.1008 26.149 29.2641 27.7583C29.992 26.6068 30.3995 25.3409 30.3995 24.0041C30.3995 18.6681 23.9876 13.6777 16.0877 13.6777C8.19705 13.6777 1.78516 18.6681 1.78516 24.0018C1.78516 25.3432 2.19034 26.6068 2.91599 27.7606C5.08382 26.149 10.1749 25.0136 16.0877 25.009Z" fill="#F2F9FD"/>
<path d="M16.0867 25.047C22.0064 25.047 27.086 26.1779 29.2447 27.7757C29.9703 26.6334 30.3778 25.3767 30.3778 24.0512C30.3778 18.7587 23.9751 13.8027 16.0867 13.8027C8.20743 13.8027 1.80469 18.7587 1.80469 24.0467C1.80469 25.379 2.20987 26.6334 2.93324 27.778C5.09877 26.1779 10.1807 25.0516 16.0867 25.047Z" fill="#F8FCFE"/>
<path d="M16.0856 25.0854C21.9962 25.0854 27.0689 26.2071 29.2253 27.7911C29.9487 26.658 30.3584 25.4104 30.3584 24.0965C30.3584 18.8474 23.9625 13.9258 16.0856 13.9258C8.21551 13.9258 1.82422 18.8474 1.82422 24.0942C1.82422 25.415 2.22711 26.658 2.95048 27.7934C5.11143 26.2071 10.1888 25.09 16.0856 25.0854Z" fill="#FEFEFE"/>
</g>
<path d="M16.0131 19.8496C10.8419 19.8496 6.04387 20.7309 2.08594 22.2166C4.46436 27.5389 9.79807 31.245 16.0154 31.245C22.2213 31.245 27.5481 27.5366 29.9357 22.2166C25.9777 20.7309 21.1728 19.8496 16.0131 19.8496Z" fill="#0083C9"/>
<path d="M187.326 15.8216C192.837 12.929 195.848 9.26757 196.361 4.83719C196.361 4.45274 196.251 4.13236 196.031 3.87606L195.729 3.62891H199.766C199.894 3.62891 200.004 3.65637 200.096 3.71129C200.407 3.85775 200.562 4.16897 200.562 4.64497C200.562 5.41387 200.462 6.16448 200.26 6.89677C200.059 7.61076 199.775 8.29728 199.409 8.95635C200.672 9.94495 202.109 10.8878 203.721 11.7848C205.35 12.6819 207.126 13.5515 209.048 14.3936L206.961 17.332C203.171 15.3365 200.26 13.1304 198.228 10.7139C197.606 11.5011 196.892 12.2425 196.086 12.9382C195.299 13.6156 194.466 14.238 193.587 14.8055C192.727 15.3731 191.848 15.8857 190.951 16.3434C190.072 16.8011 189.23 17.1947 188.425 17.5242L187.326 15.8216ZM210.476 23.8952V26.0646H185.926V23.8952H210.476Z" fill="white"/>
<path d="M183.51 28.8376H179.721V5.41333C179.721 5.04718 179.702 4.69019 179.666 4.34235C179.648 3.9762 179.556 3.62836 179.391 3.29883H182.247C183.089 3.29883 183.51 3.59175 183.51 4.17758V28.8376ZM171.702 5.33095C171.702 5.09295 171.684 4.86411 171.647 4.64442C171.611 4.40642 171.51 4.2142 171.345 4.06774H174.64C175.208 4.06774 175.492 4.37896 175.492 5.00141V20.5444H164.617C164.324 20.5444 164.031 20.5169 163.738 20.462C163.464 20.4071 163.208 20.3247 162.97 20.2148C162.75 20.0867 162.567 19.9219 162.42 19.7205C162.292 19.5008 162.228 19.2354 162.228 18.9242V5.33095C162.228 5.09295 162.21 4.86411 162.173 4.64442C162.137 4.40642 162.036 4.2142 161.871 4.06774H165.166C165.734 4.06774 166.018 4.37896 166.018 5.00141V9.75217H171.702V5.33095ZM166.018 11.8941V17.5511C166.018 17.8257 166.063 18.0363 166.155 18.1827C166.265 18.3109 166.521 18.3749 166.924 18.3749H171.702V11.8941H166.018Z" fill="white"/>
<path d="M158.521 28.8376H154.732V12.4434H149.706V10.2739H154.732V5.44079C154.732 5.31264 154.732 5.14787 154.732 4.94649C154.732 4.74511 154.723 4.54373 154.704 4.34235C154.686 4.14097 154.649 3.94874 154.594 3.76567C154.558 3.56428 154.503 3.40867 154.43 3.29883H157.258C158.1 3.29883 158.521 3.6009 158.521 4.20504V28.8376ZM135.234 19.7205C137.523 17.7433 139.198 15.5556 140.26 13.1573C141.322 10.7408 141.871 8.10451 141.907 5.24856C141.907 4.79088 141.779 4.40642 141.523 4.0952L141.331 3.93043H144.928C145.148 3.94874 145.303 3.9762 145.395 4.01281C145.724 4.17758 145.889 4.4705 145.889 4.89157C145.889 6.09985 145.77 7.26237 145.532 8.37912C145.294 9.49587 144.946 10.576 144.489 11.6195C144.855 12.0589 145.303 12.544 145.834 13.075C146.384 13.5876 146.988 14.1185 147.647 14.6677C148.306 15.1986 149.011 15.7387 149.761 16.2879C150.512 16.8188 151.272 17.3223 152.041 17.7983L149.899 20.764C149.331 20.2881 148.745 19.7755 148.141 19.2262C147.555 18.6587 146.969 18.0729 146.384 17.4687C145.816 16.8646 145.276 16.2421 144.763 15.6014C144.269 14.9606 143.83 14.3199 143.445 13.6791C142.566 15.162 141.55 16.5259 140.397 17.7708C139.262 19.0157 137.953 20.1324 136.47 21.121L135.234 19.7205Z" fill="white"/>
<path d="M132.6 17.6342H116.7C116.389 17.6342 116.078 17.5976 115.767 17.5243C115.455 17.4511 115.172 17.3413 114.915 17.1948C114.659 17.03 114.448 16.8287 114.284 16.5907C114.119 16.3344 114.037 16.0231 114.037 15.657V6.29278C114.037 5.98156 114 5.67033 113.927 5.3591C113.854 5.04788 113.725 4.76412 113.542 4.50781H132.435V6.64977H117.771V14.6959C117.771 15.2451 118.082 15.5197 118.705 15.5197H132.6V17.6342ZM135.511 23.8953V26.0647H110.961V23.8953H135.511Z" fill="white"/>
<path d="M101.348 9.28533H104.754V5.41333C104.754 5.30348 104.744 5.14787 104.726 4.94649C104.726 4.74511 104.717 4.54373 104.699 4.34235C104.68 4.12266 104.653 3.92128 104.616 3.7382C104.58 3.53682 104.525 3.39036 104.451 3.29883H107.28C108.122 3.29883 108.543 3.59175 108.543 4.17758V21.3407H104.754V16.892C104.296 17.1117 103.783 17.2399 103.216 17.2765C102.666 17.2948 102.062 17.304 101.403 17.304H86.5469V15.1895H88.6065V6.2097H86.5469V4.06774H101.733V6.2097H99.6732V15.1895H101.705C103.152 15.2444 104.168 15.0155 104.754 14.5029V11.4273H101.348V9.28533ZM92.3961 15.1895H95.9111V6.2097H92.3961V15.1895ZM92.1215 21.4231C92.1215 21.1851 92.1032 20.9563 92.0665 20.7366C92.0299 20.4986 91.9201 20.2972 91.737 20.1324H95.1696C95.4625 20.1324 95.6548 20.2057 95.7463 20.3521C95.8378 20.4803 95.8836 20.6725 95.8836 20.9288V25.8718C95.8836 26.1464 95.9385 26.3569 96.0484 26.5034C96.1765 26.6499 96.4328 26.7231 96.8173 26.7231H108.653V28.8376H94.4831C94.2268 28.8376 93.9522 28.8101 93.6593 28.7552C93.3847 28.7186 93.1284 28.6362 92.8904 28.5081C92.6707 28.3982 92.4876 28.2426 92.3411 28.0412C92.1947 27.8398 92.1215 27.5744 92.1215 27.2449V21.4231Z" fill="white"/>
<path d="M83.2553 28.8376H79.4932V20.8464C79.2918 21.0295 79.0172 21.1668 78.6693 21.2583C78.3398 21.3499 77.9828 21.4231 77.5984 21.478C77.2322 21.5147 76.8661 21.5421 76.4999 21.5604C76.1521 21.5604 75.8683 21.5604 75.6486 21.5604H65.5155C65.2409 21.5604 64.9663 21.533 64.6917 21.478C64.4171 21.4231 64.1608 21.3407 63.9228 21.2309C63.7031 21.1027 63.52 20.938 63.3736 20.7366C63.2271 20.5169 63.1539 20.2514 63.1539 19.9402V12.9651C63.1539 12.6722 63.1264 12.4159 63.0715 12.1962C63.0166 11.9582 62.925 11.7111 62.7969 11.4548H71.7492V6.2097H62.9891V4.06774H74.4403C74.8614 4.06774 75.1452 4.14097 75.2916 4.28743C75.4564 4.43388 75.5388 4.65357 75.5388 4.94649V12.718C75.5388 13.0292 75.4656 13.258 75.3191 13.4045C75.1726 13.5326 74.8889 13.5967 74.4678 13.5967H66.916V18.5672C66.916 18.8601 66.9709 19.0798 67.0808 19.2262C67.1906 19.3544 67.4469 19.4185 67.8497 19.4185H76.4725C76.7654 19.4185 77.0857 19.4002 77.4336 19.3635C77.7997 19.3086 78.1293 19.2171 78.4222 19.0889C78.7334 18.9425 78.9897 18.7502 79.1911 18.5122C79.3925 18.2559 79.4932 17.9356 79.4932 17.5511V5.44079C79.4932 5.31264 79.4932 5.14787 79.4932 4.94649C79.4932 4.74511 79.484 4.54373 79.4657 4.34235C79.4474 4.12266 79.4108 3.92128 79.3559 3.7382C79.3192 3.55513 79.2552 3.40867 79.1636 3.29883H82.0196C82.8434 3.29883 83.2553 3.61005 83.2553 4.2325V28.8376Z" fill="white"/>
<path d="M39.4562 9.45002C39.4562 8.53466 39.685 7.67421 40.1427 6.86869C40.6004 6.06316 41.2228 5.36748 42.0101 4.78165C42.8156 4.1775 43.7493 3.71067 44.8111 3.38113C45.8912 3.03329 47.0446 2.85938 48.2712 2.85938C49.4978 2.85938 50.6511 3.03329 51.7312 3.38113C52.8114 3.72897 53.7451 4.20497 54.5323 4.80911C55.3195 5.39494 55.9419 6.09062 56.3996 6.89615C56.8573 7.70167 57.0861 8.55296 57.0861 9.45002C57.0861 10.3654 56.8573 11.2258 56.3996 12.0314C55.9419 12.8186 55.3195 13.5051 54.5323 14.0909C53.7451 14.6768 52.8114 15.1436 51.7312 15.4915C50.6511 15.8393 49.4978 16.0132 48.2712 16.0132C47.0446 16.0132 45.8912 15.8484 44.8111 15.5189C43.7493 15.1711 42.8156 14.7042 42.0101 14.1184C41.2228 13.5143 40.6004 12.8186 40.1427 12.0314C39.685 11.2258 39.4562 10.3654 39.4562 9.45002ZM43.2183 9.45002C43.2183 10.0908 43.3373 10.6858 43.5753 11.235C43.8316 11.7659 44.1795 12.2327 44.6188 12.6355C45.0765 13.0383 45.6074 13.3495 46.2116 13.5692C46.834 13.7889 47.5206 13.8987 48.2712 13.8987C48.9851 13.8987 49.6442 13.7889 50.2484 13.5692C50.8708 13.3312 51.4017 13.02 51.8411 12.6355C52.2988 12.2327 52.6466 11.7659 52.8846 11.235C53.1409 10.6858 53.2691 10.0908 53.2691 9.45002C53.2691 8.80927 53.1409 8.21428 52.8846 7.66506C52.6466 7.11584 52.2988 6.649 51.8411 6.26454C51.4017 5.86178 50.8708 5.55056 50.2484 5.33087C49.6442 5.09287 48.9851 4.97388 48.2712 4.97388C47.5572 4.97388 46.889 5.09287 46.2665 5.33087C45.6441 5.55056 45.104 5.86178 44.6463 6.26454C44.2069 6.649 43.8591 7.11584 43.6028 7.66506C43.3465 8.21428 43.2183 8.80927 43.2183 9.45002ZM35.9961 18.4298H60.5462V20.5717H50.166V29.1396H46.4038V20.5717H35.9961V18.4298Z" fill="white"/>
</svg>
