<svg width="15" height="9" viewBox="0 0 15 9" fill="none" xmlns="http://www.w3.org/2000/svg">
<path d="M6.65617 8.07039C7.0467 8.46091 7.67986 8.46091 8.07039 8.07039L14.4343 1.70643C14.8249 1.3159 14.8249 0.682738 14.4343 0.292214C14.0438 -0.0983107 13.4107 -0.0983107 13.0201 0.292214L7.36328 5.94907L1.70643 0.292213C1.3159 -0.0983112 0.682738 -0.0983112 0.292214 0.292213C-0.0983107 0.682738 -0.0983107 1.3159 0.292214 1.70643L6.65617 8.07039ZM7.36328 6.36328L6.36328 6.36328L6.36328 6.61328L7.36328 6.61328L8.36328 6.61328L8.36328 6.36328L7.36328 6.36328ZM7.36328 7.11328L6.36328 7.11328L6.36328 7.36328L7.36328 7.36328L8.36328 7.36328L8.36328 7.11328L7.36328 7.11328ZM6.65617 8.07039C7.0467 8.46091 7.67986 8.46091 8.07039 8.07039L14.4343 1.70643C14.8249 1.3159 14.8249 0.682738 14.4343 0.292214C14.0438 -0.0983107 13.4107 -0.0983107 13.0201 0.292214L7.36328 5.94907L1.70643 0.292213C1.3159 -0.0983112 0.682738 -0.0983112 0.292214 0.292213C-0.0983107 0.682738 -0.0983107 1.3159 0.292214 1.70643L6.65617 8.07039ZM7.36328 6.36328L6.36328 6.36328L6.36328 6.61328L7.36328 6.61328L8.36328 6.61328L8.36328 6.36328L7.36328 6.36328ZM7.36328 7.11328L6.36328 7.11328L6.36328 7.36328L7.36328 7.36328L8.36328 7.36328L8.36328 7.11328L7.36328 7.11328Z" fill="#555555"/>
</svg>
