<svg width="228" height="280" viewBox="0 0 228 280" fill="none" xmlns="http://www.w3.org/2000/svg">
<path d="M177.44 101.267C165.011 121.982 134.989 121.982 122.56 101.267L29.0783 -54.5361C16.2811 -75.8649 31.6447 -103 56.5181 -103L150 -103L243.482 -103C268.355 -103 283.719 -75.8649 270.922 -54.5361L177.44 101.267Z" fill="url(#paint0_linear_33743_19416)"/>
<path d="M251.44 118.733C239.011 98.0181 208.989 98.0181 196.56 118.733L103.078 274.536C90.2811 295.865 105.645 323 130.518 323L224 323L317.482 323C342.355 323 357.719 295.865 344.922 274.536L251.44 118.733Z" fill="url(#paint1_linear_33743_19416)"/>
<defs>
<linearGradient id="paint0_linear_33743_19416" x1="0" y1="22" x2="300" y2="22" gradientUnits="userSpaceOnUse">
<stop stop-color="#E2F0F6"/>
<stop offset="1" stop-color="#B5E9FF"/>
</linearGradient>
<linearGradient id="paint1_linear_33743_19416" x1="74" y1="198" x2="374" y2="198" gradientUnits="userSpaceOnUse">
<stop stop-color="#E2F0F6"/>
<stop offset="1" stop-color="#B5E9FF"/>
</linearGradient>
</defs>
</svg>
