<svg width="720" height="110" viewBox="0 0 720 110" fill="none" xmlns="http://www.w3.org/2000/svg">
<path d="M109.78 54.8899C109.78 85.2133 85.1896 109.788 54.9212 109.788C24.5822 109.788 0 85.2133 0 54.8899C0 24.6058 24.5822 0 54.9212 0C85.1896 0 109.78 24.6058 109.78 54.8899Z" fill="#FEFEFE"/>
<path d="M54.9504 107.198C83.7972 107.198 107.201 83.7937 107.201 54.9076C107.201 26.0214 83.7972 2.60938 54.9425 2.60938C26.0486 2.60938 2.66016 26.0214 2.66016 54.9076C2.66016 83.8094 26.0486 107.198 54.9504 107.198Z" fill="#0083C9"/>
<mask id="mask0_847_16527" style="mask-type:luminance" maskUnits="userSpaceOnUse" x="2" y="2" width="106" height="106">
<path d="M54.9543 107.198C83.8011 107.198 107.205 83.7935 107.205 54.9231C107.205 26.0448 83.8011 2.64844 54.9464 2.64844C26.0525 2.64844 2.66406 26.0448 2.66406 54.9231C2.66406 83.8092 26.0525 107.198 54.9543 107.198Z" fill="white"/>
</mask>
<g mask="url(#mask0_847_16527)">
<path d="M55.4202 80.1333C78.4239 80.1333 98.0975 86.5576 106.564 95.6444C109.352 89.1729 110.915 81.9789 110.915 74.4942C110.915 44.4772 86.0577 20.1934 55.4202 20.1934C24.822 20.1934 -0.0507812 44.485 -0.0507812 74.5178C-0.0507812 82.0024 1.51212 89.1651 4.30805 95.6444C12.7587 86.5576 32.4559 80.1333 55.4202 80.1333Z" fill="#0083C9"/>
<path d="M55.4117 80.1858C78.3525 80.1858 97.979 86.563 106.422 95.5713C109.21 89.1626 110.765 82.0236 110.765 74.5939C110.765 44.8203 85.9706 20.6543 55.4117 20.6543C24.892 20.6543 0.0820312 44.8282 0.0820312 74.6175C0.0820312 82.0393 1.64493 89.1469 4.43301 95.5713C12.8601 86.563 32.5023 80.1858 55.4117 80.1858Z" fill="#0085CB"/>
<path d="M55.3992 80.2482C78.285 80.2482 97.8566 86.5626 106.276 95.508C109.064 89.1465 110.611 82.0624 110.611 74.6955C110.611 45.1575 85.8796 21.1172 55.3992 21.1172C24.9581 21.1172 0.210938 45.1733 0.210938 74.7191C0.210938 82.0859 1.77384 89.1386 4.55407 95.508C12.9576 86.5626 32.5527 80.2482 55.3992 80.2482Z" fill="#0086CC"/>
<path d="M55.3946 80.3007C78.2254 80.3007 97.742 86.568 106.145 95.4349C108.918 89.1283 110.465 82.1071 110.465 74.7952C110.465 45.5007 85.7964 21.5781 55.3946 21.5781C25.032 21.5781 0.347656 45.5164 0.347656 74.8188C0.347656 82.1228 1.90269 89.1205 4.68292 95.4349C13.0629 86.568 32.6108 80.3007 55.3946 80.3007Z" fill="#0088CD"/>
<path d="M55.3821 80.3669C78.1501 80.3669 97.6274 86.5793 105.999 95.3755C108.772 89.116 110.311 82.1497 110.311 74.9007C110.311 45.8497 85.7054 22.0449 55.3821 22.0449C25.1059 22.0449 0.476562 45.8575 0.476562 74.9164C0.476562 82.1733 2.0316 89.1082 4.79612 95.3755C13.1604 86.5793 32.6534 80.3669 55.3821 80.3669Z" fill="#008ACE"/>
<path d="M55.3775 80.4214C78.0905 80.4214 97.5128 86.5866 105.861 95.3043C108.626 89.0998 110.165 82.1964 110.165 75.0023C110.165 46.1948 85.6222 22.5078 55.3775 22.5078C25.1798 22.5078 0.613281 46.2026 0.613281 75.018C0.613281 82.2121 2.16832 89.092 4.92498 95.3043C13.2657 86.5866 32.7115 80.4214 55.3775 80.4214Z" fill="#008BCF"/>
<path d="M55.3728 80.4877C78.023 80.4877 97.3982 86.5901 105.731 95.2449C108.488 89.0876 110.019 82.2391 110.019 75.1079C110.019 46.5437 85.5469 22.9746 55.3728 22.9746C25.2537 22.9746 0.75 46.5516 0.75 75.1236C0.75 82.2627 2.29718 89.0876 5.05385 95.2449C13.371 86.5901 32.7697 80.4877 55.3728 80.4877Z" fill="#008DD1"/>
<path d="M55.3603 80.5383C77.9556 80.5383 97.2758 86.5935 105.585 95.1698C108.342 89.0675 109.865 82.2818 109.865 75.2056C109.865 46.8849 85.4559 23.4336 55.3603 23.4336C25.3198 23.4336 0.878906 46.8928 0.878906 75.2213C0.878906 82.2975 2.4261 89.0675 5.17491 95.1698C13.4685 86.5935 32.8122 80.5383 55.3603 80.5383Z" fill="#008FD2"/>
<path d="M55.3556 80.6006C77.888 80.6006 97.1611 86.6009 105.447 95.1065C108.196 89.0591 109.727 82.3206 109.727 75.3072C109.727 47.23 85.3727 23.8965 55.3556 23.8965C25.3936 23.8965 1.02344 47.2378 1.02344 75.3229C1.02344 82.3363 2.55492 89.0513 5.30373 95.1065C13.5737 86.6009 32.8704 80.6006 55.3556 80.6006Z" fill="#0091D3"/>
<path d="M55.3471 80.6571C77.8245 80.6571 97.0505 86.6102 105.313 95.0373C108.054 89.0449 109.577 82.3692 109.577 75.4186C109.577 47.5692 85.2856 24.3613 55.3471 24.3613C25.4636 24.3613 1.15625 47.577 1.15625 75.4265C1.15625 82.3849 2.68772 89.037 5.42868 95.0373C13.6751 86.6102 32.9247 80.6571 55.3471 80.6571Z" fill="#0092D4"/>
<path d="M55.3385 80.7194C77.7531 80.7194 96.932 86.6098 105.171 94.974C107.912 89.0287 109.427 82.408 109.427 75.5202C109.427 47.9143 85.1985 24.8242 55.3385 24.8242C25.5336 24.8242 1.28906 47.9221 1.28906 75.5281C1.28906 82.4237 2.82054 89.0287 5.55364 94.974C13.7765 86.6098 32.9789 80.7194 55.3385 80.7194Z" fill="#0094D6"/>
<path d="M55.3378 80.7778C77.6896 80.7778 96.8135 86.621 105.028 94.9068C107.762 89.0164 109.277 82.4585 109.277 75.6258C109.277 48.2633 85.1192 25.291 55.3378 25.291C25.6114 25.291 1.42188 48.2711 1.42188 75.6336C1.42188 82.4742 2.9455 89.0164 5.67075 94.9068C13.8779 86.621 33.0253 80.7778 55.3378 80.7778Z" fill="#0096D7"/>
<path d="M55.3332 80.8284C77.6221 80.8284 96.6989 86.6244 104.898 94.8395C107.623 88.9963 109.131 82.4934 109.131 75.7234C109.131 48.6044 85.0361 25.7578 55.3332 25.7578C25.6853 25.7578 1.55859 48.6123 1.55859 75.7313C1.55859 82.5091 3.08222 88.9963 5.79961 94.8395C13.9832 86.6244 33.0835 80.8284 55.3332 80.8284Z" fill="#0098D8"/>
<path d="M55.3246 80.8927C77.5586 80.8927 96.5882 86.6338 104.756 94.7703C107.474 88.982 108.981 82.542 108.981 75.827C108.981 48.9514 84.949 26.2227 55.3246 26.2227C25.7553 26.2227 1.69141 48.9593 1.69141 75.8349C1.69141 82.5577 3.20718 88.982 5.92457 94.7703C14.0925 86.6338 33.1378 80.8927 55.3246 80.8927Z" fill="#009AD9"/>
<path d="M55.3122 80.9491C77.4911 80.9491 96.4658 86.6353 104.61 94.7089C107.328 88.9757 108.828 82.5827 108.828 75.9306C108.828 49.2985 84.858 26.6875 55.3122 26.6875C25.8214 26.6875 1.82031 49.2985 1.82031 75.9384C1.82031 82.5984 3.33609 88.9678 6.04563 94.7089C14.19 86.6353 33.1803 80.9491 55.3122 80.9491Z" fill="#009CDB"/>
<path d="M55.3036 81.0115C77.4198 81.0115 96.3473 86.6426 104.468 94.6378C107.185 88.9595 108.678 82.6294 108.678 76.0322C108.678 49.6357 84.7709 27.1504 55.3036 27.1504C25.8913 27.1504 1.95312 49.6436 1.95312 76.04C1.95312 82.6372 3.46891 88.9595 6.17059 94.6378C14.2914 86.6426 33.2346 81.0115 55.3036 81.0115Z" fill="#009EDC"/>
<path d="M55.295 81.066C77.3562 81.066 96.2288 86.65 104.334 94.5745C107.036 88.9433 108.528 82.676 108.528 76.1338C108.528 49.9808 84.6916 27.6133 55.295 27.6133C25.9613 27.6133 2.09375 49.9887 2.09375 76.1417C2.09375 82.6839 3.59381 88.9433 6.2955 94.5745C14.3927 86.65 33.2888 81.066 55.295 81.066Z" fill="#00A0DD"/>
<path d="M55.2943 81.1244C77.2926 81.1244 96.1259 86.6535 104.2 94.4994C106.901 88.9232 108.386 82.7109 108.386 76.2315C108.386 50.3219 84.6123 28.0723 55.2943 28.0723C26.0391 28.0723 2.23438 50.3298 2.23438 76.2394C2.23438 82.7187 3.73444 88.9232 6.42827 94.4994C14.5019 86.6535 33.3431 81.1244 55.2943 81.1244Z" fill="#00A2DE"/>
<path d="M55.2857 81.1848C77.2291 81.1848 96.0074 86.6588 104.057 94.4419C106.759 88.9129 108.236 82.7634 108.236 76.339C108.236 50.6729 84.5252 28.541 55.2857 28.541C26.1091 28.541 2.36719 50.6808 2.36719 76.339C2.36719 82.7712 3.8594 88.9129 6.54539 94.4419C14.6033 86.6588 33.3973 81.1848 55.2857 81.1848Z" fill="#00A4E0"/>
<path d="M55.2772 81.2471C77.1577 81.2471 95.8889 86.6662 103.923 94.3707C106.609 88.8967 108.094 82.8022 108.094 76.4406C108.094 51.018 84.4381 29.0039 55.2772 29.0039C26.1869 29.0039 2.5 51.018 2.5 76.4406C2.5 82.81 3.99221 88.9045 6.67034 94.3707C14.7047 86.6662 33.4516 81.2471 55.2772 81.2471Z" fill="#00A6E1"/>
<path d="M55.2647 81.3036C77.0903 81.3036 95.7665 86.6755 103.777 94.3094C106.463 88.8824 107.94 82.8507 107.94 76.5442C107.94 51.365 84.3471 29.4688 55.2647 29.4688C26.253 29.4688 2.62891 51.365 2.62891 76.5442C2.62891 82.8586 4.12112 88.8903 6.79139 94.3094C14.8022 86.6755 33.4941 81.3036 55.2647 81.3036Z" fill="#02A8E3"/>
<path d="M55.2601 81.3659C77.0228 81.3659 95.6598 86.6829 103.639 94.2382C106.325 88.8741 107.794 82.8895 107.794 76.6458C107.794 51.7101 84.2718 29.9316 55.2601 29.9316C26.3269 29.9316 2.76562 51.7101 2.76562 76.6458C2.76562 82.8974 4.24999 88.8741 6.92026 94.2382C14.9075 86.6829 33.5523 81.3659 55.2601 81.3659Z" fill="#07ABE4"/>
<path d="M55.2593 81.4165C76.9592 81.4165 95.5412 86.6785 103.505 94.1632C106.175 88.854 107.644 82.9323 107.644 76.7435C107.644 52.0435 84.1847 30.3906 55.2593 30.3906C26.3968 30.3906 2.89844 52.0513 2.89844 76.7435C2.89844 82.9323 4.38279 88.854 7.04521 94.1632C15.0089 86.6785 33.6066 81.4165 55.2593 81.4165Z" fill="#0BADE5"/>
<path d="M55.2508 81.473C76.8957 81.473 95.4227 86.6878 103.363 94.1018C106.033 88.8398 107.494 82.973 107.494 76.8471C107.494 52.3905 84.0976 30.8555 55.2508 30.8555C26.4668 30.8555 3.03125 52.3983 3.03125 76.8471C3.03125 82.9809 4.50775 88.8476 7.17017 94.1018C15.1103 86.6878 33.653 81.473 55.2508 81.473Z" fill="#0FAFE7"/>
<path d="M55.2423 81.5373C76.8243 81.5373 95.3042 86.6972 103.221 94.0326C105.883 88.8255 107.344 83.0216 107.344 76.9507C107.344 52.7375 84.0105 31.3203 55.2423 31.3203C26.5368 31.3203 3.16406 52.7375 3.16406 76.9507C3.16406 83.0216 4.64056 88.8334 7.29513 94.0326C15.2117 86.6972 33.7073 81.5373 55.2423 81.5373Z" fill="#11B2E8"/>
<path d="M55.2376 81.5917C76.7647 81.5917 95.1974 86.6967 103.09 93.9693C105.745 88.8093 107.198 83.0604 107.198 77.0601C107.198 53.0826 83.9273 31.7832 55.2376 31.7832C26.6107 31.7832 3.30859 53.0826 3.30859 77.0523C3.30859 83.0682 4.77725 88.8172 7.41611 93.9693C15.3248 86.6967 33.7654 81.5917 55.2376 81.5917Z" fill="#12B4EA"/>
<path d="M55.2251 81.6561C76.6894 81.6561 95.075 86.706 102.944 93.9001C105.599 88.7951 107.044 83.109 107.044 77.1637C107.044 53.4296 83.8442 32.248 55.2251 32.248C26.6767 32.248 3.4375 53.4296 3.4375 77.1558C3.4375 83.109 4.8983 88.803 7.53716 93.9001C15.4223 86.706 33.8079 81.6561 55.2251 81.6561Z" fill="#12B7EB"/>
<path d="M55.2165 81.7047C76.6259 81.7047 94.9565 86.7075 102.802 93.8309C105.449 88.7809 106.894 83.1419 106.894 77.2594C106.894 53.7688 83.7571 32.7129 55.2165 32.7129C26.7546 32.7129 3.57031 53.7688 3.57031 77.2516C3.57031 83.1498 5.0311 88.7887 7.66211 93.8309C15.5237 86.7075 33.8622 81.7047 55.2165 81.7047Z" fill="#11B9EC"/>
<path d="M55.2119 81.7728C76.5584 81.7728 94.8419 86.7207 102.664 93.7655C105.311 88.7705 106.748 83.1944 106.748 77.3669C106.748 54.1197 83.6739 33.1816 55.2119 33.1816C26.8285 33.1816 3.70703 54.1198 3.70703 77.359C3.70703 83.1944 5.15997 88.7784 7.79098 93.7655C15.629 86.7207 33.9204 81.7728 55.2119 81.7728Z" fill="#0FBCEE"/>
<path d="M55.2033 81.8273C76.4948 81.8273 94.7312 86.7202 102.53 93.7022C105.169 88.7544 106.598 83.2332 106.598 77.4685C106.598 54.457 83.5868 33.6445 55.2033 33.6445C26.8984 33.6445 3.83984 54.457 3.83984 77.4606C3.83984 83.2332 5.29279 88.7622 7.91594 93.7022C15.7304 86.7202 33.9668 81.8273 55.2033 81.8273Z" fill="#0CBEEF"/>
<path d="M55.1948 81.8936C76.4235 81.8936 94.6128 86.7315 102.388 93.635C105.019 88.7421 106.456 83.2837 106.456 77.574C106.456 54.806 83.4997 34.1113 55.1948 34.1113C26.9684 34.1113 3.97266 54.806 3.97266 77.5662C3.97266 83.2837 5.42559 88.7499 8.04089 93.635C15.8318 86.7315 34.0211 81.8936 55.1948 81.8936Z" fill="#0CC1F1"/>
<path d="M55.1862 81.9462C76.3599 81.9462 94.4942 86.7369 102.246 93.5697C104.877 88.7239 106.306 83.3206 106.306 77.6737C106.306 55.1491 83.4126 34.5723 55.1862 34.5723C27.0384 34.5723 4.10547 55.1491 4.10547 77.6658C4.10547 83.3206 5.55056 88.7318 8.16585 93.5697C15.9332 86.7369 34.0754 81.9462 55.1862 81.9462Z" fill="#10C3F2"/>
<path d="M55.1898 82.0794C76.3321 82.0794 94.4428 86.8388 102.187 93.6244C104.81 88.8101 106.239 83.4459 106.239 77.8305C106.239 55.4551 83.3847 34.9961 55.1898 34.9961C27.0812 34.9961 4.17969 55.4551 4.17969 77.8226C4.17969 83.4459 5.62478 88.8258 8.23222 93.6244C15.9917 86.8388 34.1025 82.0794 55.1898 82.0794Z" fill="#20C5F3"/>
<path d="M55.1894 82.2126C76.3081 82.2126 94.3953 86.9406 102.123 93.6791C104.739 88.904 106.168 83.5713 106.168 77.9952C106.168 55.7612 83.3451 35.4199 55.1894 35.4199C27.1201 35.4199 4.25 55.7612 4.25 77.9873C4.25 83.5713 5.68724 88.9119 8.29469 93.687C16.0385 86.9406 34.1335 82.2126 55.1894 82.2126Z" fill="#30C6F3"/>
<path d="M55.1851 82.3439C76.2724 82.3439 94.336 87.0404 102.056 93.7397C104.672 88.9881 106.093 83.6947 106.093 78.1578C106.093 56.0652 83.3015 35.8496 55.1851 35.8496C27.1472 35.8496 4.31641 56.0652 4.31641 78.1421C4.31641 83.6947 5.75364 88.996 8.35323 93.7397C16.0892 87.0404 34.1606 82.3439 55.1851 82.3439Z" fill="#40C8F3"/>
<path d="M55.1886 82.4791C76.2445 82.4791 94.2846 87.1442 101.997 93.7963C104.604 89.0762 106.026 83.8221 106.026 78.3166C106.026 56.3732 83.2658 36.2754 55.1886 36.2754C27.19 36.2754 4.39062 56.3732 4.39062 78.3087C4.39062 83.8221 5.82786 89.0841 8.4196 93.7963C16.1398 87.1442 34.1877 82.4791 55.1886 82.4791Z" fill="#50C9F4"/>
<path d="M55.1883 82.6142C76.2206 82.6142 94.2371 87.248 101.934 93.853C104.533 89.1643 105.955 83.9494 105.955 78.4832C105.955 56.689 83.2262 36.7012 55.1883 36.7012C27.229 36.7012 4.45312 56.689 4.45312 78.4675C4.45312 83.9494 5.89036 89.18 8.4821 93.8608C16.1945 87.248 34.2188 82.6142 55.1883 82.6142Z" fill="#5CCBF4"/>
<path d="M55.184 82.7475C76.185 82.7475 94.1779 87.3498 101.867 93.9155C104.458 89.2583 105.888 84.0669 105.888 78.64C105.888 56.995 83.1826 37.125 55.184 37.125C27.2561 37.125 4.51953 56.995 4.51953 78.6321C4.51953 84.0748 5.95676 89.2661 8.54065 93.9155C16.2452 87.3498 34.246 82.7475 55.184 82.7475Z" fill="#63CDF5"/>
<path d="M55.1876 82.8827C76.1571 82.8827 94.1265 87.4535 101.8 93.9722C104.399 89.3463 105.821 84.1942 105.821 78.8066C105.821 57.303 83.1469 37.5586 55.1876 37.5586C27.2989 37.5586 4.59375 57.3029 4.59375 78.7908C4.59375 84.2021 6.02313 89.3542 8.60701 93.9722C16.2958 87.4535 34.2731 82.8827 55.1876 82.8827Z" fill="#6ACEF5"/>
<path d="M55.1872 83.0159C76.1331 83.0159 94.0789 87.5554 101.736 94.0269C104.328 89.4324 105.75 84.3196 105.75 78.9633C105.75 57.609 83.1073 37.9824 55.1872 37.9824C27.3378 37.9824 4.66406 57.609 4.66406 78.9555C4.66406 84.3275 6.09344 89.4403 8.66947 94.0347C16.3504 87.5553 34.3041 83.0159 55.1872 83.0159Z" fill="#72D0F5"/>
<path d="M55.1868 83.1491C76.1013 83.1491 94.0236 87.665 101.673 94.0894C104.257 89.5185 105.679 84.445 105.679 79.128C105.679 57.915 83.0676 38.4062 55.1868 38.4062C27.3767 38.4062 4.73438 57.915 4.73438 79.1201C4.73438 84.4528 6.16375 89.5264 8.73193 94.0894C16.3972 87.665 34.3273 83.1491 55.1868 83.1491Z" fill="#79D2F6"/>
<path d="M55.1865 83.2804C76.0696 83.2804 93.9683 87.7649 101.61 94.1422C104.186 89.6106 105.608 84.5684 105.608 79.2828C105.608 58.2191 83.028 38.8281 55.1865 38.8281C27.4078 38.8281 4.80469 58.2191 4.80469 79.275C4.80469 84.5684 6.22622 89.6184 8.79439 94.1422C16.4518 87.7649 34.3583 83.2804 55.1865 83.2804Z" fill="#80D3F6"/>
<path d="M55.1861 83.4038C76.0457 83.4038 93.9208 87.8647 101.547 94.1948C104.123 89.6946 105.537 84.6918 105.537 79.4455C105.537 58.5231 82.9884 39.2578 55.1861 39.2578C27.4467 39.2578 4.86719 58.5231 4.86719 79.4376C4.86719 84.6918 6.29657 89.7025 8.85689 94.2027C16.5064 87.8647 34.3894 83.4116 55.1861 83.4038Z" fill="#87D5F6"/>
<path d="M55.1858 83.539C76.0139 83.539 93.8655 87.9685 101.484 94.2594C104.052 89.7827 105.473 84.8191 105.473 79.6121C105.473 58.8311 82.9488 39.6836 55.1858 39.6836C27.4856 39.6836 4.9375 58.831 4.9375 79.5964C4.9375 84.8191 6.35903 89.7906 8.91935 94.2594C16.5532 87.9685 34.4126 83.5468 55.1858 83.539Z" fill="#8DD7F7"/>
<path d="M55.1893 83.6742C75.986 83.6742 93.814 88.0723 101.424 94.316C103.985 89.8708 105.406 84.9465 105.406 79.7709C105.406 59.139 82.913 40.1094 55.1893 40.1094C27.5206 40.1094 5.01172 59.139 5.01172 79.763C5.01172 84.9465 6.43326 89.8786 8.98572 94.3239C16.6117 88.0723 34.4476 83.682 55.1893 83.6742Z" fill="#94D9F7"/>
<path d="M55.1889 83.8074C75.9621 83.8074 93.7665 88.1741 101.353 94.3707C103.921 89.9648 105.335 85.0719 105.335 79.9355C105.335 59.4451 82.8734 40.5332 55.1889 40.5332C27.5594 40.5332 5.08203 59.4451 5.08203 79.9198C5.08203 85.0719 6.4957 89.9648 9.04816 94.3786C16.6584 88.1741 34.4786 83.8153 55.1889 83.8074Z" fill="#9ADBF8"/>
<path d="M55.1847 83.9426C75.9264 83.9426 93.7073 88.2779 101.286 94.4352C103.846 90.0528 105.26 85.1913 105.26 80.0942C105.26 59.753 82.8298 40.9668 55.1847 40.9668C27.5944 40.9668 5.14844 59.753 5.14844 80.0864C5.14844 85.1992 6.56211 90.0607 9.10672 94.4352C16.7091 88.2779 34.4979 83.9504 55.1847 83.9426Z" fill="#A0DDF8"/>
<path d="M55.1843 84.0758C75.8946 84.0758 93.6519 88.3797 101.223 94.4899C103.775 90.1389 105.189 85.3167 105.189 80.2589C105.189 60.059 82.7902 41.3906 55.1843 41.3906C27.6333 41.3906 5.21875 60.059 5.21875 80.2432C5.21875 85.3246 6.63242 90.1468 9.16918 94.4977C16.7638 88.3797 34.5289 84.0837 55.1843 84.0758Z" fill="#A6DFF8"/>
<path d="M55.1918 84.211C75.8785 84.211 93.6044 88.4834 101.168 94.5465C103.712 90.227 105.126 85.444 105.126 80.4176C105.126 60.367 82.7584 41.8164 55.1918 41.8164C27.6722 41.8164 5.28906 60.367 5.28906 80.4098C5.28906 85.4519 6.70274 90.2348 9.2395 94.5544C16.8184 88.4834 34.56 84.2189 55.1918 84.211Z" fill="#ACE1F9"/>
<path d="M55.1914 84.3423C75.8467 84.3423 93.5569 88.5833 101.104 94.6071C103.649 90.319 105.063 85.5675 105.063 80.5803C105.063 60.6789 82.7266 42.2383 55.1914 42.2383C27.7111 42.2383 5.35938 60.6789 5.35938 80.5725C5.35938 85.5753 6.77305 90.319 9.30981 94.6071C16.873 88.5833 34.591 84.3501 55.1914 84.3423Z" fill="#B2E2F9"/>
<path d="M55.1949 84.4696C75.8189 84.4696 93.5055 88.6792 101.045 94.656C103.582 90.3992 104.996 85.687 104.996 80.7312C104.996 60.979 82.6909 42.6641 55.1949 42.6641C27.7539 42.6641 5.43359 60.979 5.43359 80.7234C5.43359 85.6948 6.83942 90.3992 9.37618 94.6638C16.9236 88.6792 34.626 84.4775 55.1949 84.4696Z" fill="#B8E4F9"/>
<path d="M55.1906 84.6068C75.791 84.6068 93.4462 88.785 100.978 94.7145C103.507 90.4892 104.921 85.8162 104.921 80.8998C104.921 61.2889 82.6473 43.0918 55.1906 43.0918C27.7811 43.0918 5.5 61.289 5.5 80.8919C5.5 85.8241 6.90582 90.4971 9.43472 94.7224C16.9743 88.785 34.6452 84.6146 55.1906 84.6068Z" fill="#BEE6FA"/>
<path d="M55.1903 84.74C75.7592 84.74 93.3988 88.8868 100.907 94.7771C103.436 90.5754 104.85 85.9417 104.85 81.0645C104.85 61.595 82.6077 43.5156 55.1903 43.5156C27.82 43.5156 5.57031 61.595 5.57031 81.0487C5.57031 85.9495 6.96828 90.5832 9.49719 94.785C17.0289 88.8868 34.6763 84.7479 55.1903 84.74Z" fill="#C3E8FA"/>
<path d="M55.1938 84.8752C75.7314 84.8752 93.3473 88.9906 100.848 94.8338C103.377 90.6713 104.782 86.069 104.782 81.2232C104.782 61.903 82.572 43.9414 55.1938 43.9414C27.8628 43.9414 5.64453 61.9029 5.64453 81.2153C5.64453 86.0768 7.0425 90.6713 9.56355 94.8416C17.0796 88.9906 34.7034 84.883 55.1938 84.8752Z" fill="#C9EAFB"/>
<path d="M55.1896 85.0084C75.7036 85.0084 93.2881 89.0923 100.781 94.8884C103.302 90.7573 104.707 86.1864 104.707 81.3878C104.707 62.2089 82.5285 44.373 55.1896 44.373C27.8978 44.373 5.70312 62.2089 5.70312 81.3721C5.70312 86.1943 7.10895 90.7573 9.62215 94.8963C17.1303 89.0923 34.7306 85.0162 55.1896 85.0084Z" fill="#CEECFB"/>
<path d="M55.1892 85.1436C75.6718 85.1436 93.2406 89.1962 100.717 94.953C103.231 90.8454 104.636 86.3138 104.636 81.5466C104.636 62.5169 82.4888 44.7988 55.1892 44.7988C27.9289 44.7988 5.77344 62.5169 5.77344 81.5387C5.77344 86.3217 7.17141 90.8454 9.68461 94.9608C17.1771 89.1961 34.7616 85.1514 55.1892 85.1436Z" fill="#D4EEFB"/>
<path d="M55.1888 85.2768C75.64 85.2768 93.1852 89.3058 100.654 95.0077C103.16 90.9316 104.573 86.4392 104.573 81.7112C104.573 62.8229 82.4492 45.2227 55.1888 45.2227C27.9677 45.2227 5.84375 62.8229 5.84375 81.6955C5.84375 86.447 7.24171 90.9394 9.74705 95.0155C17.2317 89.3058 34.7848 85.2847 55.1888 85.2768Z" fill="#D9F1FC"/>
<path d="M55.1885 85.4061C75.6161 85.4061 93.1299 89.4037 100.591 95.0584C103.096 91.0216 104.502 86.5606 104.502 81.8641C104.502 63.125 82.4095 45.6504 55.1885 45.6504C28.0066 45.6504 5.91406 63.125 5.91406 81.8562C5.91406 86.5685 7.30417 91.0216 9.80951 95.0663C17.2863 89.4037 34.8158 85.414 55.1885 85.4061Z" fill="#DFF3FC"/>
<path d="M55.192 85.5413C75.5882 85.5413 93.0863 89.5075 100.532 95.1229C103.029 91.1096 104.435 86.688 104.435 82.0307C104.435 63.433 82.3738 46.0762 55.192 46.0762C28.0416 46.0762 5.98828 63.433 5.98828 82.015C5.98828 86.6958 7.37839 91.1096 9.87588 95.1308C17.3369 89.5075 34.8508 85.5492 55.192 85.5413Z" fill="#E5F5FC"/>
<path d="M55.1917 85.6647C75.5564 85.6647 93.031 89.6073 100.461 95.1756C102.958 91.1938 104.364 86.8114 104.364 82.1934C104.364 63.737 82.3342 46.498 55.1917 46.498C28.0805 46.498 6.05078 63.737 6.05078 82.1777C6.05078 86.8192 7.44089 91.1938 9.93838 95.1835C17.3916 89.6073 34.874 85.6805 55.1917 85.6647Z" fill="#EBF7FD"/>
<path d="M55.1913 85.7999C75.5325 85.7999 92.9757 89.7111 100.397 95.2323C102.895 91.2818 104.293 86.9387 104.293 82.3521C104.293 64.045 82.2946 46.9238 55.1913 46.9238C28.1194 46.9238 6.12109 64.045 6.12109 82.3443C6.12109 86.9466 7.51121 91.2819 10.0008 95.2402C17.4383 89.7111 34.9051 85.8156 55.1913 85.7999Z" fill="#F2F9FD"/>
<path d="M55.187 85.937C75.4968 85.937 92.9243 89.8168 100.33 95.2987C102.82 91.3797 104.218 87.068 104.218 82.5206C104.218 64.3628 82.251 47.3594 55.187 47.3594C28.1544 47.3594 6.1875 64.3628 6.1875 82.505C6.1875 87.0758 7.57762 91.3797 10.0594 95.3066C17.489 89.8168 34.9244 85.9527 55.187 85.937Z" fill="#F8FCFE"/>
<path d="M55.1906 86.0683C75.4689 86.0683 92.8728 89.9167 100.271 95.3515C102.753 91.4638 104.159 87.1836 104.159 82.6755C104.159 64.6668 82.2153 47.7812 55.1906 47.7812C28.1894 47.7812 6.26172 64.6668 6.26172 82.6676C6.26172 87.1993 7.64398 91.4639 10.1258 95.3593C17.5397 89.9167 34.9593 86.084 55.1906 86.0683Z" fill="#FEFEFE"/>
</g>
<path d="M54.9423 68.0996C37.2007 68.0996 20.7393 71.1233 7.16016 76.2204C15.3202 94.4804 33.6194 107.196 54.9502 107.196C76.2417 107.196 94.5174 94.4725 102.709 76.2204C89.1297 71.1233 72.6447 68.0996 54.9423 68.0996Z" fill="#0083C9"/>
<path d="M640.578 54.2808C659.484 44.3568 669.816 31.7947 671.575 16.5947C671.575 15.2757 671.198 14.1765 670.445 13.2972L669.408 12.4492H683.258C683.697 12.4492 684.074 12.5434 684.388 12.7319C685.456 13.2343 685.99 14.3021 685.99 15.9352C685.99 18.5732 685.645 21.1484 684.954 23.6608C684.263 26.1104 683.289 28.4658 682.033 30.727C686.367 34.1187 691.297 37.3534 696.825 40.4311C702.415 43.5088 708.507 46.4923 715.102 49.3816L707.942 59.4626C694.94 52.6163 684.954 45.0477 677.982 36.7567C675.846 39.4576 673.397 42.0014 670.633 44.3882C667.932 46.7121 665.074 48.8477 662.059 50.7948C659.107 52.7419 656.092 54.5006 653.015 56.0708C650 57.6411 647.111 58.9915 644.347 60.1221L640.578 54.2808ZM720.002 81.98V89.423H635.773V81.98H720.002Z" fill="#0067AB"/>
<path d="M627.48 98.9384H614.478V18.5729C614.478 17.3167 614.415 16.0919 614.29 14.8985C614.227 13.6423 613.913 12.4489 613.347 11.3184H623.146C626.035 11.3184 627.48 12.3233 627.48 14.3332V98.9384ZM586.967 18.2903C586.967 17.4737 586.904 16.6886 586.779 15.9349C586.653 15.1184 586.308 14.4589 585.742 13.9564H597.048C598.995 13.9564 599.969 15.0242 599.969 17.1597V70.4855H562.66C561.655 70.4855 560.65 70.3913 559.645 70.2028C558.703 70.0144 557.823 69.7317 557.007 69.3549C556.253 68.9152 555.625 68.3499 555.123 67.659C554.683 66.9053 554.463 65.9945 554.463 64.9268V18.2903C554.463 17.4737 554.4 16.6886 554.275 15.9349C554.149 15.1184 553.804 14.4589 553.238 13.9564H564.544C566.491 13.9564 567.465 15.0242 567.465 17.1597V33.4589H586.967V18.2903ZM567.465 40.8077V60.216C567.465 61.1582 567.622 61.8805 567.936 62.383C568.313 62.8226 569.192 63.0425 570.574 63.0425H586.967V40.8077H567.465Z" fill="#0067AB"/>
<path d="M541.754 98.9384H528.752V42.692H511.511V35.249H528.752V18.6671C528.752 18.2275 528.752 17.6622 528.752 16.9713C528.752 16.2804 528.721 15.5894 528.658 14.8985C528.595 14.2076 528.469 13.5481 528.281 12.92C528.155 12.2291 527.967 11.6952 527.716 11.3184H537.42C540.309 11.3184 541.754 12.3547 541.754 14.4275V98.9384ZM461.859 67.659C469.711 60.8755 475.458 53.3697 479.101 45.1416C482.744 36.8507 484.628 27.806 484.754 18.0076C484.754 16.4374 484.314 15.1184 483.435 14.0506L482.775 13.4853H495.117C495.871 13.5481 496.405 13.6423 496.719 13.7679C497.849 14.3332 498.415 15.3382 498.415 16.7828C498.415 20.9283 498.007 24.9167 497.19 28.7482C496.373 32.5796 495.18 36.2854 493.61 39.8655C494.866 41.373 496.405 43.0375 498.226 44.8589C500.111 46.6176 502.183 48.4391 504.445 50.3234C506.706 52.1449 509.124 53.9978 511.699 55.8821C514.274 57.7036 516.881 59.4309 519.519 61.064L512.17 71.2392C510.223 69.6061 508.213 67.8474 506.14 65.9631C504.13 64.016 502.121 62.0061 500.111 59.9334C498.164 57.8606 496.311 55.7251 494.552 53.5267C492.856 51.3284 491.349 49.13 490.03 46.9317C487.015 52.0193 483.529 56.6987 479.572 60.9697C475.678 65.2408 471.187 69.0722 466.099 72.464L461.859 67.659Z" fill="#0067AB"/>
<path d="M452.82 60.4977H398.269C397.201 60.4977 396.134 60.3721 395.066 60.1209C393.998 59.8696 393.024 59.4928 392.145 58.9903C391.266 58.425 390.543 57.7341 389.978 56.9176C389.413 56.0382 389.13 54.9704 389.13 53.7142V21.5869C389.13 20.5191 389.005 19.4513 388.753 18.3836C388.502 17.3158 388.062 16.3422 387.434 15.4629H452.254V22.8117H401.943V50.4167C401.943 52.301 403.011 53.2432 405.147 53.2432H452.82V60.4977ZM462.806 81.9788V89.4218H378.578V81.9788H462.806Z" fill="#0067AB"/>
<path d="M345.606 31.8573H357.289V18.5729C357.289 18.1961 357.257 17.6622 357.195 16.9713C357.195 16.2804 357.163 15.5894 357.1 14.8985C357.037 14.1448 356.943 13.4539 356.818 12.8258C356.692 12.1349 356.504 11.6324 356.252 11.3184H365.957C368.846 11.3184 370.29 12.3233 370.29 14.3332V73.2177H357.289V57.9549C355.718 58.7086 353.96 59.1482 352.013 59.2739C350.128 59.3367 348.056 59.3681 345.795 59.3681H294.824V52.1135H301.89V21.3052H294.824V13.9564H346.925V21.3052H339.859V52.1135H346.831C351.793 52.3019 355.279 51.5168 357.289 49.7581V39.206H345.606V31.8573ZM314.892 52.1135H326.952V21.3052H314.892V52.1135ZM313.95 73.5004C313.95 72.6838 313.887 71.8987 313.761 71.145C313.636 70.3284 313.259 69.6375 312.631 69.0722H324.408C325.413 69.0722 326.072 69.3235 326.386 69.826C326.7 70.2656 326.857 70.9251 326.857 71.8045V88.7632C326.857 89.7053 327.046 90.4277 327.423 90.9301C327.862 91.4326 328.742 91.6839 330.061 91.6839H370.667V98.9384H322.052C321.173 98.9384 320.231 98.8442 319.226 98.6558C318.284 98.5302 317.404 98.2475 316.588 97.8079C315.834 97.431 315.206 96.8971 314.704 96.2062C314.201 95.5153 313.95 94.6045 313.95 93.474V73.5004Z" fill="#0067AB"/>
<path d="M283.518 98.9384H270.611V71.5218C269.92 72.1499 268.978 72.621 267.784 72.9351C266.654 73.2491 265.429 73.5003 264.11 73.6888C262.854 73.8144 261.598 73.9086 260.341 73.9714C259.148 73.9714 258.174 73.9714 257.421 73.9714H222.655C221.713 73.9714 220.771 73.8772 219.829 73.6888C218.887 73.5003 218.007 73.2177 217.191 72.8408C216.437 72.4012 215.809 71.8359 215.307 71.145C214.804 70.3913 214.553 69.4805 214.553 68.4127V44.4821C214.553 43.4771 214.459 42.5978 214.27 41.8441C214.082 41.0275 213.768 40.1796 213.328 39.3003H244.042V21.3052H213.988V13.9564H253.275C254.72 13.9564 255.693 14.2076 256.196 14.7101C256.761 15.2126 257.044 15.9663 257.044 16.9713V43.6342C257.044 44.7019 256.793 45.487 256.29 45.9895C255.788 46.4292 254.814 46.649 253.369 46.649H227.46V63.702C227.46 64.7069 227.649 65.4607 228.026 65.9631C228.403 66.4028 229.282 66.6226 230.664 66.6226H260.247C261.252 66.6226 262.351 66.5598 263.545 66.4342C264.801 66.2458 265.931 65.9317 266.936 65.4921C268.004 64.9896 268.884 64.3301 269.574 63.5135C270.265 62.6342 270.611 61.535 270.611 60.216V18.6671C270.611 18.2275 270.611 17.6622 270.611 16.9713C270.611 16.2804 270.579 15.5894 270.517 14.8985C270.454 14.1448 270.328 13.4539 270.14 12.8258C270.014 12.1977 269.794 11.6952 269.48 11.3184H279.279C282.105 11.3184 283.518 12.3861 283.518 14.5217V98.9384Z" fill="#0067AB"/>
<path d="M133.246 32.4222C133.246 29.2817 134.031 26.3296 135.601 23.566C137.172 20.8023 139.307 18.4155 142.008 16.4056C144.772 14.3329 147.975 12.7312 151.618 11.6006C155.324 10.4072 159.281 9.81055 163.489 9.81055C167.697 9.81055 171.654 10.4072 175.36 11.6006C179.066 12.794 182.269 14.4271 184.97 16.4998C187.671 18.5097 189.806 20.8965 191.377 23.6602C192.947 26.4238 193.732 29.3445 193.732 32.4222C193.732 35.5627 192.947 38.5148 191.377 41.2784C189.806 43.9792 187.671 46.3346 184.97 48.3446C182.269 50.3545 179.066 51.9561 175.36 53.1495C171.654 54.3429 167.697 54.9396 163.489 54.9396C159.281 54.9396 155.324 54.3743 151.618 53.2437C147.975 52.0503 144.772 50.4487 142.008 48.4388C139.307 46.366 137.172 43.9792 135.601 41.2784C134.031 38.5148 133.246 35.5627 133.246 32.4222ZM146.154 32.4222C146.154 34.6205 146.562 36.6619 147.378 38.5462C148.258 40.3677 149.451 41.9693 150.958 43.3511C152.529 44.733 154.35 45.8007 156.423 46.5545C158.559 47.3082 160.914 47.685 163.489 47.685C165.939 47.685 168.2 47.3082 170.273 46.5545C172.408 45.7379 174.23 44.6702 175.737 43.3511C177.307 41.9693 178.501 40.3677 179.317 38.5462C180.197 36.6619 180.636 34.6205 180.636 32.4222C180.636 30.2238 180.197 28.1825 179.317 26.2982C178.501 24.4139 177.307 22.8122 175.737 21.4932C174.23 20.1114 172.408 19.0436 170.273 18.2899C168.2 17.4734 165.939 17.0651 163.489 17.0651C161.04 17.0651 158.747 17.4734 156.611 18.2899C154.476 19.0436 152.623 20.1114 151.053 21.4932C149.545 22.8122 148.352 24.4139 147.473 26.2982C146.593 28.1825 146.154 30.2238 146.154 32.4222ZM121.375 63.2305H205.603V70.5793H169.99V99.9744H157.082V70.5793H121.375V63.2305Z" fill="#0067AB"/>
</svg>
