<svg width="28" height="28" viewBox="0 0 28 28" fill="none" xmlns="http://www.w3.org/2000/svg">
<path d="M16.6667 12.4211C15.818 12.4211 15.004 12.0883 14.4039 11.4961C13.8038 10.9039 13.4667 10.1007 13.4667 9.26316V5.05263H9.2C8.6342 5.05263 8.09158 5.27444 7.69151 5.66925C7.29143 6.06406 7.06667 6.59954 7.06667 7.15789V20.8421C7.06667 21.4005 7.29143 21.9359 7.69151 22.3308C8.09158 22.7256 8.6342 22.9474 9.2 22.9474H18.8C19.3658 22.9474 19.9084 22.7256 20.3085 22.3308C20.7086 21.9359 20.9333 21.4005 20.9333 20.8421V12.4211H16.6667ZM14.5333 9.26316C14.5333 9.82151 14.7581 10.357 15.1582 10.7518C15.5583 11.1466 16.1009 11.3684 16.6667 11.3684H20.496L14.5333 5.48421V9.26316ZM9.2 4H14.5333L22 11.3684V20.8421C22 21.6796 21.6629 22.4829 21.0627 23.0751C20.4626 23.6673 19.6487 24 18.8 24H9.2C8.35131 24 7.53737 23.6673 6.93726 23.0751C6.33714 22.4829 6 21.6796 6 20.8421V7.15789C6 6.32037 6.33714 5.51715 6.93726 4.92493C7.53737 4.33271 8.35131 4 9.2 4Z" fill="black"/>
</svg>
