<svg width="28" height="28" viewBox="0 0 28 28" fill="none" xmlns="http://www.w3.org/2000/svg">
<path d="M5.15789 25C4.28042 25 3.53516 24.658 2.92211 23.9741C2.30737 23.292 2 22.4628 2 21.4865V11.6488C2 10.6725 2.30737 9.84332 2.92211 9.16124C3.53432 8.47728 4.27958 8.1353 5.15789 8.1353C5.67747 8.1353 6.15411 8.26413 6.58779 8.52178C7.02147 8.77944 7.39284 9.11908 7.70189 9.54069H9.57895V5.27111C9.57895 4.64618 9.77895 4.11166 10.1789 3.66756C10.5789 3.22346 11.0589 3.00094 11.6189 3H18.9074C19.4682 3 19.9482 3.22252 20.3474 3.66756C20.7465 4.1126 20.9465 4.64665 20.9474 5.26971V9.54069H22.8421C23.7196 9.54069 24.4648 9.88267 25.0779 10.5666C25.6926 11.2487 26 12.0779 26 13.0542V21.3249C26 21.9489 25.8 22.4829 25.4 22.927C25 23.3712 24.52 23.5937 23.96 23.5946H7.70063C7.39158 24.0162 7.02063 24.3559 6.58779 24.6135C6.15495 24.8712 5.67832 25 5.15789 25ZM5.15789 23.5946C5.67747 23.5946 6.12337 23.388 6.49558 22.9748C6.86695 22.5607 7.05263 22.0646 7.05263 21.4865V11.6488C7.05263 11.0707 6.86695 10.5746 6.49558 10.1605C6.12337 9.74729 5.67747 9.54069 5.15789 9.54069C4.63832 9.54069 4.19242 9.74729 3.82021 10.1605C3.44884 10.5746 3.26316 11.0707 3.26316 11.6488V21.4865C3.26316 22.0646 3.44884 22.5607 3.82021 22.9748C4.19242 23.388 4.63832 23.5946 5.15789 23.5946ZM10.8421 9.54069H19.6842V5.27111C19.6842 5.01814 19.6114 4.81061 19.4657 4.64852C19.32 4.48644 19.1339 4.40539 18.9074 4.40539H11.6189C11.3924 4.40539 11.2063 4.48644 11.0606 4.64852C10.9149 4.81061 10.8421 5.01814 10.8421 5.27111V9.54069ZM8.31579 22.1892H23.96C24.1865 22.1892 24.3726 22.1082 24.5183 21.9461C24.664 21.784 24.7368 21.5769 24.7368 21.3249V13.0542C24.7368 12.4761 24.5512 11.98 24.1798 11.5659C23.8076 11.1527 23.3617 10.9461 22.8421 10.9461H8.31579V22.1892ZM18.6901 15.4602C18.9318 15.1913 19.0526 14.8578 19.0526 14.4596C19.0526 14.0614 18.9314 13.7278 18.6888 13.4589C18.4463 13.19 18.1465 13.0551 17.7895 13.0542C17.4324 13.0532 17.1326 13.1882 16.8901 13.4589C16.6476 13.7297 16.5263 14.0632 16.5263 14.4596C16.5263 14.8559 16.6476 15.1899 16.8901 15.4616C17.1326 15.7333 17.4324 15.8678 17.7895 15.865C18.1465 15.8621 18.4467 15.7272 18.6901 15.4602ZM22.4796 15.4602C22.7213 15.1922 22.8421 14.8587 22.8421 14.4596C22.8421 14.0604 22.7208 13.7269 22.4783 13.4589C22.2358 13.191 21.936 13.056 21.5789 13.0542C21.2219 13.0523 20.9221 13.1872 20.6796 13.4589C20.4371 13.7306 20.3158 14.0642 20.3158 14.4596C20.3158 14.8549 20.4371 15.189 20.6796 15.4616C20.9221 15.7343 21.2219 15.8687 21.5789 15.865C21.936 15.8612 22.2362 15.7263 22.4796 15.4602ZM18.6901 19.6764C18.9318 19.4084 19.0526 19.0749 19.0526 18.6757C19.0526 18.2766 18.9314 17.9431 18.6888 17.6751C18.4463 17.4071 18.1465 17.2722 17.7895 17.2703C17.4324 17.2685 17.1326 17.4034 16.8901 17.6751C16.6476 17.9468 16.5263 18.2804 16.5263 18.6757C16.5263 19.0711 16.6476 19.4051 16.8901 19.6778C17.1326 19.9504 17.4324 20.0849 17.7895 20.0811C18.1465 20.0774 18.4467 19.9425 18.6901 19.6764ZM22.4796 19.6764C22.7213 19.4084 22.8421 19.0749 22.8421 18.6757C22.8421 18.2766 22.7208 17.9431 22.4783 17.6751C22.2358 17.4071 21.936 17.2722 21.5789 17.2703C21.2219 17.2685 20.9221 17.4034 20.6796 17.6751C20.4371 17.9468 20.3158 18.2804 20.3158 18.6757C20.3158 19.0711 20.4371 19.4051 20.6796 19.6778C20.9221 19.9504 21.2219 20.0849 21.5789 20.0811C21.936 20.0774 22.2362 19.9425 22.4796 19.6764ZM11.2312 20.0811H14.2425C14.5322 20.0811 14.7747 19.9724 14.9701 19.7551C15.1655 19.5377 15.2632 19.2679 15.2632 18.9456V14.1897C15.2632 13.8674 15.1655 13.5976 14.9701 13.3802C14.7747 13.1629 14.5322 13.0542 14.2425 13.0542H11.2312C10.9423 13.0542 10.6998 13.1629 10.5036 13.3802C10.3074 13.5976 10.2097 13.8674 10.2105 14.1897V18.9456C10.2105 19.2669 10.3082 19.5368 10.5036 19.7551C10.6989 19.9734 10.9415 20.0821 11.2312 20.0811Z" fill="black"/>
</svg>
