<svg width="28" height="28" viewBox="0 0 28 28" fill="none" xmlns="http://www.w3.org/2000/svg">
<path d="M11.9175 17.835C10.2636 17.835 8.86407 17.2621 7.71881 16.1162C6.57354 14.9703 6.00061 13.5708 6 11.9175C5.99939 10.2642 6.57233 8.86468 7.71881 7.7188C8.86528 6.57294 10.2648 6 11.9175 6C13.5701 6 14.97 6.57294 16.1171 7.7188C17.2642 8.86468 17.8368 10.2642 17.835 11.9175C17.835 12.5851 17.7288 13.2148 17.5164 13.8065C17.3039 14.3983 17.0156 14.9218 16.6515 15.377L21.7496 20.4751C21.9165 20.642 22 20.8544 22 21.1124C22 21.3703 21.9165 21.5827 21.7496 21.7496C21.5827 21.9165 21.3703 22 21.1124 22C20.8544 22 20.642 21.9165 20.4751 21.7496L15.377 16.6515C14.9218 17.0156 14.3983 17.3039 13.8065 17.5164C13.2148 17.7288 12.5851 17.835 11.9175 17.835ZM11.9175 16.0142C13.0555 16.0142 14.0229 15.6161 14.8198 14.8198C15.6167 14.0235 16.0148 13.0561 16.0142 11.9175C16.0136 10.7789 15.6155 9.81178 14.8198 9.0161C14.0241 8.22043 13.0567 7.82198 11.9175 7.82077C10.7783 7.81955 9.81117 8.218 9.0161 9.0161C8.22103 9.81421 7.82259 10.7813 7.82077 11.9175C7.81895 13.0537 8.21739 14.0211 9.0161 14.8198C9.81481 15.6185 10.7819 16.0167 11.9175 16.0142Z" fill="white"/>
</svg>
