<svg width="28" height="28" viewBox="0 0 28 28" fill="none" xmlns="http://www.w3.org/2000/svg">
<path d="M9.77664 3.11653L8.71956 3.41362C7.77833 3.67842 6.93778 4.18855 6.29683 4.88396C5.65588 5.57937 5.24121 6.43113 5.10162 7.33898C4.66376 10.1833 5.64269 13.509 8.00305 17.3229C10.3575 21.1273 12.9493 23.5782 15.8021 24.651C16.7187 24.9956 17.7221 25.0875 18.6931 24.9156C19.664 24.7437 20.5616 24.3153 21.2791 23.6814L22.0782 22.9744C22.5971 22.5163 22.92 21.898 22.987 21.2344C23.054 20.5709 22.8605 19.9072 22.4424 19.3668L20.4432 16.781C20.1729 16.4319 19.7923 16.1705 19.3548 16.0334C18.9172 15.8962 18.4446 15.8903 18.0032 16.0163L14.9794 16.8787L14.9013 16.8924C14.5681 16.9378 13.7985 16.2653 12.8402 14.7166C11.8377 13.0964 11.6313 12.1487 11.907 11.9039L13.4447 10.5656C14.0065 10.0763 14.3902 9.43535 14.5422 8.7325C14.6942 8.02965 14.6069 7.30005 14.2924 6.64578L13.3164 4.62258C13.023 4.01376 12.5022 3.52527 11.8512 3.24817C11.2002 2.97108 10.4619 2.92429 9.77664 3.11653ZM11.9748 5.18649L12.9479 7.20969C13.1367 7.60211 13.1893 8.03979 13.0984 8.46149C13.0075 8.88319 12.7775 9.26783 12.4407 9.56161L10.8986 10.9012C9.9108 11.7732 10.2381 13.2614 11.565 15.4043C12.8122 17.4206 13.9504 18.4164 15.1741 18.2431L15.3569 18.2073L18.4352 17.3312C18.5824 17.289 18.74 17.2909 18.8859 17.3365C19.0319 17.3822 19.1588 17.4693 19.249 17.5856L21.2482 20.1714C21.4575 20.4416 21.5545 20.7735 21.5212 21.1054C21.4878 21.4374 21.3264 21.7467 21.0668 21.9759L20.2663 22.6828C19.7537 23.1354 19.1127 23.4411 18.4194 23.5638C17.726 23.6864 17.0095 23.6208 16.355 23.3747C13.8516 22.4339 11.4854 20.1961 9.28127 16.6352C7.07129 13.0661 6.17639 10.0306 6.56118 7.53428C6.66079 6.88569 6.95696 6.27715 7.41483 5.78031C7.8727 5.28347 8.4732 4.91902 9.14564 4.72986L10.2027 4.43278C10.5454 4.33671 10.9139 4.3602 11.2394 4.49888C11.5649 4.63756 11.8253 4.88195 11.9719 5.18649" fill="black"/>
</svg>
