<svg width="60" height="60" viewBox="0 0 60 60" fill="none" xmlns="http://www.w3.org/2000/svg">
<path d="M28.1402 51.2844C17.2291 51.2844 11.7748 51.2844 8.38543 47.8951C4.99609 44.5057 4.99609 39.0489 4.99609 28.1402M4.99609 28.1402C4.99609 17.2316 4.99609 11.7748 8.38543 8.38543C11.7748 4.99609 17.2316 4.99609 28.1402 4.99609C39.0489 4.99609 44.5057 4.99609 47.8951 8.38543C51.0067 11.497 51.2638 16.3496 51.2818 25.5687M4.99609 28.1402H28.1402M25.5687 16.5682H40.9981" stroke="#0083CA" stroke-width="4" stroke-linecap="round" stroke-linejoin="round"/>
<path d="M15.605 16.5648H15.2835M15.605 39.7089H15.2835M36.6019 40.9947C37.3244 39.2071 38.5348 37.6585 40.0949 36.5255C41.655 35.3925 43.5021 34.7207 45.4256 34.5866C47.3491 34.4526 49.2715 34.8617 50.9737 35.7674C52.6759 36.6731 54.0893 38.0388 55.0529 39.7089M55.6803 48.7094C54.9574 50.4964 53.7471 52.0443 52.1872 53.1768C50.6274 54.3093 48.7807 54.9809 46.8577 55.1149C44.9348 55.2489 43.0128 54.84 41.3109 53.9349C39.6091 53.0297 38.1957 51.6646 37.2319 49.9952M43.5708 40.9947H35.8561V33.28M48.714 48.7094H56.4287V56.4241M15.9264 16.5648C15.9264 16.7353 15.8587 16.8988 15.7381 17.0194C15.6175 17.1399 15.454 17.2077 15.2835 17.2077C15.113 17.2077 14.9495 17.1399 14.8289 17.0194C14.7084 16.8988 14.6406 16.7353 14.6406 16.5648C14.6406 16.3943 14.7084 16.2307 14.8289 16.1102C14.9495 15.9896 15.113 15.9219 15.2835 15.9219C15.454 15.9219 15.6175 15.9896 15.7381 16.1102C15.8587 16.2307 15.9264 16.3943 15.9264 16.5648ZM15.9264 39.7089C15.9264 39.8794 15.8587 40.0429 15.7381 40.1635C15.6175 40.2841 15.454 40.3518 15.2835 40.3518C15.113 40.3518 14.9495 40.2841 14.8289 40.1635C14.7084 40.0429 14.6406 39.8794 14.6406 39.7089C14.6406 39.5384 14.7084 39.3749 14.8289 39.2543C14.9495 39.1338 15.113 39.066 15.2835 39.066C15.454 39.066 15.6175 39.1338 15.7381 39.2543C15.8587 39.3749 15.9264 39.5384 15.9264 39.7089Z" stroke="#333333" stroke-width="4" stroke-linecap="round" stroke-linejoin="round"/>
</svg>
