<svg width="28" height="27" viewBox="0 0 28 27" fill="none" xmlns="http://www.w3.org/2000/svg">
<path d="M10.1741 18.1222L6.03177 13.9828C5.80857 13.7598 5.50584 13.6345 5.19019 13.6345C4.87453 13.6345 4.5718 13.7598 4.3486 13.9828C4.12539 14.2059 4 14.5084 4 14.8238C4 14.98 4.03079 15.1347 4.0906 15.279C4.15041 15.4233 4.23808 15.5544 4.3486 15.6648L9.33844 20.6511C9.804 21.1163 10.5561 21.1163 11.0216 20.6511L23.6514 8.03032C23.8746 7.80728 24 7.50477 24 7.18933C24 6.8739 23.8746 6.57139 23.6514 6.34835C23.4282 6.1253 23.1255 6 22.8098 6C22.4942 6 22.1914 6.1253 21.9682 6.34835L10.1741 18.1222Z" fill="white"/>
</svg>
