<svg width="17" height="16" viewBox="0 0 17 16" fill="none" xmlns="http://www.w3.org/2000/svg">
<g clip-path="url(#clip0_70_308)">
<path d="M16.4512 5.82039C16.3561 5.82039 16.261 5.7959 16.1732 5.74448L8.5 1.18984L0.829267 5.74448C0.568292 5.89875 0.231706 5.81304 0.0780477 5.55103C-0.0756108 5.28902 0.00975506 4.95109 0.270731 4.79682L8.21951 0.0756701C8.39268 -0.0271765 8.60488 -0.0271765 8.77805 0.0756701L16.7293 4.79437C16.9902 4.94864 17.0756 5.28657 16.922 5.54858C16.8195 5.72244 16.6366 5.82039 16.4488 5.82039H16.4512Z" fill="#222222"/>
<path d="M14.2732 16.0001H10.3366C10.0341 16.0001 9.7878 15.7528 9.7878 15.4492V10.7378H7.21219V15.4492C7.21219 15.7528 6.96584 16.0001 6.66341 16.0001H2.72682C2.42438 16.0001 2.17804 15.7528 2.17804 15.4492V6.55048C2.17804 6.24683 2.42438 5.99951 2.72682 5.99951C3.02926 5.99951 3.2756 6.24683 3.2756 6.55048V14.8982H6.11462V10.1868C6.11462 9.8832 6.36097 9.63587 6.66341 9.63587H10.3366C10.639 9.63587 10.8854 9.8832 10.8854 10.1868V14.8982H13.7244V6.55048C13.7244 6.24683 13.9707 5.99951 14.2732 5.99951C14.5756 5.99951 14.8219 6.24683 14.8219 6.55048V15.4492C14.8219 15.7528 14.5756 16.0001 14.2732 16.0001Z" fill="#222222"/>
</g>
<defs>
<clipPath id="clip0_70_308">
<rect width="17" height="16" fill="white"/>
</clipPath>
</defs>
</svg>
