<svg width="24" height="24" viewBox="0 0 24 24" fill="none" xmlns="http://www.w3.org/2000/svg">
<path d="M11.3072 3.52213C10.7992 3.57842 10.0013 3.8036 9.49322 4.04085C7.81417 4.81291 6.53602 6.41734 6.14702 8.23489C5.85725 9.59403 5.98824 10.6717 6.60747 11.9343C7.00441 12.7546 7.45692 13.4141 8.27859 14.3792C9.13995 15.3885 9.59643 16.0238 10.0926 16.9004C10.557 17.7127 11.0016 18.7019 11.3628 19.7152C11.466 20.0007 11.5652 20.2661 11.5891 20.3063C11.6764 20.4792 12.0217 20.5556 12.2361 20.4551C12.379 20.3908 12.4385 20.2822 12.6251 19.7514C13.153 18.2194 13.9866 16.6029 14.8321 15.4689C14.9869 15.2638 15.356 14.8094 15.6537 14.4556C16.273 13.7278 16.6818 13.1849 16.9954 12.6702C18.0592 10.929 18.2656 9.397 17.6741 7.59553C17.2335 6.25247 16.2809 5.07428 15.0345 4.31831C14.4192 3.94837 13.6254 3.66689 12.8831 3.55832C12.506 3.498 11.6764 3.48191 11.3072 3.52213ZM12.4306 7.57543C13.1371 7.72421 13.7603 8.33542 13.9509 9.05922C14.0223 9.3206 14.0223 9.81118 13.9509 10.0725C13.808 10.6234 13.3832 11.1462 12.8831 11.3955C11.7875 11.9343 10.5014 11.3915 10.0926 10.2133C9.96161 9.83932 9.96161 9.29245 10.0926 8.91848C10.2712 8.40378 10.6047 8.00971 11.073 7.75638C11.4938 7.53119 11.9423 7.47088 12.4306 7.57543Z" fill="#007DFF"/>
</svg>
