<svg width="28" height="28" viewBox="0 0 28 28" fill="none" xmlns="http://www.w3.org/2000/svg">
<path d="M7.15789 6H20.8421C21.6796 6 22.4829 6.33714 23.0751 6.93726C23.6673 7.53737 24 8.35131 24 9.2V18.8C24 19.6487 23.6673 20.4626 23.0751 21.0627C22.4829 21.6629 21.6796 22 20.8421 22H7.15789C6.32037 22 5.51715 21.6629 4.92493 21.0627C4.33271 20.4626 4 19.6487 4 18.8V9.2C4 8.35131 4.33271 7.53737 4.92493 6.93726C5.51715 6.33714 6.32037 6 7.15789 6ZM7.15789 7.06667C6.63158 7.06667 6.16842 7.248 5.81053 7.568L14 12.9333L22.1895 7.568C21.8316 7.248 21.3684 7.06667 20.8421 7.06667H7.15789ZM14 14.224L5.18947 8.432C5.10526 8.66667 5.05263 8.93333 5.05263 9.2V18.8C5.05263 19.3658 5.27444 19.9084 5.66925 20.3085C6.06406 20.7086 6.59954 20.9333 7.15789 20.9333H20.8421C21.4005 20.9333 21.9359 20.7086 22.3308 20.3085C22.7256 19.9084 22.9474 19.3658 22.9474 18.8V9.2C22.9474 8.93333 22.8947 8.66667 22.8105 8.432L14 14.224Z" fill="black"/>
</svg>
