<svg width="28" height="28" viewBox="0 0 28 28" fill="none" xmlns="http://www.w3.org/2000/svg">
<path d="M22.5714 15.4286H15.4286V22.5714C15.4286 22.9503 15.2781 23.3137 15.0102 23.5816C14.7422 23.8495 14.3789 24 14 24C13.6211 24 13.2578 23.8495 12.9898 23.5816C12.7219 23.3137 12.5714 22.9503 12.5714 22.5714V15.4286H5.42857C5.04969 15.4286 4.68633 15.2781 4.41842 15.0102C4.15051 14.7422 4 14.3789 4 14C4 13.6211 4.15051 13.2578 4.41842 12.9898C4.68633 12.7219 5.04969 12.5714 5.42857 12.5714H12.5714V5.42857C12.5714 5.04969 12.7219 4.68633 12.9898 4.41842C13.2578 4.15051 13.6211 4 14 4C14.3789 4 14.7422 4.15051 15.0102 4.41842C15.2781 4.68633 15.4286 5.04969 15.4286 5.42857V12.5714H22.5714C22.9503 12.5714 23.3137 12.7219 23.5816 12.9898C23.8495 13.2578 24 13.6211 24 14C24 14.3789 23.8495 14.7422 23.5816 15.0102C23.3137 15.2781 22.9503 15.4286 22.5714 15.4286Z" fill="#888888"/>
</svg>
