<svg width="28" height="28" viewBox="0 0 28 28" fill="none" xmlns="http://www.w3.org/2000/svg">
<path d="M14 7.23579C13.2135 7.23579 12.4446 7.47889 11.7906 7.93435C11.1367 8.38981 10.627 9.03717 10.326 9.79457C10.025 10.552 9.94622 11.3854 10.0997 12.1894C10.2531 12.9935 10.6319 13.7321 11.188 14.3118C11.7442 14.8914 12.4528 15.2862 13.2242 15.4461C13.9956 15.6061 14.7952 15.524 15.5218 15.2103C16.2485 14.8965 16.8696 14.3653 17.3065 13.6836C17.7435 13.002 17.9767 12.2006 17.9767 11.3808C17.9767 10.2815 17.5578 9.22717 16.812 8.44983C16.0662 7.6725 15.0547 7.23579 14 7.23579ZM14 14.2168C13.4619 14.2168 12.9358 14.0505 12.4883 13.7389C12.0409 13.4273 11.6921 12.9843 11.4862 12.4661C11.2802 11.9479 11.2264 11.3776 11.3314 10.8275C11.4363 10.2774 11.6955 9.77203 12.076 9.3754C12.4565 8.97877 12.9414 8.70866 13.4692 8.59923C13.997 8.4898 14.5441 8.54597 15.0413 8.76062C15.5384 8.97528 15.9634 9.33878 16.2624 9.80517C16.5613 10.2716 16.7209 10.8199 16.7209 11.3808C16.7209 12.133 16.4343 12.8543 15.924 13.3862C15.4137 13.918 14.7216 14.2168 14 14.2168ZM14 2C11.6139 2.00289 9.32633 2.99214 7.6391 4.75076C5.95187 6.50937 5.00277 8.89374 5 11.3808C5 14.7524 6.5007 18.3335 9.33988 21.7368C10.6213 23.2804 12.0636 24.6706 13.64 25.8818C13.7455 25.9587 13.8712 26 14 26C14.1288 26 14.2545 25.9587 14.36 25.8818C15.9364 24.6706 17.3787 23.2804 18.6601 21.7368C21.4993 18.3335 23 14.7557 23 11.3808C22.9972 8.89374 22.0481 6.50937 20.3609 4.75076C18.6737 2.99214 16.3861 2.00289 14 2ZM14 24.5259C12.4302 23.2628 6.25581 17.8841 6.25581 11.3808C6.25581 9.24001 7.07172 7.1869 8.52403 5.67314C9.97635 4.15937 11.9461 3.30895 14 3.30895C16.0539 3.30895 18.0236 4.15937 19.476 5.67314C20.9283 7.1869 21.7442 9.24001 21.7442 11.3808C21.7442 17.8841 15.5698 23.2628 14 24.5259Z" fill="black"/>
</svg>
