<svg width="60" height="60" viewBox="0 0 60 60" fill="none" xmlns="http://www.w3.org/2000/svg">
<path d="M42.5 35C43.163 35 43.7989 34.7366 44.2678 34.2678C44.7366 33.7989 45 33.163 45 32.5C45 31.837 44.7366 31.2011 44.2678 30.7322C43.7989 30.2634 43.163 30 42.5 30C41.837 30 41.2011 30.2634 40.7322 30.7322C40.2634 31.2011 40 31.837 40 32.5C40 33.163 40.2634 33.7989 40.7322 34.2678C41.2011 34.7366 41.837 35 42.5 35ZM42.5 45C43.163 45 43.7989 44.7366 44.2678 44.2678C44.7366 43.7989 45 43.163 45 42.5C45 41.837 44.7366 41.2011 44.2678 40.7322C43.7989 40.2634 43.163 40 42.5 40C41.837 40 41.2011 40.2634 40.7322 40.7322C40.2634 41.2011 40 41.837 40 42.5C40 43.163 40.2634 43.7989 40.7322 44.2678C41.2011 44.7366 41.837 45 42.5 45ZM32.5 32.5C32.5 33.163 32.2366 33.7989 31.7678 34.2678C31.2989 34.7366 30.663 35 30 35C29.337 35 28.7011 34.7366 28.2322 34.2678C27.7634 33.7989 27.5 33.163 27.5 32.5C27.5 31.837 27.7634 31.2011 28.2322 30.7322C28.7011 30.2634 29.337 30 30 30C30.663 30 31.2989 30.2634 31.7678 30.7322C32.2366 31.2011 32.5 31.837 32.5 32.5ZM32.5 42.5C32.5 43.163 32.2366 43.7989 31.7678 44.2678C31.2989 44.7366 30.663 45 30 45C29.337 45 28.7011 44.7366 28.2322 44.2678C27.7634 43.7989 27.5 43.163 27.5 42.5C27.5 41.837 27.7634 41.2011 28.2322 40.7322C28.7011 40.2634 29.337 40 30 40C30.663 40 31.2989 40.2634 31.7678 40.7322C32.2366 41.2011 32.5 41.837 32.5 42.5ZM17.5 35C18.163 35 18.7989 34.7366 19.2678 34.2678C19.7366 33.7989 20 33.163 20 32.5C20 31.837 19.7366 31.2011 19.2678 30.7322C18.7989 30.2634 18.163 30 17.5 30C16.837 30 16.2011 30.2634 15.7322 30.7322C15.2634 31.2011 15 31.837 15 32.5C15 33.163 15.2634 33.7989 15.7322 34.2678C16.2011 34.7366 16.837 35 17.5 35ZM17.5 45C18.163 45 18.7989 44.7366 19.2678 44.2678C19.7366 43.7989 20 43.163 20 42.5C20 41.837 19.7366 41.2011 19.2678 40.7322C18.7989 40.2634 18.163 40 17.5 40C16.837 40 16.2011 40.2634 15.7322 40.7322C15.2634 41.2011 15 41.837 15 42.5C15 43.163 15.2634 43.7989 15.7322 44.2678C16.2011 44.7366 16.837 45 17.5 45Z" fill="#333333"/>
<path fill-rule="evenodd" clip-rule="evenodd" d="M17.5014 4.375C17.9987 4.375 18.4756 4.57254 18.8272 4.92417C19.1789 5.27581 19.3764 5.75272 19.3764 6.25V8.1575C21.0314 8.125 22.8539 8.125 24.8589 8.125H35.1414C37.1489 8.125 38.9714 8.125 40.6264 8.1575V6.25C40.6264 5.75272 40.8239 5.27581 41.1756 4.92417C41.5272 4.57254 42.0041 4.375 42.5014 4.375C42.9987 4.375 43.4756 4.57254 43.8272 4.92417C44.1789 5.27581 44.3764 5.75272 44.3764 6.25V8.3175C45.0264 8.3675 45.6422 8.43083 46.2239 8.5075C49.1539 8.9025 51.5264 9.7325 53.3989 11.6025C55.2689 13.475 56.0989 15.8475 56.4939 18.7775C56.8764 21.6275 56.8764 25.265 56.8764 29.86V35.14C56.8764 39.735 56.8764 43.375 56.4939 46.2225C56.0989 49.1525 55.2689 51.525 53.3989 53.3975C51.5264 55.2675 49.1539 56.0975 46.2239 56.4925C43.3739 56.875 39.7364 56.875 35.1414 56.875H24.8639C20.2689 56.875 16.6289 56.875 13.7814 56.4925C10.8514 56.0975 8.47891 55.2675 6.60641 53.3975C4.73641 51.525 3.90641 49.1525 3.51141 46.2225C3.12891 43.3725 3.12891 39.735 3.12891 35.14V29.86C3.12891 25.265 3.12891 21.625 3.51141 18.7775C3.90641 15.8475 4.73641 13.475 6.60641 11.6025C8.47891 9.7325 10.8514 8.9025 13.7814 8.5075C14.3647 8.43083 14.9806 8.3675 15.6289 8.3175V6.25C15.6289 5.75315 15.8261 5.27662 16.1772 4.92506C16.5283 4.5735 17.0046 4.37566 17.5014 4.375ZM14.2764 12.225C11.7639 12.5625 10.3139 13.1975 9.25641 14.255C8.19891 15.3125 7.56391 16.7625 7.22641 19.275C7.16974 19.7 7.12141 20.1492 7.08141 20.6225H52.9214C52.8814 20.1492 52.8331 19.6992 52.7764 19.2725C52.4389 16.76 51.8039 15.31 50.7464 14.2525C49.6889 13.195 48.2389 12.56 45.7239 12.2225C43.1564 11.8775 39.7689 11.8725 35.0014 11.8725H25.0014C20.2339 11.8725 16.8489 11.88 14.2764 12.225ZM6.87641 30C6.87641 27.865 6.87641 26.0075 6.90891 24.375H53.0939C53.1264 26.0075 53.1264 27.865 53.1264 30V35C53.1264 39.7675 53.1214 43.155 52.7764 45.725C52.4389 48.2375 51.8039 49.6875 50.7464 50.745C49.6889 51.8025 48.2389 52.4375 45.7239 52.775C43.1564 53.12 39.7689 53.125 35.0014 53.125H25.0014C20.2339 53.125 16.8489 53.12 14.2764 52.775C11.7639 52.4375 10.3139 51.8025 9.25641 50.745C8.19891 49.6875 7.56391 48.2375 7.22641 45.7225C6.88141 43.155 6.87641 39.7675 6.87641 35V30Z" fill="#0083CA"/>
</svg>
