<svg width="60" height="60" viewBox="0 0 60 60" fill="none" xmlns="http://www.w3.org/2000/svg">
<path d="M37.4489 17.5335C37.4489 17.5335 38.6989 18.7835 39.9489 21.2835C39.9489 21.2835 43.9214 15.0335 47.4489 13.7835M24.9864 5.04603C18.7389 4.78353 13.9139 5.50103 13.9139 5.50103C10.8664 5.72103 5.02889 7.42603 5.02889 17.406C5.02889 27.296 4.96389 39.491 5.02889 44.3535C5.02889 47.3235 6.86639 54.2535 13.2314 54.6235C20.9689 55.0735 34.9064 55.171 41.3014 54.6235C43.0114 54.526 48.7114 53.1835 49.4314 46.9835C50.1814 40.5585 50.0314 36.096 50.0314 35.0335" stroke="#0083CA" stroke-width="4" stroke-linecap="round" stroke-linejoin="round"/>
<path d="M17.4531 32.5391H27.4531M17.4531 42.5391H37.4531M55.0031 17.5391C55.0031 24.4416 49.4031 30.0391 42.4906 30.0391C40.8481 30.0407 39.2213 29.7186 37.7032 29.0912C36.1852 28.4637 34.8058 27.5432 33.6437 26.3823C32.4817 25.2214 31.5598 23.8429 30.9308 22.3255C30.3019 20.8081 29.9781 19.1816 29.9781 17.5391C29.9781 10.6341 35.5806 5.03907 42.4906 5.03907C44.1332 5.03743 45.76 5.35954 47.278 5.98698C48.796 6.61443 50.1755 7.53492 51.3375 8.69581C52.4996 9.85671 53.4215 11.2353 54.0504 12.7526C54.6794 14.27 55.0031 15.8965 55.0031 17.5391Z" stroke="#333333" stroke-width="4" stroke-linecap="round"/>
</svg>
