<svg width="36" height="36" viewBox="0 0 36 36" fill="none" xmlns="http://www.w3.org/2000/svg">
<path d="M35.9974 17.9987C35.9974 27.9419 27.9342 36 18.009 36C8.06065 36 0 27.9419 0 17.9987C0 8.06839 8.06065 0 18.009 0C27.9342 0 35.9974 8.06839 35.9974 17.9987Z" fill="#FEFEFE"/>
<path d="M18.0174 35.1526C27.4764 35.1526 35.1508 27.4782 35.1508 18.0063C35.1508 8.53436 27.4764 0.857422 18.0148 0.857422C8.5403 0.857422 0.871094 8.53436 0.871094 18.0063C0.871094 27.4834 8.5403 35.1526 18.0174 35.1526Z" fill="#0083C9"/>
<mask id="mask0_857_15977" style="mask-type:luminance" maskUnits="userSpaceOnUse" x="0" y="0" width="36" height="36">
<path d="M18.0174 35.1514C27.4764 35.1514 35.1508 27.4771 35.1508 18.0103C35.1508 8.54094 27.4764 0.869141 18.0148 0.869141C8.5403 0.869141 0.871094 8.54094 0.871094 18.0103C0.871094 27.4822 8.5403 35.1514 18.0174 35.1514Z" fill="white"/>
</mask>
<g mask="url(#mask0_857_15977)">
<path d="M18.1697 26.2777C25.7127 26.2777 32.1638 28.3843 34.94 31.3639C35.8542 29.2418 36.3667 26.8829 36.3667 24.4286C36.3667 14.5858 28.2159 6.62305 18.1697 6.62305C8.13641 6.62305 -0.0195312 14.5884 -0.0195312 24.4363C-0.0195312 26.8906 0.492952 29.2393 1.40975 31.3639C4.18076 28.3843 10.6396 26.2777 18.1697 26.2777Z" fill="#0083C9"/>
<path d="M18.1663 26.2961C25.6888 26.2961 32.1244 28.3872 34.8928 31.3411C35.8071 29.2397 36.317 26.8987 36.317 24.4625C36.317 14.6996 28.1868 6.77539 18.1663 6.77539C8.15878 6.77539 0.0234375 14.7021 0.0234375 24.4702C0.0234375 26.9039 0.535922 29.2345 1.45015 31.3411C4.21343 28.3872 10.6542 26.2961 18.1663 26.2961Z" fill="#0085CB"/>
<path d="M18.1669 26.3152C25.6713 26.3152 32.0889 28.3857 34.8496 31.3189C35.7638 29.233 36.2711 26.91 36.2711 24.4944C36.2711 14.8087 28.1616 6.92578 18.1669 6.92578C8.18505 6.92578 0.0703125 14.8139 0.0703125 24.5021C0.0703125 26.9178 0.582798 29.2304 1.49445 31.3189C4.25001 28.3857 10.6754 26.3152 18.1669 26.3152Z" fill="#0086CC"/>
<path d="M18.1596 26.3336C25.6459 26.3336 32.0455 28.3887 34.8011 31.2962C35.7102 29.2282 36.2175 26.9259 36.2175 24.5283C36.2175 14.9225 28.1285 7.07812 18.1596 7.07812C8.20351 7.07812 0.109375 14.9276 0.109375 24.536C0.109375 26.9311 0.619279 29.2256 1.53093 31.2962C4.27876 28.3887 10.6887 26.3336 18.1596 26.3336Z" fill="#0088CD"/>
<path d="M18.1601 26.3565C25.6258 26.3565 32.0126 28.3936 34.7578 31.2779C35.6669 29.2254 36.1717 26.9411 36.1717 24.5641C36.1717 15.0381 28.1033 7.23242 18.1601 7.23242C8.23235 7.23242 0.15625 15.0407 0.15625 24.5693C0.15625 26.9489 0.666157 29.2228 1.57266 31.2779C4.31534 28.3936 10.7072 26.3565 18.1601 26.3565Z" fill="#008ACE"/>
<path d="M18.1606 26.373C25.6083 26.373 31.977 28.3946 34.7146 31.2532C35.6211 29.2187 36.1258 26.955 36.1258 24.5961C36.1258 15.1499 28.078 7.38281 18.1606 7.38281C8.25863 7.38281 0.203125 15.1525 0.203125 24.6012C0.203125 26.9602 0.71303 29.2161 1.61696 31.2532C4.35191 28.3946 10.7283 26.373 18.1606 26.373Z" fill="#008BCF"/>
<path d="M18.1572 26.394C25.5844 26.394 31.9376 28.395 34.67 31.233C35.5739 29.214 36.0761 26.9683 36.0761 24.6299C36.0761 15.2636 28.0515 7.53516 18.1572 7.53516C8.28099 7.53516 0.246094 15.2662 0.246094 24.6351C0.246094 26.976 0.753424 29.214 1.65735 31.233C4.38458 28.395 10.7455 26.394 18.1572 26.394Z" fill="#008DD1"/>
<path d="M18.1538 26.4124C25.5629 26.4124 31.8982 28.398 34.6228 31.2102C35.5267 29.2092 36.0263 26.9842 36.0263 24.6638C36.0263 15.3773 28.0223 7.6875 18.1538 7.6875C8.30336 7.6875 0.289062 15.3799 0.289062 24.669C0.289062 26.9893 0.796395 29.2092 1.69775 31.2102C4.41725 28.398 10.7602 26.4124 18.1538 26.4124Z" fill="#008FD2"/>
<path d="M18.1557 26.4315C25.5442 26.4315 31.8639 28.399 34.5809 31.1881C35.4822 29.2051 35.9844 26.9955 35.9844 24.6957C35.9844 15.4891 27.9984 7.83789 18.1557 7.83789C8.33096 7.83789 0.339844 15.4917 0.339844 24.7009C0.339844 27.0006 0.842024 29.2025 1.74338 31.1881C4.45515 28.399 10.7826 26.4315 18.1557 26.4315Z" fill="#0091D3"/>
<path d="M18.1484 26.4499C25.5189 26.4499 31.8232 28.402 34.5324 31.1653C35.4311 29.2003 35.9308 27.0113 35.9308 24.7322C35.9308 15.6002 27.9654 7.99023 18.1484 7.99023C8.34942 7.99023 0.378906 15.6028 0.378906 24.7348C0.378906 27.0165 0.881084 29.1978 1.77986 31.1653C4.48391 28.402 10.7959 26.4499 18.1484 26.4499Z" fill="#0092D4"/>
<path d="M18.145 26.467C25.4949 26.467 31.7837 28.3985 34.4852 31.1412C35.384 29.1917 35.881 27.0207 35.881 24.7622C35.881 15.71 27.9363 8.13867 18.145 8.13867C8.37179 8.13867 0.421875 15.7126 0.421875 24.7648C0.421875 27.0259 0.924054 29.1917 1.82025 31.1412C4.51658 28.3985 10.8132 26.467 18.145 26.467Z" fill="#0094D6"/>
<path d="M18.1403 26.4855C25.4696 26.4855 31.7404 28.4015 34.4342 31.1184C35.3303 29.1869 35.8274 27.0366 35.8274 24.7961C35.8274 15.8237 27.9058 8.29102 18.1403 8.29102C8.39283 8.29102 0.460938 15.8263 0.460938 24.7986C0.460938 27.0417 0.960544 29.1869 1.85417 31.1184C4.54535 28.4015 10.8239 26.4855 18.1403 26.4855Z" fill="#0096D7"/>
<path d="M18.1408 26.5052C25.4495 26.5052 31.7049 28.4058 34.3935 31.0995C35.2871 29.1835 35.7815 27.0512 35.7815 24.8313C35.7815 15.9388 27.8806 8.44727 18.1408 8.44727C8.4191 8.44727 0.507812 15.9414 0.507812 24.8338C0.507812 27.0563 1.00742 29.1835 1.89847 31.0995C4.58192 28.4058 10.845 26.5052 18.1408 26.5052Z" fill="#0098D8"/>
<path d="M18.1413 26.5262C25.432 26.5262 31.6719 28.4088 34.3502 31.0768C35.2412 29.1788 35.7357 27.067 35.7357 24.8652C35.7357 16.0525 27.8553 8.59961 18.1413 8.59961C8.44537 8.59961 0.554688 16.0551 0.554688 24.8677C0.554688 27.0722 1.05172 29.1788 1.94277 31.0768C4.62107 28.4088 10.8661 26.5262 18.1413 26.5262Z" fill="#009AD9"/>
<path d="M18.1379 26.5407C25.4106 26.5407 31.6325 28.4053 34.303 31.0527C35.1941 29.1727 35.686 27.0764 35.686 24.8951C35.686 16.1623 27.8262 8.74805 18.1379 8.74805C8.46774 8.74805 0.597656 16.1623 0.597656 24.8977C0.597656 27.0815 1.09469 29.1701 1.98316 31.0527C4.65374 28.4053 10.8808 26.5407 18.1379 26.5407Z" fill="#009CDB"/>
<path d="M18.1346 26.5617C25.3866 26.5617 31.593 28.4082 34.2559 31.0299C35.1469 29.1679 35.6362 27.0923 35.6362 24.929C35.6362 16.2735 27.797 8.90039 18.1346 8.90039C8.49011 8.90039 0.640625 16.276 0.640625 24.9316C0.640625 27.0948 1.13766 29.1679 2.02356 31.0299C4.68641 28.4082 10.898 26.5617 18.1346 26.5617Z" fill="#009EDC"/>
<path d="M18.1364 26.586C25.3704 26.586 31.5588 28.4171 34.2165 31.0155C35.1024 29.1691 35.5917 27.114 35.5917 24.9687C35.5917 16.393 27.7757 9.05859 18.1364 9.05859C8.51771 9.05859 0.691406 16.3956 0.691406 24.9713C0.691406 27.1165 1.18328 29.1691 2.06918 31.0155C4.72431 28.4171 10.9204 26.586 18.1364 26.586Z" fill="#00A0DD"/>
<path d="M18.1291 26.6012C25.3425 26.6012 31.518 28.4142 34.1654 30.9869C35.0513 29.1584 35.5381 27.1214 35.5381 24.9968C35.5381 16.5009 27.7427 9.20508 18.1291 9.20508C8.53617 9.20508 0.730469 16.5035 0.730469 24.9993C0.730469 27.124 1.22235 29.1584 2.10567 30.9869C4.75307 28.4142 10.9312 26.6012 18.1291 26.6012Z" fill="#00A2DE"/>
<path d="M18.1257 26.6196C25.3211 26.6196 31.4786 28.4146 34.1183 30.9667C35.0042 29.1537 35.4883 27.1372 35.4883 25.0306C35.4883 16.6146 27.7135 9.35742 18.1257 9.35742C8.55854 9.35742 0.773438 16.6172 0.773438 25.0306C0.773438 27.1398 1.26274 29.1537 2.14349 30.9667C4.78574 28.4146 10.9484 26.6196 18.1257 26.6196Z" fill="#00A4E0"/>
<path d="M18.1263 26.6406C25.301 26.6406 31.4431 28.4175 34.0776 30.9439C34.9583 29.1489 35.4451 27.1505 35.4451 25.0645C35.4451 16.7283 27.6883 9.50977 18.1263 9.50977C8.58738 9.50977 0.820312 16.7283 0.820312 25.0645C0.820312 27.1531 1.30962 29.1515 2.18779 30.9439C4.82231 28.4175 10.9695 26.6406 18.1263 26.6406Z" fill="#00A6E1"/>
<path d="M18.1268 26.6629C25.2835 26.6629 31.4075 28.4244 34.0343 30.9276C34.9151 29.1481 35.3992 27.1703 35.3992 25.1023C35.3992 16.8459 27.6631 9.66602 18.1268 9.66602C8.61366 9.66602 0.867188 16.8459 0.867188 25.1023C0.867188 27.1729 1.35649 29.1507 2.23209 30.9276C4.85889 28.4244 10.9881 26.6629 18.1268 26.6629Z" fill="#02A8E3"/>
<path d="M18.1195 26.6839C25.2556 26.6839 31.3668 28.4274 33.9833 30.9048C34.864 29.1459 35.3456 27.1836 35.3456 25.1362C35.3456 16.9596 27.6326 9.81836 18.1195 9.81836C8.63212 9.81836 0.90625 16.9596 0.90625 25.1362C0.90625 27.1861 1.39298 29.1459 2.26858 30.9048C4.88765 28.4274 11.0014 26.6839 18.1195 26.6839Z" fill="#07ABE4"/>
<path d="M18.1226 26.7024C25.2381 26.7024 31.3312 28.4278 33.9426 30.8821C34.8182 29.1412 35.2997 27.1994 35.2997 25.1701C35.2997 17.0708 27.6074 9.9707 18.1226 9.9707C8.65839 9.9707 0.953125 17.0734 0.953125 25.1701C0.953125 27.1994 1.43985 29.1412 2.31288 30.8821C4.92422 28.4278 11.0225 26.7024 18.1226 26.7024Z" fill="#0BADE5"/>
<path d="M18.1153 26.7208C25.2128 26.7208 31.2879 28.4308 33.8915 30.8619C34.7671 29.1364 35.2461 27.2127 35.2461 25.204C35.2461 17.1845 27.5743 10.123 18.1153 10.123C8.67685 10.123 0.992188 17.1871 0.992188 25.204C0.992188 27.2153 1.47634 29.139 2.34936 30.8619C4.95298 28.4308 11.0332 26.7208 18.1153 26.7208Z" fill="#0FAFE7"/>
<path d="M18.1197 26.7418C25.1966 26.7418 31.2563 28.4338 33.8521 30.8391C34.7252 29.1317 35.2042 27.2285 35.2042 25.2378C35.2042 17.2982 27.553 10.2754 18.1197 10.2754C8.70703 10.2754 1.04297 17.2982 1.04297 25.2378C1.04297 27.2285 1.52712 29.1343 2.39757 30.8391C4.99346 28.4338 11.0583 26.7418 18.1197 26.7418Z" fill="#11B2E8"/>
<path d="M18.1098 26.7563C25.1687 26.7563 31.2129 28.4303 33.8011 30.815C34.6715 29.123 35.148 27.2379 35.148 25.2704C35.148 17.408 27.5174 10.4238 18.1098 10.4238C8.72292 10.4238 1.08203 17.408 1.08203 25.2678C1.08203 27.2405 1.56361 29.1256 2.42891 30.815C5.02223 28.4303 11.069 26.7563 18.1098 26.7563Z" fill="#12B4EA"/>
<path d="M18.1065 26.7773C25.1447 26.7773 31.1735 28.4332 33.7539 30.7922C34.6244 29.1183 35.0982 27.2538 35.0982 25.3043C35.0982 17.5217 27.4908 10.5762 18.1065 10.5762C8.74528 10.5762 1.125 17.5217 1.125 25.3017C1.125 27.2538 1.604 29.1208 2.4693 30.7922C5.05489 28.4332 11.0836 26.7773 18.1065 26.7773Z" fill="#12B7EB"/>
<path d="M18.1031 26.7932C25.1233 26.7932 31.134 28.4336 33.7067 30.7694C34.5746 29.1135 35.0485 27.2645 35.0485 25.3356C35.0485 17.6329 27.4617 10.7285 18.1031 10.7285C8.77022 10.7285 1.16797 17.6329 1.16797 25.333C1.16797 27.267 1.64697 29.1161 2.50969 30.7694C5.08756 28.4336 11.1009 26.7932 18.1031 26.7932Z" fill="#11B9EC"/>
<path d="M18.1036 26.8181C25.1032 26.8181 31.0985 28.4405 33.6635 30.7506C34.5313 29.1127 35.0026 27.2842 35.0026 25.3734C35.0026 17.7505 27.4364 10.8848 18.1036 10.8848C8.79649 10.8848 1.21484 17.7505 1.21484 25.3708C1.21484 27.2842 1.69127 29.1153 2.55399 30.7506C5.12413 28.4405 11.122 26.8181 18.1036 26.8181Z" fill="#0FBCEE"/>
<path d="M18.1002 26.8365C25.0818 26.8365 31.0616 28.4409 33.6189 30.7304C34.4842 29.1079 34.9529 27.2975 34.9529 25.4072C34.9529 17.8616 27.4073 11.0371 18.1002 11.0371C8.81886 11.0371 1.25781 17.8616 1.25781 25.4047C1.25781 27.2975 1.73424 29.1105 2.59439 30.7304C5.1568 28.4409 11.1366 26.8365 18.1002 26.8365Z" fill="#0CBEEF"/>
<path d="M18.1007 26.8536C25.0617 26.8536 31.0261 28.44 33.5756 30.7037C34.4384 29.0993 34.9096 27.3094 34.9096 25.4372C34.9096 17.9714 27.3821 11.1855 18.1007 11.1855C8.84513 11.1855 1.30469 17.9714 1.30469 25.4346C1.30469 27.3094 1.78111 29.1019 2.63869 30.7037C5.19337 28.44 11.1577 26.8536 18.1007 26.8536Z" fill="#0CC1F1"/>
<path d="M18.0973 26.8701C25.0403 26.8701 30.9866 28.441 33.5285 30.6815C34.3912 29.0926 34.8599 27.3208 34.8599 25.4691C34.8599 18.0832 27.3529 11.3359 18.0973 11.3359C8.8675 11.3359 1.34766 18.0832 1.34766 25.4666C1.34766 27.3208 1.82151 29.0951 2.67908 30.6815C5.22604 28.441 11.175 26.8701 18.0973 26.8701Z" fill="#10C3F2"/>
<path d="M18.0976 26.9135C25.0303 26.9135 30.9689 28.4741 33.5081 30.6992C34.3683 29.1205 34.837 27.3616 34.837 25.5202C34.837 18.1832 27.3429 11.4746 18.0976 11.4746C8.88063 11.4746 1.37109 18.1832 1.37109 25.5177C1.37109 27.3616 1.84495 29.1257 2.69994 30.6992C5.24433 28.4741 11.1829 26.9135 18.0976 26.9135Z" fill="#20C5F3"/>
<path d="M18.0979 26.9588C25.0228 26.9588 30.9537 28.5092 33.4878 30.7188C34.3453 29.153 34.8141 27.4044 34.8141 25.5759C34.8141 18.2852 27.3303 11.6152 18.0979 11.6152C8.89377 11.6152 1.39453 18.2852 1.39453 25.5733C1.39453 27.4044 1.86581 29.1555 2.72081 30.7213C5.26004 28.5091 11.1935 26.9588 18.0979 26.9588Z" fill="#30C6F3"/>
<path d="M18.0981 27.0016C25.0128 27.0016 30.9359 28.5416 33.4674 30.7383C34.325 29.1803 34.7911 27.4445 34.7911 25.629C34.7911 18.3847 27.3176 11.7559 18.0981 11.7559C8.90433 11.7559 1.41797 18.3847 1.41797 25.6238C1.41797 27.4445 1.88925 29.1829 2.74167 30.7383C5.27833 28.5416 11.2041 27.0016 18.0981 27.0016Z" fill="#40C8F3"/>
<path d="M18.0984 27.0469C25.0027 27.0469 30.9182 28.5767 33.4471 30.7579C34.3021 29.2102 34.7682 27.4873 34.7682 25.682C34.7682 18.4867 27.305 11.8965 18.0984 11.8965C8.91747 11.8965 1.44141 18.4867 1.44141 25.6794C1.44141 27.4873 1.91269 29.2127 2.76253 30.7579C5.29404 28.5767 11.212 27.0469 18.0984 27.0469Z" fill="#50C9F4"/>
<path d="M18.1012 27.0923C24.9978 27.0923 30.9055 28.6117 33.4293 30.7775C34.2817 29.2401 34.7479 27.5301 34.7479 25.7377C34.7479 18.5912 27.295 12.0371 18.1012 12.0371C8.93318 12.0371 1.46484 18.5912 1.46484 25.7325C1.46484 27.5301 1.93612 29.2452 2.78597 30.7801C5.3149 28.6117 11.2252 27.0923 18.1012 27.0923Z" fill="#5CCBF4"/>
<path d="M18.0976 27.1357C24.9839 27.1357 30.8839 28.6448 33.4051 30.7977C34.2549 29.2706 34.7236 27.5683 34.7236 25.7888C34.7236 18.6913 27.2785 12.1758 18.0976 12.1758C8.93983 12.1758 1.48438 18.6913 1.48438 25.7862C1.48438 27.5709 1.95565 29.2731 2.80292 30.7977C5.32928 28.6448 11.2318 27.1357 18.0976 27.1357Z" fill="#63CDF5"/>
<path d="M18.0939 27.1784C24.9699 27.1784 30.8622 28.6772 33.3783 30.8147C34.2307 29.2979 34.6968 27.6085 34.6968 25.8418C34.6968 18.7907 27.2619 12.3164 18.0939 12.3164C8.94907 12.3164 1.50391 18.7907 1.50391 25.8367C1.50391 27.6111 1.97261 29.3005 2.81988 30.8147C5.34109 28.6772 11.2359 27.1784 18.0939 27.1784Z" fill="#6ACEF5"/>
<path d="M18.0981 27.2238C24.9664 27.2238 30.8509 28.7123 33.3618 30.8343C34.2117 29.3278 34.6778 27.6512 34.6778 25.8949C34.6778 18.8927 27.2532 12.457 18.0981 12.457C8.9661 12.457 1.53125 18.8927 1.53125 25.8923C1.53125 27.6538 1.99995 29.3303 2.84464 30.8369C5.36328 28.7123 11.2504 27.2238 18.0981 27.2238Z" fill="#72D0F5"/>
<path d="M18.0944 27.2671C24.9524 27.2671 30.8292 28.7479 33.3376 30.8545C34.1848 29.3557 34.651 27.6921 34.651 25.9486C34.651 18.9927 27.2367 12.5957 18.0944 12.5957C8.97534 12.5957 1.55078 18.9927 1.55078 25.946C1.55078 27.6946 2.01948 29.3583 2.8616 30.8545C5.37508 28.7479 11.2545 27.2671 18.0944 27.2671Z" fill="#79D2F6"/>
<path d="M18.0947 27.3125C24.9424 27.3125 30.8115 28.783 33.3172 30.8741C34.1619 29.3882 34.628 27.7348 34.628 26.0017C34.628 19.0947 27.2241 12.7363 18.0947 12.7363C8.9859 12.7363 1.57422 19.0947 1.57422 25.9991C1.57422 27.7348 2.04035 29.3907 2.88247 30.8741C5.39337 28.783 11.265 27.3125 18.0947 27.3125Z" fill="#80D3F6"/>
<path d="M18.0936 27.3527C24.9336 27.3527 30.7949 28.8154 33.2956 30.8911C34.1402 29.4155 34.6038 27.775 34.6038 26.0547C34.6038 19.1941 27.2101 12.877 18.0936 12.877C8.9977 12.877 1.59375 19.1941 1.59375 26.0521C1.59375 27.775 2.06245 29.418 2.902 30.8937C5.41033 28.8154 11.2743 27.3552 18.0936 27.3527Z" fill="#87D5F6"/>
<path d="M18.0939 27.398C24.9235 27.398 30.7772 28.8505 33.2752 30.9133C34.1173 29.4454 34.5835 27.8178 34.5835 26.1104C34.5835 19.2961 27.1975 13.0176 18.0939 13.0176C9.01084 13.0176 1.61719 19.2961 1.61719 26.1052C1.61719 27.8178 2.08332 29.4479 2.92286 30.9133C5.42604 28.8505 11.2822 27.4006 18.0939 27.398Z" fill="#8DD7F7"/>
<path d="M18.0941 27.4375C24.9135 27.4375 30.7594 28.8797 33.2549 30.927C34.0944 29.4694 34.5605 27.8547 34.5605 26.1576C34.5605 19.3923 27.1849 13.1523 18.0941 13.1523C9.0214 13.1523 1.64062 19.3923 1.64062 26.155C1.64062 27.8547 2.10676 29.472 2.94372 30.9296C5.44433 28.8797 11.2928 27.4401 18.0941 27.4375Z" fill="#94D9F7"/>
<path d="M18.0905 27.4828C24.9021 27.4828 30.7403 28.9147 33.228 30.9466C34.0702 29.5019 34.5337 27.8974 34.5337 26.2132C34.5337 19.4943 27.1684 13.293 18.0905 13.293C9.03063 13.293 1.66016 19.4943 1.66016 26.2081C1.66016 27.8974 2.12371 29.5019 2.96067 30.9492C5.45613 28.9147 11.2995 27.4854 18.0905 27.4828Z" fill="#9ADBF8"/>
<path d="M18.0947 27.5275C24.896 27.5275 30.7265 28.9491 33.2116 30.9681C34.0512 29.5311 34.5147 27.937 34.5147 26.2657C34.5147 19.5956 27.1597 13.4355 18.0947 13.4355C9.04767 13.4355 1.6875 19.5957 1.6875 26.2631C1.6875 27.9396 2.15105 29.5337 2.98544 30.9681C5.47832 28.9491 11.3114 27.5301 18.0947 27.5275Z" fill="#A0DDF8"/>
<path d="M18.0949 27.569C24.886 27.569 30.7087 28.9802 33.1913 30.9838C34.0282 29.5571 34.4918 27.9759 34.4918 26.3174C34.4918 19.6937 27.1471 13.5723 18.0949 13.5723C9.06081 13.5723 1.71094 19.6937 1.71094 26.3122C1.71094 27.9784 2.17449 29.5597 3.00631 30.9864C5.49661 28.9802 11.3219 27.5716 18.0949 27.569Z" fill="#A6DFF8"/>
<path d="M18.0939 27.6143C24.8772 27.6143 30.6896 29.0153 33.1696 31.0034C34.004 29.587 34.4675 28.0186 34.4675 26.3704C34.4675 19.7957 27.1331 13.7129 18.0939 13.7129C9.07004 13.7129 1.73047 19.7957 1.73047 26.3679C1.73047 28.0212 2.19402 29.5896 3.02584 31.006C5.51099 29.0153 11.3286 27.6169 18.0939 27.6143Z" fill="#ACE1F9"/>
<path d="M18.0941 27.6577C24.8671 27.6577 30.6744 29.0484 33.1492 31.0236C33.9836 29.6175 34.4472 28.0594 34.4472 26.4241C34.4472 19.8983 27.1231 13.8516 18.0941 13.8516C9.08318 13.8516 1.75391 19.8983 1.75391 26.4216C1.75391 28.062 2.21746 29.6175 3.04928 31.0236C5.52928 29.0484 11.3391 27.6603 18.0941 27.6577Z" fill="#B2E2F9"/>
<path d="M18.0944 27.7005C24.8571 27.7005 30.6566 29.0808 33.1289 31.0406C33.9607 29.6448 34.4243 28.0996 34.4243 26.4746C34.4243 19.9978 27.1105 13.9922 18.0944 13.9922C9.09631 13.9922 1.77734 19.9978 1.77734 26.472C1.77734 28.1022 2.23832 29.6448 3.07014 31.0432C5.54499 29.0808 11.3497 27.703 18.0944 27.7005Z" fill="#B8E4F9"/>
<path d="M18.0907 27.7438C24.8457 27.7438 30.635 29.1139 33.1047 31.0582C33.9339 29.6727 34.3974 28.1404 34.3974 26.5283C34.3974 20.0978 27.0939 14.1309 18.0907 14.1309C9.10296 14.1309 1.79688 20.0978 1.79688 26.5257C1.79688 28.143 2.25785 29.6753 3.08709 31.0608C5.55937 29.1139 11.3538 27.7464 18.0907 27.7438Z" fill="#BEE6FA"/>
<path d="M18.0949 27.7892C24.8396 27.7892 30.6237 29.1489 33.0856 31.0804C33.9149 29.7026 34.3784 28.1832 34.3784 26.584C34.3784 20.1998 27.0852 14.2715 18.0949 14.2715C9.12001 14.2715 1.82422 20.1998 1.82422 26.5788C1.82422 28.1858 2.28262 29.7052 3.11186 31.083C5.58156 29.1489 11.3682 27.7918 18.0949 27.7892Z" fill="#C3E8FA"/>
<path d="M18.0951 27.8306C24.8295 27.8306 30.6059 29.1801 33.0653 31.0961C33.8945 29.7312 34.3555 28.2221 34.3555 26.6331C34.3555 20.2979 27.0726 14.4082 18.0951 14.4082C9.13315 14.4082 1.84766 20.2979 1.84766 26.6305C1.84766 28.2246 2.30606 29.7312 3.13273 31.0987C5.59728 29.1801 11.3762 27.8332 18.0951 27.8306Z" fill="#C9EAFB"/>
<path d="M18.0941 27.8734C24.8207 27.8734 30.5868 29.2125 33.0436 31.1131C33.8703 29.7585 34.3313 28.2597 34.3313 26.6862C34.3313 20.3973 27.0587 14.5488 18.0941 14.5488C9.14495 14.5488 1.86719 20.3973 1.86719 26.681C1.86719 28.2623 2.32817 29.7585 3.15226 31.1157C5.61423 29.2125 11.3855 27.876 18.0941 27.8734Z" fill="#CEECFB"/>
<path d="M18.0943 27.9187C24.8107 27.9187 30.5716 29.2476 33.0233 31.1353C33.8474 29.7884 34.3084 28.3024 34.3084 26.7392C34.3084 20.4993 27.046 14.6895 18.0943 14.6895C9.15551 14.6895 1.89062 20.4993 1.89062 26.7367C1.89062 28.305 2.34903 29.7884 3.17312 31.1378C5.62995 29.2476 11.396 27.9213 18.0943 27.9187Z" fill="#D4EEFB"/>
<path d="M18.0946 27.9621C24.8006 27.9621 30.5538 29.2832 33.0029 31.1529C33.8245 29.8163 34.288 28.3433 34.288 26.7929C34.288 20.5994 27.0334 14.8281 18.0946 14.8281C9.16865 14.8281 1.91406 20.5994 1.91406 26.7878C1.91406 28.3458 2.37246 29.8189 3.19398 31.1555C5.64823 29.2832 11.404 27.9647 18.0946 27.9621Z" fill="#D9F1FC"/>
<path d="M18.0949 28.0068C24.7932 28.0068 30.5361 29.3177 32.9826 31.1719C33.8041 29.8482 34.2651 28.3854 34.2651 26.8454C34.2651 20.7007 27.0208 14.9707 18.0949 14.9707C9.18178 14.9707 1.9375 20.7007 1.9375 26.8428C1.9375 28.388 2.39332 29.8482 3.21484 31.1744C5.66652 29.3177 11.4146 28.0094 18.0949 28.0068Z" fill="#DFF3FC"/>
<path d="M18.0951 28.0502C24.7831 28.0502 30.5209 29.3507 32.9623 31.1921C33.7812 29.8761 34.2422 28.4262 34.2422 26.8991C34.2422 20.8008 27.0082 15.1094 18.0951 15.1094C9.19235 15.1094 1.96094 20.8008 1.96094 26.8939C1.96094 28.4288 2.41676 29.8761 3.2357 31.1946C5.68223 29.3507 11.4251 28.0528 18.0951 28.0502Z" fill="#E5F5FC"/>
<path d="M18.0901 28.091C24.7679 28.091 30.4979 29.3838 32.9341 31.2097C33.753 29.904 34.214 28.467 34.214 26.9527C34.214 20.9008 26.9903 15.248 18.0901 15.248C9.20025 15.248 1.97656 20.9008 1.97656 26.9476C1.97656 28.4696 2.43239 29.904 3.25133 31.2123C5.69528 29.3838 11.4279 28.0962 18.0901 28.091Z" fill="#EBF7FD"/>
<path d="M18.0982 28.1364C24.7682 28.1364 30.4879 29.4189 32.9216 31.2293C33.7405 29.9339 34.1989 28.5098 34.1989 27.0058C34.1989 21.0028 26.9855 15.3887 18.0982 15.3887C9.22119 15.3887 2.00781 21.0028 2.00781 27.0032C2.00781 28.5124 2.46364 29.9339 3.28001 31.2319C5.7188 29.4189 11.4462 28.1415 18.0982 28.1364Z" fill="#F2F9FD"/>
<path d="M18.0946 28.1791C24.7543 28.1791 30.4688 29.4513 32.8973 31.2489C33.7137 29.9638 34.1721 28.55 34.1721 27.0589C34.1721 21.1048 26.969 15.5293 18.0946 15.5293C9.23043 15.5293 2.02734 21.1048 2.02734 27.0537C2.02734 28.5525 2.48317 29.9638 3.29696 31.2514C5.73319 29.4513 11.4503 28.1843 18.0946 28.1791Z" fill="#F8FCFE"/>
<path d="M18.0909 28.2245C24.7403 28.2245 30.4472 29.4864 32.8731 31.2685C33.6869 29.9937 34.1478 28.5902 34.1478 27.1119C34.1478 21.2068 26.9525 15.6699 18.0909 15.6699C9.23708 15.6699 2.04688 21.2068 2.04688 27.1094C2.04688 28.5953 2.50013 29.9937 3.31392 31.271C5.74499 29.4864 11.457 28.2296 18.0909 28.2245Z" fill="#FEFEFE"/>
</g>
<path d="M18.0196 22.332C12.202 22.332 6.80424 23.3235 2.35156 24.9949C5.02729 30.9824 11.0277 35.1518 18.0222 35.1518C25.0038 35.1518 30.9965 30.9799 33.6825 24.9949C29.2298 23.3235 23.8243 22.332 18.0196 22.332Z" fill="#0083C9"/>
</svg>
