<svg width="86" height="72" viewBox="0 0 86 72" fill="none" xmlns="http://www.w3.org/2000/svg">
<path d="M30 24V42L44.1 50.7L46.5 47.1L34.5 39.9V24H30Z" fill="#0083CA"/>
<path d="M53.76 36C54.2122 38.9818 54.0128 42.0262 53.1755 44.9236C52.3382 47.8209 50.883 50.5024 48.9099 52.7834C46.9369 55.0644 44.493 56.8906 41.7464 58.1365C38.9998 59.3823 36.0159 60.0181 33 60C21.3 60 12 50.7 12 39C12 27.3 21.3 18 33 18C35.1 18 37.11 18.3 39 18.87V12.69C37.08 12.24 35.07 12 33 12C18 12 6 24 6 39C6 54 18 66 33 66C36.803 66.0158 40.5662 65.2247 44.0409 63.6788C47.5157 62.133 50.623 59.8677 53.1577 57.0325C55.6924 54.1972 57.5969 50.8565 58.7453 47.231C59.8938 43.6055 60.26 39.7775 59.82 36H53.76Z" fill="#0083CA"/>
<path d="M41.7305 18.5898H52.4355V21.0332H48.5684V31.3164H45.5977V21.0332H41.7305V18.5898ZM53.9121 21.7715H56.8828V31.3164H53.9121V21.7715ZM55.4062 20.6289C55.1309 20.6289 54.876 20.5674 54.6416 20.4443C54.4072 20.3154 54.2197 20.1426 54.0791 19.9258C53.9443 19.7031 53.877 19.4629 53.877 19.2051C53.877 18.9473 53.9443 18.71 54.0791 18.4932C54.2197 18.2705 54.4072 18.0977 54.6416 17.9746C54.876 17.8457 55.1309 17.7812 55.4062 17.7812C55.6816 17.7812 55.9365 17.8457 56.1709 17.9746C56.4111 18.0977 56.6016 18.2705 56.7422 18.4932C56.8828 18.71 56.9531 18.9473 56.9531 19.2051C56.9531 19.4629 56.8828 19.7031 56.7422 19.9258C56.6016 20.1426 56.4111 20.3154 56.1709 20.4443C55.9365 20.5674 55.6816 20.6289 55.4062 20.6289ZM58.7812 21.7715H61.5938V23.5117H61.6992C61.9043 22.9258 62.2412 22.4688 62.71 22.1406C63.1846 21.8125 63.75 21.6484 64.4062 21.6484C65.0684 21.6484 65.6338 21.8184 66.1025 22.1582C66.5713 22.4922 66.8672 22.9434 66.9902 23.5117H67.0957C67.2832 22.9434 67.6348 22.4922 68.1504 22.1582C68.6719 21.8184 69.2812 21.6484 69.9785 21.6484C70.5762 21.6484 71.1035 21.7803 71.5605 22.0439C72.0234 22.3018 72.3809 22.6738 72.6328 23.1602C72.8906 23.6465 73.0195 24.2207 73.0195 24.8828V31.3164H70.0488V25.5508C70.0488 25.0762 69.9229 24.71 69.6709 24.4521C69.4248 24.1885 69.0996 24.0566 68.6953 24.0566C68.2676 24.0566 67.9307 24.1973 67.6846 24.4785C67.4443 24.7539 67.3242 25.123 67.3242 25.5859V31.3164H64.4766V25.5156C64.4766 25.0703 64.3535 24.7158 64.1074 24.4521C63.8613 24.1885 63.5391 24.0566 63.1406 24.0566C62.7246 24.0566 62.3877 24.2031 62.1299 24.4961C61.8779 24.7891 61.752 25.1758 61.752 25.6562V31.3164H58.7812V21.7715ZM79.3301 31.4922C78.3398 31.4922 77.4814 31.2959 76.7549 30.9033C76.0342 30.5049 75.4805 29.9395 75.0938 29.207C74.707 28.4688 74.5137 27.5957 74.5137 26.5879C74.5137 25.6094 74.707 24.748 75.0938 24.0039C75.4805 23.2539 76.0283 22.6738 76.7373 22.2637C77.4521 21.8535 78.2812 21.6484 79.2246 21.6484C80.127 21.6484 80.9238 21.8359 81.6152 22.2109C82.3125 22.5859 82.8545 23.1396 83.2412 23.8721C83.6338 24.6045 83.8301 25.4863 83.8301 26.5176V27.2734H77.4316V27.3262C77.4316 27.9414 77.6074 28.4336 77.959 28.8027C78.3105 29.166 78.7852 29.3477 79.3828 29.3477C79.7812 29.3477 80.124 29.2686 80.4111 29.1104C80.7041 28.9463 80.9121 28.7207 81.0352 28.4336H83.7949C83.6777 29.0547 83.4229 29.5967 83.0303 30.0596C82.6377 30.5166 82.125 30.8711 81.4922 31.123C80.8652 31.3691 80.1445 31.4922 79.3301 31.4922ZM81.0703 25.5332C81.0645 25.1992 80.9854 24.9004 80.833 24.6367C80.6807 24.373 80.4697 24.168 80.2002 24.0215C79.9307 23.8691 79.6289 23.793 79.2949 23.793C78.9492 23.793 78.6357 23.8691 78.3545 24.0215C78.0791 24.1738 77.8594 24.3818 77.6953 24.6455C77.5312 24.9092 77.4434 25.2051 77.4316 25.5332H81.0703Z" fill="#0083CA"/>
</svg>
