<svg width="50" height="50" viewBox="0 0 50 50" fill="none" xmlns="http://www.w3.org/2000/svg">
<path d="M6.54 45C5.38833 45 4.4275 44.615 3.6575 43.845C2.8875 43.075 2.50167 42.1133 2.5 40.96V9.04C2.5 7.88833 2.88583 6.9275 3.6575 6.1575C4.42917 5.3875 5.38917 5.00167 6.5375 5H43.4625C44.6125 5 45.5725 5.38583 46.3425 6.1575C47.1125 6.92917 47.4983 7.89 47.5 9.04V40.9625C47.5 42.1125 47.1142 43.0733 46.3425 43.845C45.5708 44.6167 44.6108 45.0017 43.4625 45H6.54ZM6.54 42.5H43.4625C43.8458 42.5 44.1983 42.34 44.52 42.02C44.8417 41.7 45.0017 41.3467 45 40.96V9.04C45 8.655 44.84 8.30167 44.52 7.98C44.2 7.65833 43.8475 7.49833 43.4625 7.5H6.5375C6.15417 7.5 5.80167 7.66 5.48 7.98C5.15833 8.3 4.99833 8.65333 5 9.04V40.9625C5 41.3458 5.16 41.6983 5.48 42.02C5.8 42.3417 6.1525 42.5017 6.5375 42.5M13.1725 35.575H36.8275C37.1825 35.575 37.4792 35.4567 37.7175 35.22C37.9558 34.9833 38.0758 34.6858 38.0775 34.3275C38.0792 33.9692 37.9592 33.6717 37.7175 33.435C37.4758 33.1983 37.1792 33.0792 36.8275 33.0775H13.1725C12.8175 33.0775 12.52 33.1967 12.28 33.435C12.04 33.6733 11.9208 33.9708 11.9225 34.3275C11.9242 34.6842 12.0433 34.9817 12.28 35.22C12.5167 35.4583 12.8142 35.5775 13.1725 35.5775M13.1725 26.25H19.135C19.49 26.25 19.7867 26.1308 20.025 25.8925C20.2633 25.6542 20.3833 25.3567 20.385 25V15.675C20.385 15.3183 20.2658 15.02 20.0275 14.78C19.7892 14.54 19.4917 14.4208 19.135 14.4225H13.1725C12.8175 14.4225 12.5208 14.5417 12.2825 14.78C12.0442 15.0183 11.9242 15.3158 11.9225 15.6725V25C11.9225 25.3567 12.0417 25.6542 12.28 25.8925C12.5183 26.1308 12.8158 26.25 13.1725 26.25ZM27.5975 26.25H36.8275C37.1825 26.25 37.4792 26.1308 37.7175 25.8925C37.9558 25.6542 38.0758 25.3567 38.0775 25C38.0792 24.6433 37.9592 24.3458 37.7175 24.1075C37.4758 23.8692 37.1792 23.75 36.8275 23.75H27.595C27.24 23.75 26.9433 23.8692 26.705 24.1075C26.4667 24.3458 26.3475 24.6433 26.3475 25C26.3475 25.3567 26.4667 25.6542 26.705 25.8925C26.9433 26.1308 27.2408 26.25 27.5975 26.25ZM27.5975 16.925H36.8275C37.1825 16.925 37.4792 16.805 37.7175 16.565C37.9558 16.325 38.0758 16.0275 38.0775 15.6725C38.0792 15.3175 37.9592 15.02 37.7175 14.78C37.4758 14.54 37.1792 14.4208 36.8275 14.4225H27.595C27.24 14.4225 26.9433 14.5417 26.705 14.78C26.4667 15.0183 26.3467 15.3158 26.345 15.6725C26.3433 16.0292 26.4633 16.3267 26.705 16.565C26.9467 16.8033 27.2433 16.9225 27.595 16.9225" fill="#333333"/>
</svg>
