<svg width="50" height="50" viewBox="0 0 50 50" fill="none" xmlns="http://www.w3.org/2000/svg">
<path d="M47.5 6.3V35.5C47.5 36.15 47.3533 36.5 46.6685 36.5H24.5109V42.5H31.8478V45H15.7065V42.5H22.0652V36.5H4.30978C3.625 36.5 2.5 36.15 2.5 35.5V6.3C2.5 5.6 3.625 5 4.30978 5H46.6685C47.3533 5 47.5 5.6 47.5 6.3ZM45.0543 7.5H4.94565V34H45.0543V7.5ZM31.75 24C31.0163 23.4 30.9185 22.35 31.5054 21.65L37.6685 14C38.2554 13.3 39.2826 13.2 39.9674 13.8C40.6522 14.35 40.75 15.4 40.212 16.1L34 23.75C33.7065 24.15 33.2174 24.4 32.7772 24.4C32.3859 24.4 32.0435 24.25 31.75 24ZM17.0761 20.55C18.3967 19.3 19.7663 18.85 20.7935 19.3C21.7717 19.7 22.4565 20.95 22.5054 22.45C22.5543 24.4 23.4348 26 24.8533 26.85C25.538 27.3 26.3207 27.5 27.1522 27.5C28.1793 27.5 29.3043 27.2 30.4293 26.6L29.3043 24.35C27.9837 25.05 26.8587 25.2 26.0761 24.7C25.3913 24.3 25 23.45 24.9511 22.4C24.8533 19.85 23.6304 17.75 21.7228 16.95C19.7663 16.15 17.4674 16.8 15.413 18.75C13.5054 20.55 12.3804 20.2 11.2554 19.15L9.59239 21C11.2065 22.5 13.7989 23.65 17.0761 20.55Z" fill="white"/>
</svg>
