<svg width="53" height="54" viewBox="0 0 53 54" fill="none" xmlns="http://www.w3.org/2000/svg">
<path d="M35.7039 26.9133L43.857 17.201C44.748 16.1397 45.9066 15.6216 47.0601 15.6412C48.2112 15.6608 49.3584 16.2181 50.2254 17.3089C51.0925 18.3983 51.5128 19.8167 51.5002 21.231C51.4825 22.6369 51.0307 24.0441 50.1346 25.1013L41.9815 34.8135L33.8284 44.5272H17.6927L10.1328 52.1054" stroke="white" stroke-width="3" stroke-linecap="round" stroke-linejoin="round"/>
<path d="M21.7072 34.1101H30.7387C33.4004 34.1101 35.5573 31.7184 35.5573 28.7667C35.5573 25.8149 33.4004 23.4219 30.7387 23.4219H15.4852L1.5 36.9106" stroke="white" stroke-width="3" stroke-linecap="round" stroke-linejoin="round"/>
<path d="M32.5466 8.56991C32.5466 12.4738 29.693 15.6398 26.1743 15.6398C22.6556 15.6398 19.8008 12.4752 19.8008 8.56991C19.8008 4.66458 22.6543 1.5 26.1743 1.5C29.6942 1.5 32.5466 4.66458 32.5466 8.56991Z" stroke="#0083CA" stroke-width="3" stroke-linecap="round" stroke-linejoin="round"/>
</svg>
